{"glyphs":{"0":{"ha":864,"x_min":53,"x_max":856,"o":"m 403 -22 q 145 84 238 -22 q 53 368 53 190 q 84 589 53 482 q 172 782 115 696 q 318 920 228 868 q 517 972 408 972 q 766 866 676 972 q 856 582 856 760 q 829 364 856 468 q 750 172 803 260 q 608 31 697 83 q 403 -22 518 -22 m 246 360 q 410 138 246 138 q 530 183 478 138 q 609 300 582 228 q 649 446 636 372 q 663 590 663 519 q 501 813 663 813 q 381 765 433 813 q 300 645 328 718 q 259 499 272 572 q 246 360 246 426 z "},"1":{"ha":522,"x_min":82,"x_max":539,"o":"m 165 0 l 293 664 l 82 664 l 107 789 q 281 831 213 792 q 378 958 349 869 l 539 958 l 353 0 l 165 0 z "},"2":{"ha":747,"x_min":-33,"x_max":754,"o":"m 639 0 l -33 0 q 60 220 -11 133 q 244 378 132 307 q 337 434 275 397 q 419 485 399 471 q 476 527 439 499 q 524 575 513 556 q 547 624 536 594 q 558 690 558 654 q 528 777 558 743 q 440 811 497 811 q 263 617 300 811 l 86 617 q 203 878 106 785 q 456 971 300 971 q 671 898 588 971 q 754 699 754 825 q 733 573 754 629 q 666 472 711 517 q 580 399 621 428 q 474 332 539 369 q 415 299 457 322 q 351 263 372 275 q 299 230 329 250 q 251 191 269 210 q 221 154 232 172 l 668 154 l 639 0 z "},"3":{"ha":775,"x_min":13,"x_max":767,"o":"m 368 -21 q 102 76 192 -21 q 25 324 13 172 l 206 324 q 242 182 200 235 q 375 129 283 129 q 493 172 450 129 q 536 290 536 215 q 495 396 536 358 q 374 433 454 433 l 332 433 l 360 575 l 419 575 q 533 610 489 575 q 576 713 576 646 q 544 796 576 764 q 451 828 511 828 q 333 781 376 828 q 275 657 289 735 l 94 657 q 209 883 111 796 q 460 971 307 971 q 684 903 601 971 q 767 731 767 836 q 716 585 767 643 q 576 501 665 526 l 576 499 q 728 288 728 450 q 628 65 728 151 q 368 -21 528 -21 z "},"4":{"ha":813,"x_min":3,"x_max":789,"o":"m 396 0 l 435 210 l 3 210 l 43 411 l 575 963 l 763 963 l 646 358 l 789 358 l 758 210 l 615 210 l 576 0 l 396 0 m 189 363 l 189 358 l 465 358 l 535 722 l 532 722 l 189 363 z "},"5":{"ha":776,"x_min":-1,"x_max":794,"o":"m 340 -21 q 97 58 194 -21 q -1 275 -1 136 l 186 275 q 233 174 190 213 q 350 136 276 136 q 487 190 432 136 q 542 338 542 244 q 501 453 542 411 q 388 494 461 494 q 236 432 299 494 l 67 432 l 221 951 l 794 951 l 764 794 l 331 794 l 267 581 l 269 581 q 458 649 347 649 q 660 570 582 649 q 739 361 739 492 q 625 84 739 189 q 340 -21 511 -21 z "},"6":{"ha":799,"x_min":46,"x_max":804,"o":"m 394 -21 q 138 83 231 -21 q 49 360 46 186 q 99 642 50 500 q 239 867 147 783 q 508 971 351 971 q 714 911 632 971 q 804 725 796 851 l 625 725 q 497 828 617 828 q 351 753 410 828 q 261 553 292 678 l 264 553 q 489 653 350 653 q 689 569 607 653 q 769 349 771 486 q 663 84 768 189 q 394 -21 557 -21 m 231 296 q 275 173 231 219 q 393 126 319 126 q 532 183 478 126 q 586 333 586 239 q 546 457 586 410 q 429 504 506 504 q 287 447 343 504 q 231 296 231 389 z "},"7":{"ha":725,"x_min":104,"x_max":808,"o":"m 104 0 q 219 325 136 163 q 388 595 303 488 q 568 790 474 703 l 568 793 l 111 793 l 142 951 l 808 951 l 779 800 q 485 448 614 653 q 307 0 357 243 l 104 0 z "},"8":{"ha":815,"x_min":15,"x_max":810,"o":"m 385 -21 q 253 -5 317 -21 q 135 43 190 11 q 48 132 81 75 q 15 263 15 189 q 74 431 17 364 q 231 526 131 497 l 231 531 q 129 701 129 585 q 231 899 129 828 q 481 971 333 971 q 715 911 619 971 q 810 728 810 851 q 765 599 810 658 q 642 510 719 540 l 642 506 q 738 423 703 479 q 772 296 772 367 q 661 62 772 144 q 385 -21 550 -21 m 208 276 q 259 169 208 207 q 390 131 310 131 q 526 174 472 131 q 579 299 579 217 q 529 407 579 369 q 401 444 479 444 q 266 401 324 444 q 208 276 208 358 m 314 699 q 353 606 313 638 q 463 575 394 575 q 578 608 533 575 q 622 707 622 640 q 583 797 622 765 q 478 828 543 828 q 362 795 408 828 q 314 699 315 763 z "},"9":{"ha":815,"x_min":40,"x_max":811,"o":"m 358 -21 q 140 42 231 -21 q 40 228 49 106 l 224 228 q 267 153 231 183 q 365 122 304 122 q 515 194 461 122 q 599 403 569 265 l 596 403 q 378 303 499 303 q 163 381 246 303 q 79 593 79 460 q 191 865 79 760 q 464 971 303 971 q 719 876 626 971 q 811 599 811 781 q 772 331 811 469 q 664 111 733 193 q 358 -21 551 -21 m 267 618 q 309 497 265 540 q 432 454 353 454 q 574 507 518 454 q 629 654 629 560 q 586 778 629 732 q 465 824 543 824 q 324 767 379 824 q 267 618 268 710 z "}," ":{"ha":242,"x_min":0,"x_max":0,"o":""},"!":{"ha":347,"x_min":6,"x_max":393,"o":"m 114 290 l 157 774 l 199 993 l 393 993 l 349 760 l 204 290 l 114 290 m 6 0 l 44 201 l 244 201 l 206 0 l 6 0 z "},"\"":{"ha":522,"x_min":111,"x_max":589,"o":"m 360 644 l 426 993 l 589 993 l 522 644 l 360 644 m 111 644 l 178 993 l 340 993 l 274 644 l 111 644 z "},"#":{"ha":781,"x_min":15,"x_max":810,"o":"m 101 567 l 144 713 l 275 713 l 343 953 l 469 953 l 403 713 l 550 713 l 618 953 l 744 953 l 676 713 l 810 713 l 768 567 l 636 567 l 590 399 l 722 399 l 681 254 l 549 254 l 479 0 l 351 0 l 422 254 l 275 254 l 204 0 l 76 0 l 147 254 l 15 254 l 57 399 l 189 399 l 233 567 l 101 567 m 361 567 l 315 399 l 464 399 l 508 567 l 361 567 z "},"$":{"ha":808,"x_min":-4,"x_max":824,"o":"m 386 -17 l 376 -17 l 354 -135 l 272 -135 l 296 -11 q 76 85 157 8 q 3 297 -4 163 l 185 297 q 325 139 176 161 l 378 414 q 177 522 242 464 q 113 686 113 581 q 209 897 113 821 q 465 972 306 972 l 486 972 l 503 1054 l 585 1054 l 567 964 q 754 872 685 943 q 818 675 824 800 l 638 675 q 538 813 642 783 l 490 571 q 701 458 635 521 q 768 285 768 394 q 662 61 768 139 q 386 -17 556 -17 m 578 261 q 553 330 578 304 q 454 385 528 356 l 406 135 q 529 169 481 138 q 578 261 578 201 m 294 711 q 319 649 293 672 q 414 599 344 625 l 458 824 q 344 797 392 824 q 294 711 296 769 z "},"%":{"ha":1117,"x_min":75,"x_max":1088,"o":"m 290 418 q 132 481 189 418 q 75 640 75 544 q 150 876 75 781 q 344 972 225 972 q 505 908 449 972 q 561 750 561 844 q 488 514 561 610 q 290 418 414 418 m 178 0 l 867 953 l 986 953 l 297 0 l 178 0 m 218 632 q 293 524 218 524 q 385 594 353 524 q 418 761 418 665 q 400 835 418 804 q 342 867 382 867 q 250 796 282 867 q 218 632 218 725 m 817 -22 q 658 41 715 -22 q 601 200 601 104 q 676 436 601 340 q 871 532 751 532 q 1031 468 975 532 q 1088 310 1088 404 q 1014 74 1088 169 q 817 -22 940 -22 m 744 192 q 819 83 744 83 q 912 154 879 83 q 944 321 944 225 q 926 395 944 364 q 868 426 908 426 q 776 356 808 426 q 744 192 744 285 z "},"&":{"ha":885,"x_min":6,"x_max":857,"o":"m 322 -21 q 94 49 183 -21 q 6 253 6 119 q 81 441 6 364 q 269 560 156 518 q 215 740 215 647 q 290 917 215 849 q 482 986 365 986 q 658 931 582 986 q 733 768 733 875 q 676 617 733 676 q 517 511 619 557 l 624 329 q 692 510 663 400 l 857 510 q 711 181 815 319 l 821 0 l 606 0 l 571 57 q 322 -21 456 -21 m 201 265 q 238 167 201 204 q 339 131 275 131 q 497 186 419 131 l 343 442 q 242 373 283 418 q 201 265 201 328 m 478 844 q 417 817 442 844 q 393 749 393 790 q 444 621 393 690 q 556 760 556 676 q 535 819 556 794 q 478 844 515 844 z "},"'":{"ha":275,"x_min":111,"x_max":340,"o":"m 111 644 l 178 993 l 340 993 l 274 644 l 111 644 z "},"(":{"ha":472,"x_min":92,"x_max":603,"o":"m 197 -182 q 92 258 92 32 q 435 1047 92 689 l 603 1047 q 364 661 451 871 q 276 235 276 451 q 350 -182 276 24 l 197 -182 z "},")":{"ha":472,"x_min":-103,"x_max":408,"o":"m 303 1047 q 408 607 408 833 q 65 -182 408 176 l -103 -182 q 136 204 49 -6 q 224 631 224 414 q 150 1047 224 842 l 303 1047 z "},"*":{"ha":533,"x_min":122,"x_max":579,"o":"m 210 547 l 136 615 l 256 740 l 122 797 l 169 890 l 306 831 l 336 993 l 442 993 l 411 824 l 561 863 l 579 765 l 424 728 l 492 596 l 397 542 l 329 678 l 210 547 z "},"+":{"ha":778,"x_min":53,"x_max":761,"o":"m 53 388 l 79 524 l 349 524 l 403 807 l 546 807 l 492 524 l 761 524 l 735 388 l 465 388 l 410 104 l 267 104 l 322 388 l 53 388 z "},",":{"ha":299,"x_min":-65,"x_max":218,"o":"m -65 -231 l -51 -161 q 78 0 60 -119 l -21 0 l 18 201 l 218 201 l 179 4 q 94 -160 157 -106 q -65 -231 32 -215 z "},"-":{"ha":464,"x_min":26,"x_max":428,"o":"m 26 265 l 57 422 l 428 422 l 397 265 l 26 265 z "},".":{"ha":299,"x_min":-21,"x_max":218,"o":"m -21 0 l 18 201 l 218 201 l 179 0 l -21 0 z "},"/":{"ha":565,"x_min":-51,"x_max":671,"o":"m -51 0 l 515 993 l 671 993 l 104 0 l -51 0 z "},":":{"ha":306,"x_min":-17,"x_max":303,"o":"m 64 418 l 103 619 l 303 619 l 264 418 l 64 418 m -17 0 l 22 201 l 222 201 l 183 0 l -17 0 z "},";":{"ha":306,"x_min":-61,"x_max":303,"o":"m 64 418 l 103 619 l 303 619 l 264 418 l 64 418 m -61 -231 l -47 -161 q 82 0 64 -119 l -17 0 l 22 201 l 222 201 l 183 4 q 99 -160 161 -106 q -61 -231 36 -215 z "},"<":{"ha":683,"x_min":58,"x_max":699,"o":"m 575 110 l 58 354 l 90 515 l 699 751 l 667 588 l 346 472 l 208 428 l 208 425 q 328 382 281 401 l 606 265 l 575 110 z "},"=":{"ha":768,"x_min":44,"x_max":757,"o":"m 96 499 l 122 632 l 757 632 l 731 499 l 96 499 m 44 231 l 71 364 l 706 364 l 679 231 l 44 231 z "},">":{"ha":683,"x_min":13,"x_max":653,"o":"m 136 751 l 653 507 l 621 346 l 13 110 l 44 274 l 365 389 l 503 433 l 503 436 q 383 479 431 460 l 106 596 l 136 751 z "},"?":{"ha":735,"x_min":81,"x_max":778,"o":"m 249 290 q 278 397 261 353 q 325 471 296 440 q 376 517 354 501 q 443 560 399 533 q 553 635 526 606 q 589 733 589 676 q 553 822 589 792 q 456 853 518 853 q 329 808 382 853 q 261 678 276 764 l 81 678 q 210 921 108 831 q 464 1011 313 1011 q 689 942 600 1011 q 778 747 778 874 q 733 592 778 656 q 596 471 689 528 q 544 441 581 463 q 500 414 508 419 q 471 392 492 408 q 444 365 450 376 q 430 334 439 353 q 417 290 421 315 l 249 290 m 178 0 l 217 201 l 417 201 l 378 0 l 178 0 z "},"@":{"ha":1232,"x_min":54,"x_max":1208,"o":"m 532 108 q 372 171 431 108 q 313 342 313 233 q 396 603 313 485 q 621 721 479 721 q 775 618 736 721 l 778 618 l 797 706 l 971 706 l 883 325 q 880 242 869 271 q 931 214 890 214 q 1024 260 985 214 q 1078 368 1063 307 q 1093 496 1093 429 q 977 785 1093 686 q 667 885 861 885 q 317 745 457 885 q 178 368 178 606 q 285 65 178 178 q 593 -47 393 -47 q 853 4 731 -47 l 889 -87 q 589 -151 760 -151 q 201 -15 347 -151 q 54 367 54 122 q 228 812 54 632 q 668 992 401 992 q 1053 861 899 992 q 1208 500 1208 731 q 1192 368 1208 433 q 1144 243 1176 303 q 1052 147 1111 183 q 915 110 993 110 q 728 221 764 110 l 724 221 q 636 138 688 168 q 532 108 585 108 m 588 242 q 702 313 663 242 q 742 471 742 385 q 717 557 742 525 q 647 589 693 589 q 534 517 574 589 q 494 354 494 446 q 519 273 494 304 q 588 242 544 242 z "},"A":{"ha":881,"x_min":-68,"x_max":810,"o":"m 604 0 l 576 213 l 233 213 l 133 0 l -68 0 l 440 993 l 646 993 l 810 0 l 604 0 m 440 647 l 306 365 l 557 365 l 522 644 l 510 803 l 507 803 q 440 647 465 700 z "},"B":{"ha":889,"x_min":6,"x_max":879,"o":"m 6 0 l 197 993 l 596 993 q 801 932 726 993 q 879 753 879 869 q 831 606 879 665 q 696 521 783 546 l 696 517 q 849 310 850 474 q 757 101 849 189 q 464 0 651 0 l 6 0 m 290 444 l 236 165 l 465 165 q 599 203 550 165 q 647 318 647 242 q 609 413 647 381 q 507 444 571 444 l 290 444 m 319 592 l 525 592 q 686 726 686 592 q 569 831 686 831 l 365 831 l 319 592 z "},"C":{"ha":935,"x_min":49,"x_max":944,"o":"m 460 -21 q 158 96 267 -21 q 49 401 49 213 q 110 694 49 557 q 294 922 171 832 q 579 1013 418 1013 q 837 929 738 1013 q 944 678 936 846 l 749 678 q 564 844 735 844 q 388 776 461 844 q 283 610 314 707 q 251 404 251 513 q 304 216 251 289 q 475 143 357 143 q 621 190 561 143 q 707 319 681 236 l 903 319 q 747 65 857 150 q 460 -21 635 -21 z "},"D":{"ha":915,"x_min":6,"x_max":917,"o":"m 6 0 l 197 993 l 513 993 q 808 885 700 993 q 917 572 917 776 q 772 146 917 299 q 608 39 708 78 q 396 0 508 0 l 6 0 m 238 174 l 397 174 q 633 277 551 174 q 715 567 715 381 q 658 756 715 690 q 488 821 600 821 l 363 821 l 238 174 z "},"E":{"ha":824,"x_min":6,"x_max":889,"o":"m 6 0 l 197 993 l 889 993 l 857 825 l 364 825 l 321 601 l 754 601 l 722 438 l 289 438 l 236 167 l 740 167 l 708 0 l 6 0 z "},"F":{"ha":789,"x_min":6,"x_max":876,"o":"m 6 0 l 197 993 l 876 993 l 844 824 l 364 824 l 317 583 l 735 583 l 701 413 l 283 413 l 204 0 l 6 0 z "},"G":{"ha":988,"x_min":49,"x_max":974,"o":"m 717 0 l 733 122 l 731 122 q 444 -21 628 -21 q 158 90 267 -21 q 49 401 49 201 q 114 696 49 557 q 306 924 179 835 q 590 1013 432 1013 q 857 928 751 1011 q 974 681 963 844 l 781 681 q 718 803 772 758 q 575 847 664 847 q 338 715 425 847 q 251 404 251 582 q 310 209 251 278 q 488 140 369 140 q 669 203 594 140 q 761 374 743 267 l 526 374 l 556 528 l 967 528 l 865 0 l 717 0 z "},"H":{"ha":913,"x_min":6,"x_max":960,"o":"m 6 0 l 197 993 l 396 993 l 321 603 l 686 603 l 761 993 l 960 993 l 768 0 l 569 0 l 654 439 l 289 439 l 204 0 l 6 0 z "},"I":{"ha":351,"x_min":7,"x_max":397,"o":"m 7 0 l 199 993 l 397 993 l 206 0 l 7 0 z "},"J":{"ha":703,"x_min":-24,"x_max":761,"o":"m 288 -17 q 58 59 139 -17 q 7 292 -24 135 l 22 369 l 200 369 l 185 290 q 290 143 157 143 q 382 176 351 143 q 425 274 413 208 l 564 993 l 761 993 l 619 257 q 515 58 596 132 q 288 -17 435 -17 z "},"K":{"ha":900,"x_min":6,"x_max":990,"o":"m 624 0 l 404 478 l 274 363 l 204 0 l 6 0 l 197 993 l 396 993 l 319 596 l 746 993 l 990 993 l 557 604 l 840 0 l 624 0 z "},"L":{"ha":743,"x_min":6,"x_max":681,"o":"m 6 0 l 197 993 l 396 993 l 236 167 l 681 167 l 649 0 l 6 0 z "},"M":{"ha":1113,"x_min":6,"x_max":1151,"o":"m 6 0 l 197 993 l 474 993 l 511 503 q 519 371 517 442 q 522 261 522 300 l 524 221 l 525 221 q 626 478 569 354 l 865 993 l 1151 993 l 960 0 l 775 0 l 885 569 l 933 778 l 931 778 q 849 588 888 671 l 575 0 l 386 0 l 339 586 l 332 778 l 329 778 q 297 569 313 650 l 188 0 l 6 0 z "},"N":{"ha":918,"x_min":6,"x_max":965,"o":"m 6 0 l 197 993 l 396 993 l 599 439 q 619 376 608 413 q 633 317 629 340 l 639 294 l 642 294 q 671 467 657 397 l 772 993 l 965 993 l 774 0 l 585 0 l 372 553 q 351 617 361 582 q 336 672 340 651 l 331 692 l 328 692 q 299 518 313 588 l 199 0 l 6 0 z "},"O":{"ha":990,"x_min":49,"x_max":994,"o":"m 481 -22 q 167 92 286 -22 q 49 404 49 207 q 83 634 49 525 q 182 828 118 743 q 346 963 246 913 q 567 1013 446 1013 q 877 894 760 1013 q 994 579 994 775 q 961 353 994 460 q 865 162 928 246 q 703 28 803 78 q 481 -22 604 -22 m 251 408 q 310 215 251 289 q 489 142 368 142 q 630 181 569 142 q 724 286 690 221 q 775 424 758 351 q 792 574 792 497 q 732 772 792 696 q 554 849 672 849 q 415 808 475 849 q 320 703 354 768 q 269 563 286 638 q 251 408 251 488 z "},"P":{"ha":867,"x_min":6,"x_max":896,"o":"m 6 0 l 197 993 l 579 993 q 810 915 724 993 q 896 700 896 838 q 793 451 896 543 q 522 360 690 360 l 281 360 l 211 0 l 6 0 m 369 819 l 313 522 l 513 522 q 640 565 589 522 q 690 690 690 607 q 655 785 690 751 q 553 819 619 819 l 369 819 z "},"Q":{"ha":990,"x_min":49,"x_max":994,"o":"m 481 -22 q 167 92 286 -22 q 49 404 49 207 q 83 634 49 525 q 182 828 118 743 q 346 963 246 913 q 567 1013 446 1013 q 877 894 760 1013 q 994 579 994 775 q 844 138 994 308 l 931 54 l 817 -58 l 719 36 q 481 -22 615 -22 m 251 408 q 310 215 251 289 q 489 142 368 142 q 592 160 544 142 l 500 250 l 614 361 l 715 263 q 792 574 792 383 q 732 772 792 696 q 554 849 672 849 q 415 808 475 849 q 320 703 354 768 q 269 563 286 638 q 251 408 251 488 z "},"R":{"ha":885,"x_min":6,"x_max":897,"o":"m 6 0 l 197 993 l 597 993 q 819 921 740 993 q 897 729 897 849 q 679 468 897 524 l 679 464 q 801 293 801 425 q 796 190 801 267 q 790 74 790 114 q 810 10 790 19 l 810 0 l 618 0 q 603 74 603 17 q 607 172 603 106 q 611 265 611 238 q 461 399 611 399 l 281 399 l 204 0 l 6 0 m 365 832 l 311 553 l 518 553 q 647 591 596 553 q 699 707 699 629 q 567 832 699 832 l 365 832 z "},"S":{"ha":850,"x_min":-6,"x_max":844,"o":"m 406 -22 q 108 60 221 -22 q 3 307 -6 143 l 196 307 q 249 178 190 218 q 411 139 307 139 q 547 172 492 139 q 601 268 601 204 q 558 351 601 319 q 386 429 515 382 q 172 542 239 482 q 106 710 106 601 q 204 931 106 851 q 468 1011 303 1011 q 740 935 635 1011 q 838 701 844 858 l 647 701 q 602 813 650 774 q 461 853 554 853 q 346 825 396 853 q 294 736 296 797 q 331 664 293 689 q 496 596 369 639 q 726 474 653 542 q 799 294 799 407 q 690 60 799 142 q 406 -22 582 -22 z "},"T":{"ha":813,"x_min":111,"x_max":915,"o":"m 111 825 l 143 993 l 915 993 l 883 825 l 596 825 l 436 0 l 238 0 l 397 825 l 111 825 z "},"U":{"ha":892,"x_min":29,"x_max":947,"o":"m 415 -17 q 126 76 224 -17 q 64 349 29 169 l 189 993 l 388 993 l 260 333 q 419 143 222 143 q 618 308 585 143 l 750 993 l 947 993 l 811 290 q 415 -17 750 -17 z "},"V":{"ha":829,"x_min":119,"x_max":953,"o":"m 269 0 l 119 993 l 325 993 l 390 431 l 406 257 l 408 257 q 478 418 444 349 l 750 993 l 953 993 l 450 0 l 269 0 z "},"W":{"ha":1239,"x_min":122,"x_max":1349,"o":"m 221 0 l 122 993 l 324 993 l 353 500 l 357 281 l 360 281 q 443 499 406 404 l 640 993 l 828 993 l 851 500 l 857 281 l 860 281 q 947 501 910 411 l 1153 993 l 1349 993 l 904 0 l 719 0 l 690 535 l 686 718 l 683 718 q 618 535 651 617 l 403 0 l 221 0 z "},"X":{"ha":865,"x_min":-60,"x_max":940,"o":"m -60 0 l 346 531 l 156 993 l 368 993 l 486 672 l 489 672 l 726 993 l 940 993 l 572 510 l 786 0 l 564 0 l 438 368 l 435 368 l 165 0 l -60 0 z "},"Y":{"ha":843,"x_min":125,"x_max":960,"o":"m 244 0 l 319 389 l 125 993 l 329 993 l 414 708 l 450 560 l 453 560 q 543 703 500 640 l 744 993 l 960 993 l 517 383 l 443 0 l 244 0 z "},"Z":{"ha":842,"x_min":-32,"x_max":914,"o":"m -32 0 l -4 146 l 646 826 l 646 831 l 163 831 l 193 993 l 914 993 l 883 831 l 254 169 l 254 165 l 761 165 l 731 0 l -32 0 z "},"[":{"ha":515,"x_min":-18,"x_max":611,"o":"m -18 -182 l 221 1047 l 611 1047 l 582 903 l 371 903 l 190 -37 l 401 -37 l 372 -182 l -18 -182 z "},"\\":{"ha":565,"x_min":117,"x_max":503,"o":"m 363 0 l 117 993 l 257 993 l 503 0 l 363 0 z "},"]":{"ha":515,"x_min":-69,"x_max":561,"o":"m -69 -182 l -40 -37 l 172 -37 l 353 903 l 140 903 l 169 1047 l 561 1047 l 322 -182 l -69 -182 z "},"^":{"ha":611,"x_min":60,"x_max":649,"o":"m 60 594 l 344 993 l 500 993 l 649 594 l 482 594 l 400 833 l 397 833 l 229 594 l 60 594 z "},"_":{"ha":578,"x_min":-118,"x_max":488,"o":"m -118 -233 l -96 -118 l 488 -118 l 465 -233 l -118 -233 z "},"`":{"ha":683,"x_min":258,"x_max":518,"o":"m 376 801 l 258 997 l 461 997 l 518 801 l 376 801 z "},"a":{"ha":714,"x_min":-3,"x_max":700,"o":"m 435 0 q 425 78 422 22 l 422 78 q 374 31 396 49 q 313 -1 353 14 q 224 -17 272 -17 q 65 37 132 -17 q -3 193 -3 90 q 15 289 -3 249 q 60 354 33 329 q 133 395 88 379 q 220 419 178 411 q 321 431 263 426 q 469 454 433 440 q 506 518 506 468 q 394 597 506 597 q 249 496 272 597 l 82 496 q 183 669 100 607 q 401 731 265 731 q 623 662 546 731 q 672 447 700 593 l 606 106 q 611 7 592 36 l 611 0 l 435 0 m 176 210 q 206 138 176 163 q 283 113 235 113 q 399 149 353 113 q 457 239 446 186 l 479 351 q 343 315 439 333 q 301 309 335 314 q 253 300 267 304 q 217 285 239 296 q 185 256 194 275 q 176 210 176 238 z "},"b":{"ha":776,"x_min":-10,"x_max":754,"o":"m 407 -21 q 192 104 247 -21 l 189 104 l 169 0 l -10 0 l 182 993 l 368 993 l 297 629 l 301 629 q 506 732 385 732 q 688 649 622 732 q 754 432 754 567 q 718 213 754 313 q 601 46 682 113 q 407 -21 521 -21 m 235 300 q 272 183 235 229 q 381 136 308 136 q 487 181 444 136 q 546 288 529 226 q 563 418 563 349 q 532 535 563 489 q 431 581 501 581 q 285 494 336 581 q 235 300 235 407 z "},"c":{"ha":714,"x_min":22,"x_max":707,"o":"m 340 -21 q 112 59 201 -21 q 22 294 22 139 q 130 601 22 469 q 411 732 238 732 q 619 668 538 732 q 707 471 700 604 l 525 471 q 406 582 514 582 q 259 493 310 582 q 208 289 208 404 q 243 172 208 215 q 351 129 278 129 q 500 251 464 129 l 681 251 q 561 51 651 124 q 340 -21 471 -21 z "},"d":{"ha":782,"x_min":25,"x_max":844,"o":"m 289 -21 q 97 64 168 -21 q 25 292 25 149 q 124 599 25 467 q 382 732 222 732 q 582 617 525 732 l 586 617 l 658 993 l 844 993 l 653 0 l 474 0 l 488 78 l 485 78 q 289 -21 407 -21 m 214 303 q 350 133 214 133 q 496 217 444 133 q 547 404 547 300 q 511 533 547 485 q 403 581 475 581 q 263 494 313 581 q 214 303 214 408 z "},"e":{"ha":739,"x_min":22,"x_max":722,"o":"m 703 304 l 207 304 q 241 169 207 215 q 353 124 275 124 q 499 213 460 124 l 682 213 q 572 53 649 113 q 350 -21 482 -18 q 113 63 204 -21 q 22 307 22 146 q 131 601 22 471 q 404 732 239 732 q 583 686 513 732 q 692 535 663 635 q 703 304 722 435 m 400 588 q 224 433 269 588 l 531 433 q 501 544 533 501 q 400 588 468 588 z "},"f":{"ha":443,"x_min":42,"x_max":542,"o":"m 61 582 l 86 713 l 179 713 l 196 797 q 442 996 233 993 q 542 988 489 996 l 514 843 q 461 847 485 847 q 403 831 422 847 q 376 772 385 814 l 364 713 l 488 713 l 463 582 l 339 582 l 226 0 l 42 0 l 154 582 l 61 582 z "},"g":{"ha":765,"x_min":4,"x_max":774,"o":"m 303 -243 q 101 -188 186 -243 q 4 -21 17 -133 l 193 -21 q 307 -101 211 -101 q 461 49 433 -101 l 475 121 l 471 121 q 392 62 431 81 q 296 43 354 43 q 101 124 175 43 q 28 333 28 204 q 124 615 28 497 q 375 732 219 732 q 575 626 519 732 l 578 626 l 594 713 l 774 713 l 642 31 q 540 -164 618 -93 q 303 -243 456 -243 m 350 193 q 487 262 435 193 q 538 424 539 331 q 499 538 536 494 q 396 582 463 582 q 263 514 313 582 q 213 347 213 446 q 248 235 213 278 q 350 193 283 193 z "},"h":{"ha":744,"x_min":-10,"x_max":731,"o":"m 368 993 l 296 614 l 300 614 q 394 704 346 676 q 515 732 442 732 q 676 653 622 732 q 707 450 731 574 l 621 0 l 435 0 l 518 428 q 506 536 532 499 q 421 574 481 574 q 311 522 356 574 q 251 389 267 471 l 176 0 l -10 0 l 182 993 l 368 993 z "},"i":{"ha":306,"x_min":-10,"x_max":368,"o":"m -10 0 l 128 713 l 314 713 l 176 0 l -10 0 m 150 824 l 182 993 l 368 993 l 336 824 l 150 824 z "},"j":{"ha":306,"x_min":-160,"x_max":368,"o":"m -46 -235 q -160 -221 -110 -235 l -135 -87 q -51 -78 -78 -90 q -15 -25 -24 -65 l 128 713 l 314 713 l 167 -44 q 93 -193 144 -151 q -46 -235 39 -235 m 150 824 l 182 993 l 368 993 l 336 824 l 150 824 z "},"k":{"ha":726,"x_min":-10,"x_max":765,"o":"m 460 0 l 324 322 l 218 228 l 175 0 l -10 0 l 182 993 l 367 993 l 258 436 l 538 713 l 765 713 l 468 433 l 667 0 l 460 0 z "},"l":{"ha":311,"x_min":-7,"x_max":371,"o":"m -7 0 l 185 993 l 371 993 l 179 0 l -7 0 z "},"m":{"ha":1128,"x_min":-10,"x_max":1115,"o":"m -10 0 l 128 713 l 307 713 l 288 608 l 292 608 q 492 732 371 732 q 663 596 626 732 l 665 596 q 901 732 754 732 q 1059 655 1003 732 q 1089 443 1115 578 l 1004 0 l 818 0 l 903 438 q 892 538 915 503 q 818 574 868 574 q 721 526 760 574 q 665 393 682 478 l 590 0 l 404 0 l 489 438 q 478 538 501 503 q 404 574 454 574 q 307 526 346 574 q 251 393 268 478 l 176 0 l -10 0 z "},"n":{"ha":744,"x_min":-10,"x_max":731,"o":"m 310 713 l 289 600 l 293 600 q 392 701 342 669 q 515 732 442 732 q 676 653 622 732 q 707 450 731 574 l 621 0 l 435 0 l 518 428 q 506 536 532 499 q 421 574 481 574 q 312 522 357 574 q 251 389 267 469 l 176 0 l -10 0 l 128 713 l 310 713 z "},"o":{"ha":779,"x_min":24,"x_max":754,"o":"m 358 -21 q 118 66 213 -21 q 24 311 24 153 q 135 608 24 485 q 425 732 247 732 q 660 646 567 732 q 754 407 754 560 q 644 104 754 229 q 358 -21 535 -21 m 210 300 q 247 170 210 221 q 363 119 285 119 q 515 208 463 119 q 568 413 568 297 q 531 540 568 489 q 415 592 493 592 q 263 503 315 592 q 210 300 210 415 z "},"p":{"ha":781,"x_min":-56,"x_max":758,"o":"m -56 -233 l 128 713 l 307 713 l 290 625 l 294 625 q 513 732 378 732 q 694 645 629 732 q 758 421 758 558 q 738 266 758 342 q 676 125 717 190 q 566 19 636 60 q 407 -21 496 -21 q 283 10 339 -21 q 199 100 228 40 l 196 100 l 131 -233 l -56 -233 m 233 299 q 270 182 233 229 q 379 135 307 135 q 490 178 446 135 q 551 283 535 222 q 568 414 568 343 q 535 533 568 485 q 432 581 503 581 q 286 494 339 581 q 233 299 233 407 z "},"q":{"ha":782,"x_min":25,"x_max":790,"o":"m 285 -21 q 93 60 161 -21 q 25 292 25 140 q 65 503 25 404 q 189 667 106 601 q 382 732 272 732 q 589 618 533 732 l 593 618 l 611 713 l 790 713 l 607 -233 l 421 -233 l 482 83 l 479 83 q 285 -21 411 -21 m 214 304 q 346 136 214 136 q 493 218 438 136 q 549 407 549 300 q 513 536 549 489 q 407 583 476 583 q 297 538 343 583 q 233 432 251 493 q 214 304 214 371 z "},"r":{"ha":483,"x_min":-10,"x_max":529,"o":"m 307 713 l 285 599 l 289 599 q 476 721 361 721 q 529 715 510 721 l 497 551 l 493 551 q 243 347 288 578 l 176 0 l -10 0 l 128 713 l 307 713 z "},"s":{"ha":656,"x_min":-11,"x_max":628,"o":"m 311 -21 q 85 41 174 -21 q -11 231 -3 103 l 165 231 q 207 148 171 181 q 311 115 243 115 q 428 193 428 115 q 419 225 428 211 q 383 253 410 239 q 335 274 356 267 q 263 299 314 282 q 111 376 164 332 q 58 507 58 421 q 135 672 58 613 q 336 732 211 732 q 539 671 460 732 q 628 496 618 610 l 457 496 q 418 569 450 540 q 331 599 386 599 q 255 582 286 599 q 224 528 224 565 q 227 510 224 518 q 240 494 231 501 q 257 481 249 486 q 283 469 265 476 q 315 458 301 463 q 353 445 328 454 q 397 431 379 436 q 544 351 490 399 q 599 218 599 303 q 523 42 599 104 q 311 -21 447 -21 z "},"t":{"ha":447,"x_min":57,"x_max":479,"o":"m 64 588 l 88 713 l 178 713 l 221 935 l 403 935 l 360 713 l 479 713 l 456 588 l 336 588 l 264 217 q 317 139 249 139 l 372 142 l 346 3 q 261 -1 299 -1 q 103 45 149 -1 q 78 199 57 92 l 154 588 l 64 588 z "},"u":{"ha":736,"x_min":8,"x_max":742,"o":"m 425 0 l 444 101 l 440 101 q 228 -19 354 -19 q 61 56 114 -19 q 33 263 8 132 l 119 713 l 306 713 l 222 285 q 311 138 193 138 q 419 187 375 138 q 481 324 464 236 l 556 713 l 742 713 l 604 0 l 425 0 z "},"v":{"ha":664,"x_min":71,"x_max":729,"o":"m 189 0 l 71 713 l 260 713 l 304 353 l 317 225 l 319 225 q 371 343 338 275 l 543 713 l 729 713 l 367 0 l 189 0 z "},"w":{"ha":1011,"x_min":74,"x_max":1069,"o":"m 154 0 l 74 713 l 254 713 l 281 382 l 288 246 l 290 246 q 346 383 321 325 l 489 713 l 647 713 l 686 383 l 696 246 l 699 246 q 753 382 729 324 l 886 713 l 1069 713 l 751 0 l 585 0 l 547 350 l 535 489 l 532 489 q 476 350 501 407 l 322 0 l 154 0 z "},"x":{"ha":708,"x_min":-64,"x_max":735,"o":"m -64 0 l 249 381 l 90 713 l 292 713 l 378 496 l 381 496 l 532 713 l 735 713 l 457 361 l 632 0 l 425 0 l 329 236 l 326 236 l 143 0 l -64 0 z "},"y":{"ha":678,"x_min":-18,"x_max":736,"o":"m -18 -233 l 11 -86 l 71 -86 q 194 46 194 -86 q 171 206 194 94 l 68 713 l 263 713 l 311 389 l 332 228 l 335 228 q 400 389 369 322 l 547 713 l 736 713 l 368 -35 q 256 -190 314 -146 q 99 -233 199 -233 l -18 -233 z "},"z":{"ha":640,"x_min":-37,"x_max":661,"o":"m -37 0 l -10 142 l 411 563 l 411 567 l 94 567 l 124 713 l 661 713 l 632 564 l 219 153 l 219 149 l 575 149 l 546 0 l -37 0 z "},"{":{"ha":515,"x_min":38,"x_max":611,"o":"m 372 -182 l 346 -182 q 130 -118 194 -182 q 94 92 65 -54 l 129 263 q 121 344 140 318 q 38 375 101 371 l 64 510 q 158 535 129 511 q 197 611 188 558 l 232 799 q 326 997 260 947 q 518 1047 393 1047 l 611 1047 l 582 900 l 525 900 q 445 876 469 900 q 408 785 421 853 l 368 567 q 331 481 357 508 q 256 436 304 454 l 256 432 q 311 281 333 392 l 271 78 q 283 -10 258 15 q 369 -35 308 -35 l 401 -35 l 372 -182 z "},"|":{"ha":343,"x_min":142,"x_max":256,"o":"m 142 -182 l 142 1047 l 256 1047 l 256 -182 l 142 -182 z "},"}":{"ha":515,"x_min":-69,"x_max":506,"o":"m 169 1047 l 196 1047 q 412 983 347 1047 q 447 774 476 919 l 414 608 q 422 526 403 553 q 506 496 442 500 l 479 361 q 385 336 414 360 q 346 260 356 313 l 310 67 q 215 -130 283 -78 q 24 -182 147 -182 l -69 -182 l -40 -35 l 17 -35 q 97 -11 72 -35 q 133 81 121 13 l 175 304 q 213 390 186 363 q 288 435 239 417 l 288 439 q 232 590 210 479 l 271 788 q 258 875 283 850 q 172 900 233 900 l 140 900 l 169 1047 z "},"~":{"ha":582,"x_min":49,"x_max":586,"o":"m 49 347 q 109 510 61 456 q 226 564 157 564 q 330 537 269 564 q 410 510 390 510 q 447 522 435 510 q 464 563 458 533 l 586 563 q 418 351 561 351 q 310 378 375 351 q 226 404 244 404 q 172 347 186 404 l 49 347 z "}," ":{"ha":242,"x_min":0,"x_max":0,"o":""},"¡":{"ha":347,"x_min":-28,"x_max":360,"o":"m 251 526 l 208 43 l 167 -176 l -28 -176 l 17 57 l 161 526 l 251 526 m 360 817 l 321 615 l 121 615 l 160 817 l 360 817 z "},"¢":{"ha":714,"x_min":22,"x_max":707,"o":"m 340 -21 l 339 -21 l 317 -139 l 235 -139 l 258 -12 q 87 85 151 8 q 22 294 22 163 q 128 598 22 467 q 404 732 233 729 l 422 824 l 504 824 l 485 726 q 642 645 582 708 q 707 471 701 582 l 525 471 q 456 575 517 551 l 368 128 q 500 251 465 139 l 681 251 q 561 51 651 124 q 340 -21 471 -21 m 208 289 q 289 139 208 171 l 375 581 q 251 479 293 565 q 208 289 208 393 z "},"£":{"ha":792,"x_min":6,"x_max":800,"o":"m 71 521 l 138 521 q 108 661 108 606 q 208 887 108 803 q 461 971 308 971 q 711 890 631 971 q 789 631 800 806 l 603 631 q 460 818 613 818 q 349 777 390 818 q 307 658 307 736 q 332 521 307 615 l 538 521 l 514 403 l 356 403 q 357 379 357 394 q 217 172 357 268 l 218 169 q 322 193 286 193 q 427 173 365 193 q 526 153 489 153 q 667 213 596 153 l 739 69 q 522 -19 643 -19 q 372 13 460 -19 q 232 46 283 46 q 85 -11 176 46 l 6 133 q 174 365 174 238 q 171 403 174 378 l 47 403 l 71 521 z "},"¤":{"ha":722,"x_min":46,"x_max":718,"o":"m 382 203 q 254 229 308 203 l 163 136 l 46 250 l 135 339 q 100 485 100 404 q 135 629 100 564 l 46 721 l 163 835 l 253 740 q 382 768 311 768 q 510 740 451 768 l 601 835 l 718 721 l 626 629 q 663 485 663 565 q 628 340 663 406 l 718 250 l 601 136 l 510 229 q 382 203 450 203 m 382 331 q 470 372 439 331 q 501 485 501 414 q 470 598 501 556 q 382 640 439 640 q 291 598 324 640 q 258 485 258 556 q 291 372 258 414 q 382 331 324 331 z "},"¥":{"ha":832,"x_min":53,"x_max":936,"o":"m 86 367 l 101 447 l 307 447 l 115 953 l 322 953 l 411 676 l 444 554 l 447 554 q 525 675 488 622 l 724 953 l 936 953 l 550 447 l 754 447 l 739 367 l 501 367 l 483 278 l 721 278 l 706 197 l 468 197 l 431 0 l 249 0 l 286 197 l 53 197 l 68 278 l 301 278 l 319 367 l 86 367 z "},"¦":{"ha":315,"x_min":128,"x_max":242,"o":"m 128 -182 l 128 363 l 242 363 l 242 -182 l 128 -182 m 242 1047 l 242 521 l 128 521 l 128 1047 l 242 1047 z "},"§":{"ha":808,"x_min":29,"x_max":767,"o":"m 767 369 q 722 239 767 288 q 579 154 678 190 q 633 11 633 90 q 551 -171 633 -104 q 342 -237 468 -237 q 113 -162 196 -237 q 31 50 29 -87 l 210 50 q 340 -90 213 -90 q 418 -67 389 -90 q 447 1 447 -43 q 411 69 447 39 q 271 154 375 99 q 106 275 156 215 q 56 414 56 335 q 243 619 56 569 q 206 738 206 672 q 283 910 206 850 q 476 971 361 971 q 680 913 601 971 q 761 726 758 854 l 593 726 q 560 803 590 775 q 478 831 531 831 q 408 813 436 831 q 381 757 381 794 q 412 698 381 725 q 533 622 443 671 q 626 570 592 592 q 697 517 660 549 q 750 450 733 486 q 767 369 767 414 m 440 469 q 322 542 365 510 q 260 506 283 531 q 236 447 236 482 q 261 383 236 411 q 375 304 286 354 q 490 233 460 256 q 560 267 535 243 q 586 322 586 290 q 556 394 586 365 q 440 469 525 422 z "},"¨":{"ha":683,"x_min":188,"x_max":693,"o":"m 489 807 l 521 965 l 693 965 l 661 807 l 489 807 m 188 807 l 219 965 l 392 965 l 360 807 l 188 807 z "},"©":{"ha":1132,"x_min":78,"x_max":1099,"o":"m 589 -24 q 225 124 372 -24 q 78 493 78 272 q 226 863 78 715 q 589 1011 374 1011 q 951 863 804 1011 q 1099 493 1099 715 q 951 124 1099 271 q 589 -24 804 -24 m 589 44 q 895 172 772 44 q 1018 493 1018 300 q 895 814 1018 686 q 589 942 772 942 q 281 814 404 942 q 158 493 158 686 q 281 172 158 300 q 589 44 404 44 m 593 185 q 378 273 461 185 q 296 497 296 361 q 378 724 296 635 q 594 813 460 813 q 776 751 707 813 q 857 593 846 690 l 707 593 q 670 658 700 633 q 593 683 640 683 q 489 631 525 683 q 453 497 453 579 q 492 365 453 417 q 594 313 531 313 q 676 341 646 313 q 713 414 707 369 l 863 414 q 789 253 856 318 q 593 185 719 185 z "},"ª":{"ha":658,"x_min":60,"x_max":693,"o":"m 258 314 q 117 360 175 314 q 60 494 60 406 q 132 649 60 606 q 342 704 204 693 q 473 725 439 713 q 507 781 507 738 q 483 831 507 813 q 415 849 458 849 q 294 764 315 849 l 136 764 q 225 917 153 863 q 422 971 297 971 q 600 928 536 971 q 665 718 693 863 l 608 422 q 613 335 596 356 l 613 328 l 447 328 q 438 397 435 346 l 435 397 q 258 314 360 314 m 319 432 q 415 461 376 432 q 465 538 454 490 l 485 633 q 367 604 450 618 q 344 601 363 604 q 321 597 326 597 q 299 592 315 596 q 277 584 283 588 q 260 573 271 581 q 244 558 249 565 q 235 538 239 550 q 231 511 231 525 q 255 452 231 472 q 319 432 279 432 z "},"«":{"ha":611,"x_min":57,"x_max":583,"o":"m 476 82 l 317 272 l 351 456 l 583 635 l 547 451 l 418 353 l 418 350 l 508 251 l 476 82 m 217 82 l 57 272 l 92 456 l 324 635 l 288 451 l 158 353 l 158 350 l 249 251 l 217 82 z "},"¬":{"ha":701,"x_min":63,"x_max":669,"o":"m 63 444 l 90 581 l 669 581 l 596 201 l 453 201 l 499 444 l 63 444 z "},"­":{"ha":464,"x_min":26,"x_max":428,"o":"m 26 265 l 57 422 l 428 422 l 397 265 l 26 265 z "},"®":{"ha":725,"x_min":93,"x_max":757,"o":"m 661 435 q 613 387 661 435 q 425 339 565 339 q 189 435 285 339 q 93 675 93 531 q 189 915 93 819 q 425 1011 285 1011 q 661 915 565 1011 q 757 675 757 819 q 661 435 757 531 m 425 390 q 619 471 543 390 q 696 675 696 551 q 619 878 696 797 q 425 958 543 958 q 231 878 308 958 q 154 675 154 797 q 231 472 154 553 q 425 390 308 390 m 283 500 l 283 856 l 456 856 q 547 828 510 856 q 583 751 583 800 q 522 667 583 688 l 522 664 q 575 600 564 651 q 579 559 578 583 q 583 522 581 535 q 592 507 586 510 l 592 500 l 497 500 q 482 582 492 503 q 426 629 478 629 l 379 629 l 379 500 l 283 500 m 379 779 l 379 699 l 439 699 q 489 739 489 699 q 439 779 489 779 l 379 779 z "},"¯":{"ha":683,"x_min":247,"x_max":661,"o":"m 247 822 l 272 954 l 661 954 l 636 822 l 247 822 z "},"°":{"ha":486,"x_min":121,"x_max":526,"o":"m 467 637 q 437 609 467 637 q 324 581 407 581 q 181 637 240 581 q 121 775 121 693 q 181 915 121 857 q 324 972 240 972 q 467 915 407 972 q 526 775 526 857 q 467 637 526 693 m 250 699 q 264 683 250 699 q 324 668 278 668 q 398 699 369 668 q 426 775 426 729 q 398 853 426 821 q 324 885 369 885 q 250 853 278 885 q 222 775 222 821 q 250 699 222 729 z "},"±":{"ha":778,"x_min":-22,"x_max":771,"o":"m 63 443 l 89 579 l 360 579 l 403 807 l 546 807 l 503 579 l 771 579 l 744 443 l 475 443 l 432 215 l 289 215 l 332 443 l 63 443 m -22 0 l 4 136 l 686 136 l 660 0 l -22 0 z "},"²":{"ha":486,"x_min":46,"x_max":549,"o":"m 46 400 q 183 604 65 524 q 274 659 218 628 q 349 704 329 690 q 404 790 404 742 q 388 834 404 818 q 343 850 372 850 q 247 747 268 850 l 113 747 q 192 906 126 850 q 357 963 258 963 q 493 920 438 963 q 549 801 549 878 q 515 698 549 740 q 424 619 482 656 q 340 572 407 608 q 253 513 274 535 l 503 513 l 481 400 l 46 400 z "},"³":{"ha":493,"x_min":54,"x_max":532,"o":"m 279 388 q 116 441 178 388 q 58 588 54 494 l 194 588 q 215 518 193 543 q 282 493 238 493 q 342 514 319 493 q 364 571 364 535 q 282 639 364 639 l 251 639 l 271 735 l 307 735 q 368 752 344 735 q 392 801 392 769 q 374 844 392 829 q 325 860 356 860 q 235 779 253 860 l 101 779 q 176 912 114 861 q 335 963 239 963 q 477 923 422 963 q 532 814 532 883 q 502 735 531 768 q 428 688 474 703 l 428 686 q 508 568 508 653 q 442 436 508 485 q 279 388 375 388 z "},"´":{"ha":683,"x_min":336,"x_max":657,"o":"m 657 997 l 482 801 l 336 801 l 439 997 l 657 997 z "},"µ":{"ha":743,"x_min":-56,"x_max":749,"o":"m 261 -19 q 181 10 207 -19 l 176 10 l 129 -233 l -56 -233 l 126 713 l 313 713 l 229 285 q 318 138 200 138 q 426 187 382 138 q 488 324 471 236 l 563 713 l 749 713 l 611 0 l 432 0 l 451 101 l 447 101 q 261 -19 361 -19 z "},"¶":{"ha":776,"x_min":99,"x_max":824,"o":"m 383 474 l 340 474 q 162 533 225 474 q 99 693 99 592 q 200 925 99 838 q 419 993 276 993 l 824 993 l 632 0 l 508 0 l 679 881 l 585 881 l 414 0 l 292 0 l 383 474 z "},"·":{"ha":299,"x_min":44,"x_max":283,"o":"m 44 338 l 83 539 l 283 539 l 244 338 l 44 338 z "},"¸":{"ha":683,"x_min":53,"x_max":368,"o":"m 203 -267 q 53 -226 111 -267 l 82 -182 q 176 -203 124 -203 q 257 -154 257 -203 q 207 -119 257 -119 q 154 -129 183 -119 l 138 -99 l 239 0 l 319 0 l 235 -69 l 235 -72 q 328 -86 289 -64 q 368 -154 367 -108 q 319 -239 368 -211 q 203 -267 271 -267 z "},"¹":{"ha":343,"x_min":88,"x_max":394,"o":"m 143 400 l 211 747 l 88 747 l 106 843 q 281 956 242 850 l 394 956 l 286 400 l 143 400 z "},"º":{"ha":700,"x_min":76,"x_max":729,"o":"m 376 308 q 162 384 247 308 q 78 597 76 460 q 176 862 78 753 q 428 971 274 971 q 641 896 554 971 q 728 686 728 821 q 631 418 729 528 q 376 308 533 308 m 379 439 q 507 516 464 439 q 550 692 550 593 q 519 798 550 754 q 425 842 488 842 q 298 763 342 842 q 254 586 254 685 q 285 480 254 521 q 379 439 315 439 z "},"»":{"ha":611,"x_min":26,"x_max":553,"o":"m 133 635 l 293 444 l 258 261 l 26 82 l 63 265 l 192 364 l 192 367 l 101 465 l 133 635 m 393 635 l 553 444 l 518 261 l 286 82 l 322 265 l 451 364 l 451 367 l 361 465 l 393 635 z "},"¼":{"ha":1076,"x_min":71,"x_max":1049,"o":"m 788 0 l 810 117 l 551 117 l 575 243 l 890 557 l 1032 557 l 967 221 l 1049 221 l 1029 117 l 946 117 l 924 0 l 788 0 m 71 0 l 910 993 l 1035 993 l 196 0 l 71 0 m 156 442 l 224 789 l 100 789 l 118 885 q 293 997 254 892 l 407 997 l 299 442 l 156 442 m 683 224 l 683 221 l 831 221 l 867 404 l 864 404 l 683 224 z "},"½":{"ha":1090,"x_min":47,"x_max":1090,"o":"m 156 442 l 224 789 l 100 789 l 118 885 q 293 997 254 892 l 407 997 l 299 442 l 156 442 m 47 0 l 886 993 l 1011 993 l 172 0 l 47 0 m 588 0 q 725 204 607 124 q 815 259 760 228 q 890 304 871 290 q 946 390 946 342 q 930 434 946 418 q 885 450 914 450 q 789 347 810 450 l 654 347 q 734 506 668 450 q 899 563 800 563 q 1035 520 979 563 q 1090 401 1090 478 q 1057 298 1090 340 q 965 219 1024 256 q 882 172 949 208 q 794 113 815 135 l 1044 113 l 1022 0 l 588 0 z "},"¾":{"ha":1139,"x_min":67,"x_max":1125,"o":"m 850 0 l 872 117 l 614 117 l 638 243 l 953 557 l 1094 557 l 1029 221 l 1111 221 l 1092 117 l 1008 117 l 986 0 l 850 0 m 292 429 q 128 483 190 429 q 71 629 67 536 l 207 629 q 228 560 206 585 q 294 535 250 535 q 354 556 332 535 q 376 613 376 576 q 294 681 376 681 l 264 681 l 283 776 l 319 776 q 381 794 357 776 q 404 843 404 811 q 386 886 404 871 q 338 901 368 901 q 247 821 265 901 l 114 821 q 189 953 126 903 q 347 1004 251 1004 q 490 965 435 1004 q 544 856 544 925 q 515 777 543 810 q 440 729 486 744 l 440 728 q 521 610 521 694 q 454 478 521 526 q 292 429 388 429 m 161 0 l 1000 993 l 1125 993 l 286 0 l 161 0 m 746 224 l 746 221 l 893 221 l 929 404 l 926 404 l 746 224 z "},"¿":{"ha":718,"x_min":-35,"x_max":663,"o":"m 494 526 q 465 420 482 464 q 418 346 447 376 q 367 299 389 315 q 300 257 344 283 q 190 182 217 211 q 154 83 154 142 q 190 -6 154 25 q 288 -36 225 -36 q 414 8 361 -36 q 482 139 467 53 l 663 139 q 533 -104 635 -14 q 279 -194 431 -194 q 54 -126 143 -194 q -35 69 -35 -57 q 10 225 -35 161 q 147 346 54 289 q 199 376 163 354 q 243 403 235 397 q 272 424 251 408 q 299 452 293 440 q 313 483 304 464 q 326 526 322 501 l 494 526 m 565 817 l 526 615 l 326 615 l 365 817 l 565 817 z "},"À":{"ha":881,"x_min":-68,"x_max":810,"o":"m 604 0 l 576 213 l 233 213 l 133 0 l -68 0 l 440 993 l 646 993 l 810 0 l 604 0 m 440 647 l 306 365 l 557 365 l 522 644 l 510 803 l 507 803 q 440 647 465 700 m 485 1046 l 385 1219 l 586 1219 l 626 1046 l 485 1046 z "},"Á":{"ha":881,"x_min":-68,"x_max":810,"o":"m 604 0 l 576 213 l 233 213 l 133 0 l -68 0 l 440 993 l 646 993 l 810 0 l 604 0 m 440 647 l 306 365 l 557 365 l 522 644 l 510 803 l 507 803 q 440 647 465 700 m 774 1219 l 619 1046 l 475 1046 l 558 1219 l 774 1219 z "},"Â":{"ha":881,"x_min":-68,"x_max":810,"o":"m 604 0 l 576 213 l 233 213 l 133 0 l -68 0 l 440 993 l 646 993 l 810 0 l 604 0 m 440 647 l 306 365 l 557 365 l 522 644 l 510 803 l 507 803 q 440 647 465 700 m 318 1046 l 472 1204 l 672 1204 l 776 1046 l 619 1046 l 568 1128 l 565 1128 l 485 1046 l 318 1046 z "},"Ã":{"ha":881,"x_min":-68,"x_max":810,"o":"m 604 0 l 576 213 l 233 213 l 133 0 l -68 0 l 440 993 l 646 993 l 810 0 l 604 0 m 440 647 l 306 365 l 557 365 l 522 644 l 510 803 l 507 803 q 440 647 465 700 m 635 1049 q 548 1072 599 1049 q 483 1094 497 1094 q 442 1051 451 1094 l 343 1051 q 392 1173 356 1131 q 482 1215 429 1215 q 569 1191 519 1215 q 633 1167 619 1167 q 679 1210 665 1167 l 778 1210 q 728 1092 765 1136 q 635 1049 692 1049 z "},"Ä":{"ha":881,"x_min":-68,"x_max":810,"o":"m 604 0 l 576 213 l 233 213 l 133 0 l -68 0 l 440 993 l 646 993 l 810 0 l 604 0 m 440 647 l 306 365 l 557 365 l 522 644 l 510 803 l 507 803 q 440 647 465 700 m 596 1046 l 628 1204 l 803 1204 l 771 1046 l 596 1046 m 319 1046 l 351 1204 l 526 1204 l 494 1046 l 319 1046 z "},"Å":{"ha":881,"x_min":-68,"x_max":810,"o":"m 604 0 l 576 213 l 233 213 l 133 0 l -68 0 l 440 993 l 646 993 l 810 0 l 604 0 m 653 1069 q 634 1050 653 1069 q 558 1031 614 1031 q 463 1069 503 1031 q 424 1161 424 1107 q 463 1253 424 1215 q 558 1292 503 1292 q 653 1253 614 1292 q 693 1161 693 1215 q 653 1069 693 1107 m 440 647 l 306 365 l 557 365 l 522 644 l 510 803 l 507 803 q 440 647 465 700 m 514 1115 q 523 1105 514 1115 q 558 1096 532 1096 q 603 1115 585 1096 q 621 1161 621 1133 q 603 1208 621 1189 q 558 1226 585 1226 q 514 1208 532 1226 q 496 1161 496 1189 q 514 1115 496 1133 z "},"Æ":{"ha":1307,"x_min":-64,"x_max":1372,"o":"m 499 0 l 539 213 l 244 213 l 139 0 l -64 0 l 447 993 l 1372 993 l 1340 825 l 857 825 l 814 601 l 1238 601 l 1206 438 l 782 438 l 729 167 l 1224 167 l 1192 0 l 499 0 m 549 825 l 317 358 l 568 358 l 657 825 l 549 825 z "},"Ç":{"ha":935,"x_min":49,"x_max":944,"o":"m 372 -267 q 222 -226 281 -267 l 251 -182 q 346 -203 293 -203 q 426 -154 426 -203 q 376 -119 426 -119 q 324 -129 353 -119 l 307 -99 l 392 -17 q 139 117 229 4 q 49 401 49 231 q 110 694 49 557 q 294 922 171 832 q 579 1013 418 1013 q 837 929 738 1013 q 944 678 936 846 l 749 678 q 564 844 735 844 q 388 776 461 844 q 283 610 314 707 q 251 404 251 513 q 304 216 251 289 q 475 143 357 143 q 621 190 561 143 q 707 319 681 236 l 903 319 q 747 65 857 150 q 463 -21 638 -19 l 404 -69 l 404 -72 q 497 -86 458 -64 q 538 -154 536 -108 q 489 -239 538 -211 q 372 -267 440 -267 z "},"È":{"ha":824,"x_min":6,"x_max":889,"o":"m 6 0 l 197 993 l 889 993 l 857 825 l 364 825 l 321 601 l 754 601 l 722 438 l 289 438 l 236 167 l 740 167 l 708 0 l 6 0 m 499 1046 l 399 1219 l 600 1219 l 640 1046 l 499 1046 z "},"É":{"ha":824,"x_min":6,"x_max":889,"o":"m 6 0 l 197 993 l 889 993 l 857 825 l 364 825 l 321 601 l 754 601 l 722 438 l 289 438 l 236 167 l 740 167 l 708 0 l 6 0 m 785 1219 l 631 1046 l 486 1046 l 569 1219 l 785 1219 z "},"Ê":{"ha":824,"x_min":6,"x_max":889,"o":"m 6 0 l 197 993 l 889 993 l 857 825 l 364 825 l 321 601 l 754 601 l 722 438 l 289 438 l 236 167 l 740 167 l 708 0 l 6 0 m 333 1046 l 488 1204 l 688 1204 l 792 1046 l 635 1046 l 583 1128 l 581 1128 l 500 1046 l 333 1046 z "},"Ë":{"ha":824,"x_min":6,"x_max":889,"o":"m 6 0 l 197 993 l 889 993 l 857 825 l 364 825 l 321 601 l 754 601 l 722 438 l 289 438 l 236 167 l 740 167 l 708 0 l 6 0 m 607 1046 l 639 1204 l 814 1204 l 782 1046 l 607 1046 m 331 1046 l 363 1204 l 538 1204 l 506 1046 l 331 1046 z "},"Ì":{"ha":351,"x_min":7,"x_max":397,"o":"m 7 0 l 199 993 l 397 993 l 206 0 l 7 0 m 242 1046 l 142 1219 l 343 1219 l 383 1046 l 242 1046 z "},"Í":{"ha":351,"x_min":7,"x_max":518,"o":"m 7 0 l 199 993 l 397 993 l 206 0 l 7 0 m 518 1219 l 364 1046 l 219 1046 l 303 1219 l 518 1219 z "},"Î":{"ha":351,"x_min":7,"x_max":525,"o":"m 7 0 l 199 993 l 397 993 l 206 0 l 7 0 m 67 1046 l 221 1204 l 421 1204 l 525 1046 l 368 1046 l 317 1128 l 314 1128 l 233 1046 l 67 1046 z "},"Ï":{"ha":351,"x_min":7,"x_max":561,"o":"m 7 0 l 199 993 l 397 993 l 206 0 l 7 0 m 354 1046 l 386 1204 l 561 1204 l 529 1046 l 354 1046 m 78 1046 l 110 1204 l 285 1204 l 253 1046 l 78 1046 z "},"Ð":{"ha":929,"x_min":15,"x_max":931,"o":"m 19 0 l 101 424 l 15 424 l 44 582 l 132 582 l 211 993 l 526 993 q 822 885 714 993 q 931 572 931 776 q 786 146 931 299 q 622 39 722 78 q 410 0 522 0 l 19 0 m 251 174 l 411 174 q 647 277 565 174 q 729 567 729 381 q 672 756 729 690 q 501 821 614 821 l 376 821 l 331 582 l 556 582 l 526 424 l 300 424 l 251 174 z "},"Ñ":{"ha":918,"x_min":6,"x_max":965,"o":"m 6 0 l 197 993 l 396 993 l 599 439 q 619 376 608 413 q 633 317 629 340 l 639 294 l 642 294 q 671 467 657 397 l 772 993 l 965 993 l 774 0 l 585 0 l 372 553 q 351 617 361 582 q 336 672 340 651 l 331 692 l 328 692 q 299 518 313 588 l 199 0 l 6 0 m 668 1049 q 581 1072 632 1049 q 517 1094 531 1094 q 475 1051 485 1094 l 376 1051 q 426 1173 389 1131 q 515 1215 463 1215 q 603 1191 553 1215 q 667 1167 653 1167 q 713 1210 699 1167 l 811 1210 q 762 1092 799 1136 q 668 1049 725 1049 z "},"Ò":{"ha":990,"x_min":49,"x_max":994,"o":"m 481 -22 q 167 92 286 -22 q 49 404 49 207 q 83 634 49 525 q 182 828 118 743 q 346 963 246 913 q 567 1013 446 1013 q 877 894 760 1013 q 994 579 994 775 q 961 353 994 460 q 865 162 928 246 q 703 28 803 78 q 481 -22 604 -22 m 251 408 q 310 215 251 289 q 489 142 368 142 q 630 181 569 142 q 724 286 690 221 q 775 424 758 351 q 792 574 792 497 q 732 772 792 696 q 554 849 672 849 q 415 808 475 849 q 320 703 354 768 q 269 563 286 638 q 251 408 251 488 m 524 1046 l 424 1219 l 625 1219 l 665 1046 l 524 1046 z "},"Ó":{"ha":990,"x_min":49,"x_max":994,"o":"m 481 -22 q 167 92 286 -22 q 49 404 49 207 q 83 634 49 525 q 182 828 118 743 q 346 963 246 913 q 567 1013 446 1013 q 877 894 760 1013 q 994 579 994 775 q 961 353 994 460 q 865 162 928 246 q 703 28 803 78 q 481 -22 604 -22 m 251 408 q 310 215 251 289 q 489 142 368 142 q 630 181 569 142 q 724 286 690 221 q 775 424 758 351 q 792 574 792 497 q 732 772 792 696 q 554 849 672 849 q 415 808 475 849 q 320 703 354 768 q 269 563 286 638 q 251 408 251 488 m 810 1219 l 656 1046 l 511 1046 l 594 1219 l 810 1219 z "},"Ô":{"ha":990,"x_min":49,"x_max":994,"o":"m 481 -22 q 167 92 286 -22 q 49 404 49 207 q 83 634 49 525 q 182 828 118 743 q 346 963 246 913 q 567 1013 446 1013 q 877 894 760 1013 q 994 579 994 775 q 961 353 994 460 q 865 162 928 246 q 703 28 803 78 q 481 -22 604 -22 m 251 408 q 310 215 251 289 q 489 142 368 142 q 630 181 569 142 q 724 286 690 221 q 775 424 758 351 q 792 574 792 497 q 732 772 792 696 q 554 849 672 849 q 415 808 475 849 q 320 703 354 768 q 269 563 286 638 q 251 408 251 488 m 357 1046 l 511 1204 l 711 1204 l 815 1046 l 658 1046 l 607 1128 l 604 1128 l 524 1046 l 357 1046 z "},"Õ":{"ha":990,"x_min":49,"x_max":994,"o":"m 481 -22 q 167 92 286 -22 q 49 404 49 207 q 83 634 49 525 q 182 828 118 743 q 346 963 246 913 q 567 1013 446 1013 q 877 894 760 1013 q 994 579 994 775 q 961 353 994 460 q 865 162 928 246 q 703 28 803 78 q 481 -22 604 -22 m 251 408 q 310 215 251 289 q 489 142 368 142 q 630 181 569 142 q 724 286 690 221 q 775 424 758 351 q 792 574 792 497 q 732 772 792 696 q 554 849 672 849 q 415 808 475 849 q 320 703 354 768 q 269 563 286 638 q 251 408 251 488 m 668 1049 q 581 1072 632 1049 q 517 1094 531 1094 q 475 1051 485 1094 l 376 1051 q 426 1173 389 1131 q 515 1215 463 1215 q 603 1191 553 1215 q 667 1167 653 1167 q 713 1210 699 1167 l 811 1210 q 762 1092 799 1136 q 668 1049 725 1049 z "},"Ö":{"ha":990,"x_min":49,"x_max":994,"o":"m 481 -22 q 167 92 286 -22 q 49 404 49 207 q 83 634 49 525 q 182 828 118 743 q 346 963 246 913 q 567 1013 446 1013 q 877 894 760 1013 q 994 579 994 775 q 961 353 994 460 q 865 162 928 246 q 703 28 803 78 q 481 -22 604 -22 m 251 408 q 310 215 251 289 q 489 142 368 142 q 630 181 569 142 q 724 286 690 221 q 775 424 758 351 q 792 574 792 497 q 732 772 792 696 q 554 849 672 849 q 415 808 475 849 q 320 703 354 768 q 269 563 286 638 q 251 408 251 488 m 639 1046 l 671 1204 l 846 1204 l 814 1046 l 639 1046 m 363 1046 l 394 1204 l 569 1204 l 538 1046 l 363 1046 z "},"×":{"ha":776,"x_min":50,"x_max":758,"o":"m 50 215 l 311 451 l 124 688 l 229 776 l 414 544 l 671 776 l 758 679 l 496 442 l 683 207 l 578 118 l 393 350 l 136 118 l 50 215 z "},"Ø":{"ha":990,"x_min":25,"x_max":1003,"o":"m 481 -22 q 186 75 303 -22 l 86 -31 l 25 29 l 126 139 q 49 404 49 244 q 83 634 49 525 q 181 828 117 743 q 344 963 244 913 q 564 1013 443 1013 q 853 915 739 1013 l 939 1008 l 1003 949 l 913 851 q 994 579 994 742 q 961 353 994 460 q 865 162 928 246 q 703 28 803 78 q 481 -22 604 -22 m 793 574 q 775 704 793 651 l 308 207 q 489 142 367 142 q 666 212 594 142 q 765 376 738 282 q 793 574 793 469 m 250 408 q 265 286 250 333 l 729 783 q 554 849 671 849 q 415 808 475 849 q 319 703 354 768 q 267 563 285 638 q 250 408 250 488 z "},"Ù":{"ha":892,"x_min":29,"x_max":947,"o":"m 415 -17 q 126 76 224 -17 q 64 349 29 169 l 189 993 l 388 993 l 260 333 q 419 143 222 143 q 618 308 585 143 l 750 993 l 947 993 l 811 290 q 415 -17 750 -17 m 514 1046 l 414 1219 l 615 1219 l 656 1046 l 514 1046 z "},"Ú":{"ha":892,"x_min":29,"x_max":947,"o":"m 415 -17 q 126 76 224 -17 q 64 349 29 169 l 189 993 l 388 993 l 260 333 q 419 143 222 143 q 618 308 585 143 l 750 993 l 947 993 l 811 290 q 415 -17 750 -17 m 799 1219 l 644 1046 l 500 1046 l 583 1219 l 799 1219 z "},"Û":{"ha":892,"x_min":29,"x_max":947,"o":"m 415 -17 q 126 76 224 -17 q 64 349 29 169 l 189 993 l 388 993 l 260 333 q 419 143 222 143 q 618 308 585 143 l 750 993 l 947 993 l 811 290 q 415 -17 750 -17 m 349 1046 l 503 1204 l 703 1204 l 807 1046 l 650 1046 l 599 1128 l 596 1128 l 515 1046 l 349 1046 z "},"Ü":{"ha":892,"x_min":29,"x_max":947,"o":"m 415 -17 q 126 76 224 -17 q 64 349 29 169 l 189 993 l 388 993 l 260 333 q 419 143 222 143 q 618 308 585 143 l 750 993 l 947 993 l 811 290 q 415 -17 750 -17 m 624 1046 l 656 1204 l 831 1204 l 799 1046 l 624 1046 m 347 1046 l 379 1204 l 554 1204 l 522 1046 l 347 1046 z "},"Ý":{"ha":843,"x_min":125,"x_max":960,"o":"m 244 0 l 319 389 l 125 993 l 329 993 l 414 708 l 450 560 l 453 560 q 543 703 500 640 l 744 993 l 960 993 l 517 383 l 443 0 l 244 0 m 765 1219 l 611 1046 l 467 1046 l 550 1219 l 765 1219 z "},"Þ":{"ha":861,"x_min":6,"x_max":867,"o":"m 6 0 l 197 993 l 403 993 l 374 842 l 550 842 q 781 764 694 842 q 867 549 867 686 q 765 301 867 392 q 493 210 663 210 l 251 210 l 211 0 l 6 0 m 342 672 l 285 374 l 485 374 q 612 417 561 374 q 663 543 663 460 q 627 638 663 604 q 525 672 592 672 l 342 672 z "},"ß":{"ha":753,"x_min":-10,"x_max":743,"o":"m 385 -12 q 250 6 313 -12 l 278 140 l 281 140 q 360 129 319 129 q 488 190 442 129 q 533 357 533 251 q 497 476 533 433 q 388 518 460 518 l 351 518 l 374 632 l 422 632 q 528 670 486 632 q 569 774 569 708 q 540 847 569 819 q 463 874 510 874 q 318 733 344 874 l 176 0 l -10 0 l 135 750 q 245 941 158 869 q 464 1013 332 1013 q 663 953 583 1013 q 743 782 743 893 q 582 572 743 629 l 582 568 q 681 481 646 539 q 715 347 715 422 q 626 90 715 193 q 385 -12 536 -12 z "},"à":{"ha":714,"x_min":-3,"x_max":700,"o":"m 435 0 q 425 78 422 22 l 422 78 q 374 31 396 49 q 313 -1 353 14 q 224 -17 272 -17 q 65 37 132 -17 q -3 193 -3 90 q 15 289 -3 249 q 60 354 33 329 q 133 395 88 379 q 220 419 178 411 q 321 431 263 426 q 469 454 433 440 q 506 518 506 468 q 394 597 506 597 q 249 496 272 597 l 82 496 q 183 669 100 607 q 401 731 265 731 q 623 662 546 731 q 672 447 700 593 l 606 106 q 611 7 592 36 l 611 0 l 435 0 m 176 210 q 206 138 176 163 q 283 113 235 113 q 399 149 353 113 q 457 239 446 186 l 479 351 q 343 315 439 333 q 301 309 335 314 q 253 300 267 304 q 217 285 239 296 q 185 256 194 275 q 176 210 176 238 m 364 801 l 246 997 l 449 997 l 506 801 l 364 801 z "},"á":{"ha":714,"x_min":-3,"x_max":700,"o":"m 435 0 q 425 78 422 22 l 422 78 q 374 31 396 49 q 313 -1 353 14 q 224 -17 272 -17 q 65 37 132 -17 q -3 193 -3 90 q 15 289 -3 249 q 60 354 33 329 q 133 395 88 379 q 220 419 178 411 q 321 431 263 426 q 469 454 433 440 q 506 518 506 468 q 394 597 506 597 q 249 496 272 597 l 82 496 q 183 669 100 607 q 401 731 265 731 q 623 662 546 731 q 672 447 700 593 l 606 106 q 611 7 592 36 l 611 0 l 435 0 m 176 210 q 206 138 176 163 q 283 113 235 113 q 399 149 353 113 q 457 239 446 186 l 479 351 q 343 315 439 333 q 301 309 335 314 q 253 300 267 304 q 217 285 239 296 q 185 256 194 275 q 176 210 176 238 m 675 997 l 500 801 l 354 801 l 457 997 l 675 997 z "},"â":{"ha":714,"x_min":-3,"x_max":700,"o":"m 435 0 q 425 78 422 22 l 422 78 q 374 31 396 49 q 313 -1 353 14 q 224 -17 272 -17 q 65 37 132 -17 q -3 193 -3 90 q 15 289 -3 249 q 60 354 33 329 q 133 395 88 379 q 220 419 178 411 q 321 431 263 426 q 469 454 433 440 q 506 518 506 468 q 394 597 506 597 q 249 496 272 597 l 82 496 q 183 669 100 607 q 401 731 265 731 q 623 662 546 731 q 672 447 700 593 l 606 106 q 611 7 592 36 l 611 0 l 435 0 m 176 210 q 206 138 176 163 q 283 113 235 113 q 399 149 353 113 q 457 239 446 186 l 479 351 q 343 315 439 333 q 301 309 335 314 q 253 300 267 304 q 217 285 239 296 q 185 256 194 275 q 176 210 176 238 m 201 807 l 357 982 l 554 982 l 660 807 l 503 807 l 451 903 l 449 903 l 368 807 l 201 807 z "},"ã":{"ha":714,"x_min":-3,"x_max":700,"o":"m 435 0 q 425 78 422 22 l 422 78 q 374 31 396 49 q 313 -1 353 14 q 224 -17 272 -17 q 65 37 132 -17 q -3 193 -3 90 q 15 289 -3 249 q 60 354 33 329 q 133 395 88 379 q 220 419 178 411 q 321 431 263 426 q 469 454 433 440 q 506 518 506 468 q 394 597 506 597 q 249 496 272 597 l 82 496 q 183 669 100 607 q 401 731 265 731 q 623 662 546 731 q 672 447 700 593 l 606 106 q 611 7 592 36 l 611 0 l 435 0 m 176 210 q 206 138 176 163 q 283 113 235 113 q 399 149 353 113 q 457 239 446 186 l 479 351 q 343 315 439 333 q 301 309 335 314 q 253 300 267 304 q 217 285 239 296 q 185 256 194 275 q 176 210 176 238 m 511 799 q 428 822 475 799 q 367 844 381 844 q 325 801 335 844 l 226 801 q 276 923 240 881 q 365 965 313 965 q 449 941 403 965 q 510 917 496 917 q 556 960 542 917 l 654 960 q 605 842 642 886 q 511 799 568 799 z "},"ä":{"ha":714,"x_min":-3,"x_max":704,"o":"m 435 0 q 425 78 422 22 l 422 78 q 374 31 396 49 q 313 -1 353 14 q 224 -17 272 -17 q 65 37 132 -17 q -3 193 -3 90 q 15 289 -3 249 q 60 354 33 329 q 133 395 88 379 q 220 419 178 411 q 321 431 263 426 q 469 454 433 440 q 506 518 506 468 q 394 597 506 597 q 249 496 272 597 l 82 496 q 183 669 100 607 q 401 731 265 731 q 623 662 546 731 q 672 447 700 593 l 606 106 q 611 7 592 36 l 611 0 l 435 0 m 176 210 q 206 138 176 163 q 283 113 235 113 q 399 149 353 113 q 457 239 446 186 l 479 351 q 343 315 439 333 q 301 309 335 314 q 253 300 267 304 q 217 285 239 296 q 185 256 194 275 q 176 210 176 238 m 500 807 l 532 965 l 704 965 l 672 807 l 500 807 m 199 807 l 231 965 l 403 965 l 371 807 l 199 807 z "},"å":{"ha":714,"x_min":-3,"x_max":700,"o":"m 435 0 q 425 78 422 22 l 422 78 q 374 31 396 49 q 313 -1 353 14 q 224 -17 272 -17 q 65 37 132 -17 q -3 193 -3 90 q 15 289 -3 249 q 60 354 33 329 q 133 395 88 379 q 220 419 178 411 q 321 431 263 426 q 469 454 433 440 q 506 518 506 468 q 394 597 506 597 q 249 496 272 597 l 82 496 q 183 669 100 607 q 401 731 265 731 q 623 662 546 731 q 672 447 700 593 l 606 106 q 611 7 592 36 l 611 0 l 435 0 m 176 210 q 206 138 176 163 q 283 113 235 113 q 399 149 353 113 q 457 239 446 186 l 479 351 q 343 315 439 333 q 301 309 335 314 q 253 300 267 304 q 217 285 239 296 q 185 256 194 275 q 176 210 176 238 m 538 817 q 518 798 538 817 q 443 779 499 779 q 348 817 388 779 q 308 910 308 856 q 348 1002 308 964 q 443 1040 388 1040 q 538 1002 499 1040 q 578 910 578 964 q 538 817 578 856 m 399 863 q 408 854 399 863 q 443 844 417 844 q 488 863 469 844 q 506 910 506 882 q 488 956 506 938 q 443 975 469 975 q 399 956 417 975 q 381 910 381 938 q 399 863 381 882 z "},"æ":{"ha":1188,"x_min":-3,"x_max":1171,"o":"m 401 731 q 628 646 565 731 q 853 732 725 732 q 1032 686 961 732 q 1141 535 1111 635 q 1151 304 1171 435 l 656 304 q 690 169 656 215 q 801 124 724 124 q 947 213 908 124 l 1131 213 q 1021 53 1097 113 q 799 -21 931 -18 q 525 117 604 -21 q 247 -17 431 -17 q 67 35 136 -17 q -3 193 -3 88 q 15 289 -3 249 q 60 353 33 329 q 133 394 88 378 q 219 417 178 410 q 321 428 261 424 q 468 453 431 438 q 506 518 506 468 q 394 597 506 597 q 249 496 272 597 l 82 496 q 183 669 100 607 q 401 731 265 731 m 176 210 q 206 138 176 163 q 283 113 235 113 q 401 151 354 113 q 460 251 447 189 l 479 349 q 343 313 439 331 q 301 307 333 311 q 254 299 269 303 q 217 285 239 294 q 186 256 196 275 q 176 210 176 238 m 849 588 q 672 433 718 588 l 979 433 q 949 544 982 501 q 849 588 917 588 z "},"ç":{"ha":714,"x_min":22,"x_max":707,"o":"m 254 -267 q 104 -226 163 -267 l 133 -182 q 228 -203 175 -203 q 308 -154 308 -203 q 258 -119 308 -119 q 206 -129 235 -119 l 189 -99 l 274 -15 q 91 81 160 3 q 22 294 22 158 q 130 601 22 469 q 411 732 238 732 q 619 668 538 732 q 707 471 700 604 l 525 471 q 406 582 514 582 q 259 493 310 582 q 208 289 208 404 q 243 172 208 215 q 351 129 278 129 q 500 251 464 129 l 681 251 q 563 53 651 125 q 344 -21 474 -18 l 286 -69 l 286 -72 q 379 -86 340 -64 q 419 -154 418 -108 q 371 -239 419 -211 q 254 -267 322 -267 z "},"è":{"ha":739,"x_min":22,"x_max":722,"o":"m 703 304 l 207 304 q 241 169 207 215 q 353 124 275 124 q 499 213 460 124 l 682 213 q 572 53 649 113 q 350 -21 482 -18 q 113 63 204 -21 q 22 307 22 146 q 131 601 22 471 q 404 732 239 732 q 583 686 513 732 q 692 535 663 635 q 703 304 722 435 m 400 588 q 224 433 269 588 l 531 433 q 501 544 533 501 q 400 588 468 588 m 354 801 l 236 997 l 439 997 l 496 801 l 354 801 z "},"é":{"ha":739,"x_min":22,"x_max":722,"o":"m 703 304 l 207 304 q 241 169 207 215 q 353 124 275 124 q 499 213 460 124 l 682 213 q 572 53 649 113 q 350 -21 482 -18 q 113 63 204 -21 q 22 307 22 146 q 131 601 22 471 q 404 732 239 732 q 583 686 513 732 q 692 535 663 635 q 703 304 722 435 m 400 588 q 224 433 269 588 l 531 433 q 501 544 533 501 q 400 588 468 588 m 668 997 l 493 801 l 347 801 l 450 997 l 668 997 z "},"ê":{"ha":739,"x_min":22,"x_max":722,"o":"m 703 304 l 207 304 q 241 169 207 215 q 353 124 275 124 q 499 213 460 124 l 682 213 q 572 53 649 113 q 350 -21 482 -18 q 113 63 204 -21 q 22 307 22 146 q 131 601 22 471 q 404 732 239 732 q 583 686 513 732 q 692 535 663 635 q 703 304 722 435 m 190 807 l 346 982 l 543 982 l 649 807 l 492 807 l 440 903 l 438 903 l 357 807 l 190 807 m 400 588 q 224 433 269 588 l 531 433 q 501 544 533 501 q 400 588 468 588 z "},"ë":{"ha":739,"x_min":22,"x_max":722,"o":"m 703 304 l 207 304 q 241 169 207 215 q 353 124 275 124 q 499 213 460 124 l 682 213 q 572 53 649 113 q 350 -21 482 -18 q 113 63 204 -21 q 22 307 22 146 q 131 601 22 471 q 404 732 239 732 q 583 686 513 732 q 692 535 663 635 q 703 304 722 435 m 400 588 q 224 433 269 588 l 531 433 q 501 544 533 501 q 400 588 468 588 m 486 807 l 518 965 l 690 965 l 658 807 l 486 807 m 185 807 l 217 965 l 389 965 l 357 807 l 185 807 z "},"ì":{"ha":306,"x_min":-10,"x_max":314,"o":"m -10 0 l 128 713 l 314 713 l 176 0 l -10 0 m 171 801 l 53 997 l 256 997 l 313 801 l 171 801 z "},"í":{"ha":306,"x_min":-10,"x_max":486,"o":"m -10 0 l 128 713 l 314 713 l 176 0 l -10 0 m 486 997 l 311 801 l 165 801 l 268 997 l 486 997 z "},"î":{"ha":306,"x_min":-10,"x_max":425,"o":"m -10 0 l 128 713 l 314 713 l 176 0 l -10 0 m 38 807 l 163 982 l 351 982 l 425 807 l 281 807 l 250 899 l 247 899 l 188 807 l 38 807 z "},"ï":{"ha":306,"x_min":-10,"x_max":440,"o":"m -10 0 l 128 713 l 314 713 l 176 0 l -10 0 m 261 807 l 293 965 l 440 965 l 408 807 l 261 807 m 65 807 l 97 965 l 244 965 l 213 807 l 65 807 z "},"ð":{"ha":779,"x_min":22,"x_max":754,"o":"m 236 826 l 399 875 q 265 993 346 929 l 489 993 q 567 926 531 963 l 711 971 l 731 897 l 622 864 q 754 461 754 697 q 648 106 754 233 q 360 -21 542 -21 q 117 67 213 -21 q 24 313 22 156 q 131 602 25 483 q 394 721 236 721 q 551 643 492 721 l 554 643 q 456 813 518 735 l 256 753 l 236 826 m 210 301 q 247 171 210 222 q 361 119 283 119 q 514 208 461 119 q 567 413 567 297 q 528 538 567 488 q 414 589 490 589 q 262 503 314 589 q 210 301 210 417 z "},"ñ":{"ha":744,"x_min":-10,"x_max":731,"o":"m 310 713 l 289 600 l 293 600 q 392 701 342 669 q 515 732 442 732 q 676 653 622 732 q 707 450 731 574 l 621 0 l 435 0 l 518 428 q 506 536 532 499 q 421 574 481 574 q 312 522 357 574 q 251 389 267 469 l 176 0 l -10 0 l 128 713 l 310 713 m 532 799 q 449 822 496 799 q 388 844 401 844 q 346 801 356 844 l 247 801 q 297 923 261 881 q 386 965 333 965 q 470 941 424 965 q 531 917 517 917 q 576 960 563 917 l 675 960 q 626 842 663 886 q 532 799 589 799 z "},"ò":{"ha":779,"x_min":24,"x_max":754,"o":"m 358 -21 q 118 66 213 -21 q 24 311 24 153 q 135 608 24 485 q 425 732 247 732 q 660 646 567 732 q 754 407 754 560 q 644 104 754 229 q 358 -21 535 -21 m 210 300 q 247 170 210 221 q 363 119 285 119 q 515 208 463 119 q 568 413 568 297 q 531 540 568 489 q 415 592 493 592 q 263 503 315 592 q 210 300 210 415 m 371 801 l 253 997 l 456 997 l 513 801 l 371 801 z "},"ó":{"ha":779,"x_min":24,"x_max":754,"o":"m 358 -21 q 118 66 213 -21 q 24 311 24 153 q 135 608 24 485 q 425 732 247 732 q 660 646 567 732 q 754 407 754 560 q 644 104 754 229 q 358 -21 535 -21 m 210 300 q 247 170 210 221 q 363 119 285 119 q 515 208 463 119 q 568 413 568 297 q 531 540 568 489 q 415 592 493 592 q 263 503 315 592 q 210 300 210 415 m 692 997 l 517 801 l 371 801 l 474 997 l 692 997 z "},"ô":{"ha":779,"x_min":24,"x_max":754,"o":"m 358 -21 q 118 66 213 -21 q 24 311 24 153 q 135 608 24 485 q 425 732 247 732 q 660 646 567 732 q 754 407 754 560 q 644 104 754 229 q 358 -21 535 -21 m 210 300 q 247 170 210 221 q 363 119 285 119 q 515 208 463 119 q 568 413 568 297 q 531 540 568 489 q 415 592 493 592 q 263 503 315 592 q 210 300 210 415 m 210 807 l 365 982 l 563 982 l 668 807 l 511 807 l 460 903 l 457 903 l 376 807 l 210 807 z "},"õ":{"ha":779,"x_min":24,"x_max":754,"o":"m 358 -21 q 118 66 213 -21 q 24 311 24 153 q 135 608 24 485 q 425 732 247 732 q 660 646 567 732 q 754 407 754 560 q 644 104 754 229 q 358 -21 535 -21 m 210 300 q 247 170 210 221 q 363 119 285 119 q 515 208 463 119 q 568 413 568 297 q 531 540 568 489 q 415 592 493 592 q 263 503 315 592 q 210 300 210 415 m 510 799 q 426 822 474 799 q 365 844 379 844 q 324 801 333 844 l 225 801 q 275 923 239 881 q 364 965 311 965 q 448 941 401 965 q 508 917 494 917 q 554 960 540 917 l 653 960 q 603 842 640 886 q 510 799 567 799 z "},"ö":{"ha":779,"x_min":24,"x_max":754,"o":"m 358 -21 q 118 66 213 -21 q 24 311 24 153 q 135 608 24 485 q 425 732 247 732 q 660 646 567 732 q 754 407 754 560 q 644 104 754 229 q 358 -21 535 -21 m 210 300 q 247 170 210 221 q 363 119 285 119 q 515 208 463 119 q 568 413 568 297 q 531 540 568 489 q 415 592 493 592 q 263 503 315 592 q 210 300 210 415 m 513 807 l 544 965 l 717 965 l 685 807 l 513 807 m 211 807 l 243 965 l 415 965 l 383 807 l 211 807 z "},"÷":{"ha":778,"x_min":53,"x_max":761,"o":"m 239 103 l 275 288 l 474 288 l 438 103 l 239 103 m 340 625 l 376 808 l 575 808 l 539 625 l 340 625 m 53 388 l 79 524 l 761 524 l 735 388 l 53 388 z "},"ø":{"ha":779,"x_min":8,"x_max":771,"o":"m 360 -21 q 149 40 235 -21 l 63 -50 l 8 1 l 94 92 q 24 311 24 178 q 135 608 24 485 q 425 732 247 732 q 636 667 550 732 l 717 751 l 771 700 l 689 614 q 754 407 754 531 q 644 105 754 231 q 360 -21 535 -21 m 207 300 q 217 222 207 253 l 526 550 q 415 592 485 592 q 261 503 315 592 q 207 300 207 415 m 571 413 q 563 479 571 450 l 256 154 q 363 119 294 119 q 517 208 463 119 q 571 413 571 297 z "},"ù":{"ha":736,"x_min":8,"x_max":742,"o":"m 425 0 l 444 101 l 440 101 q 228 -19 354 -19 q 61 56 114 -19 q 33 263 8 132 l 119 713 l 306 713 l 222 285 q 311 138 193 138 q 419 187 375 138 q 481 324 464 236 l 556 713 l 742 713 l 604 0 l 425 0 m 376 801 l 258 997 l 461 997 l 518 801 l 376 801 z "},"ú":{"ha":736,"x_min":8,"x_max":742,"o":"m 425 0 l 444 101 l 440 101 q 228 -19 354 -19 q 61 56 114 -19 q 33 263 8 132 l 119 713 l 306 713 l 222 285 q 311 138 193 138 q 419 187 375 138 q 481 324 464 236 l 556 713 l 742 713 l 604 0 l 425 0 m 688 997 l 513 801 l 367 801 l 469 997 l 688 997 z "},"û":{"ha":736,"x_min":8,"x_max":742,"o":"m 425 0 l 444 101 l 440 101 q 228 -19 354 -19 q 61 56 114 -19 q 33 263 8 132 l 119 713 l 306 713 l 222 285 q 311 138 193 138 q 419 187 375 138 q 481 324 464 236 l 556 713 l 742 713 l 604 0 l 425 0 m 217 807 l 372 982 l 569 982 l 675 807 l 518 807 l 467 903 l 464 903 l 383 807 l 217 807 z "},"ü":{"ha":736,"x_min":8,"x_max":742,"o":"m 425 0 l 444 101 l 440 101 q 228 -19 354 -19 q 61 56 114 -19 q 33 263 8 132 l 119 713 l 306 713 l 222 285 q 311 138 193 138 q 419 187 375 138 q 481 324 464 236 l 556 713 l 742 713 l 604 0 l 425 0 m 514 807 l 546 965 l 718 965 l 686 807 l 514 807 m 213 807 l 244 965 l 417 965 l 385 807 l 213 807 z "},"ý":{"ha":678,"x_min":-18,"x_max":736,"o":"m -18 -233 l 11 -86 l 71 -86 q 194 46 194 -86 q 171 206 194 94 l 68 713 l 263 713 l 311 389 l 332 228 l 335 228 q 400 389 369 322 l 547 713 l 736 713 l 368 -35 q 256 -190 314 -146 q 99 -233 199 -233 l -18 -233 m 657 997 l 482 801 l 336 801 l 439 997 l 657 997 z "},"þ":{"ha":781,"x_min":-56,"x_max":758,"o":"m -56 -233 l 182 993 l 368 993 l 297 629 l 301 629 q 513 732 389 732 q 694 645 629 732 q 758 421 758 558 q 738 266 758 342 q 676 125 717 190 q 566 19 636 60 q 407 -21 496 -21 q 283 10 339 -21 q 199 100 228 40 l 196 100 l 131 -233 l -56 -233 m 233 299 q 270 182 233 229 q 379 135 307 135 q 490 178 446 135 q 551 283 535 222 q 568 414 568 343 q 535 533 568 485 q 432 581 503 581 q 286 494 339 581 q 233 299 233 407 z "},"ÿ":{"ha":678,"x_min":-18,"x_max":736,"o":"m -18 -233 l 11 -86 l 71 -86 q 194 46 194 -86 q 171 206 194 94 l 68 713 l 263 713 l 311 389 l 332 228 l 335 228 q 400 389 369 322 l 547 713 l 736 713 l 368 -35 q 256 -190 314 -146 q 99 -233 199 -233 l -18 -233 m 479 807 l 511 965 l 683 965 l 651 807 l 479 807 m 178 807 l 210 965 l 382 965 l 350 807 l 178 807 z "},"Ā":{"ha":881,"x_min":-68,"x_max":810,"o":"m 604 0 l 576 213 l 233 213 l 133 0 l -68 0 l 440 993 l 646 993 l 810 0 l 604 0 m 440 647 l 306 365 l 557 365 l 522 644 l 510 803 l 507 803 q 440 647 465 700 m 357 1058 l 382 1190 l 771 1190 l 746 1058 l 357 1058 z "},"ā":{"ha":714,"x_min":-3,"x_max":700,"o":"m 435 0 q 425 78 422 22 l 422 78 q 374 31 396 49 q 313 -1 353 14 q 224 -17 272 -17 q 65 37 132 -17 q -3 193 -3 90 q 15 289 -3 249 q 60 354 33 329 q 133 395 88 379 q 220 419 178 411 q 321 431 263 426 q 469 454 433 440 q 506 518 506 468 q 394 597 506 597 q 249 496 272 597 l 82 496 q 183 669 100 607 q 401 731 265 731 q 623 662 546 731 q 672 447 700 593 l 606 106 q 611 7 592 36 l 611 0 l 435 0 m 176 210 q 206 138 176 163 q 283 113 235 113 q 399 149 353 113 q 457 239 446 186 l 479 351 q 343 315 439 333 q 301 309 335 314 q 253 300 267 304 q 217 285 239 296 q 185 256 194 275 q 176 210 176 238 m 243 822 l 268 954 l 657 954 l 632 822 l 243 822 z "},"Ă":{"ha":881,"x_min":-68,"x_max":810,"o":"m 604 0 l 576 213 l 233 213 l 133 0 l -68 0 l 440 993 l 646 993 l 810 0 l 604 0 m 440 647 l 306 365 l 557 365 l 522 644 l 510 803 l 507 803 q 440 647 465 700 m 560 1040 q 421 1092 471 1040 q 369 1225 371 1143 l 475 1225 q 564 1158 479 1158 q 664 1225 643 1158 l 771 1225 q 699 1091 754 1142 q 560 1040 643 1040 z "},"ă":{"ha":714,"x_min":-3,"x_max":700,"o":"m 435 0 q 425 78 422 22 l 422 78 q 374 31 396 49 q 313 -1 353 14 q 224 -17 272 -17 q 65 37 132 -17 q -3 193 -3 90 q 15 289 -3 249 q 60 354 33 329 q 133 395 88 379 q 220 419 178 411 q 321 431 263 426 q 469 454 433 440 q 506 518 506 468 q 394 597 506 597 q 249 496 272 597 l 82 496 q 183 669 100 607 q 401 731 265 731 q 623 662 546 731 q 672 447 700 593 l 606 106 q 611 7 592 36 l 611 0 l 435 0 m 176 210 q 206 138 176 163 q 283 113 235 113 q 399 149 353 113 q 457 239 446 186 l 479 351 q 343 315 439 333 q 301 309 335 314 q 253 300 267 304 q 217 285 239 296 q 185 256 194 275 q 176 210 176 238 m 440 796 q 301 847 351 796 q 250 981 251 899 l 356 981 q 444 914 360 914 q 544 981 524 914 l 651 981 q 579 847 635 897 q 440 796 524 796 z "},"Ą":{"ha":881,"x_min":-68,"x_max":808,"o":"m 703 -242 q 601 -215 643 -242 q 560 -135 560 -187 q 663 0 560 -53 l 604 0 l 576 213 l 233 213 l 133 0 l -68 0 l 440 993 l 646 993 l 808 6 q 707 -101 707 -56 q 750 -133 707 -133 q 789 -125 767 -133 l 792 -125 l 771 -231 q 703 -242 743 -242 m 440 647 l 306 365 l 557 365 l 522 644 l 510 803 l 507 803 q 440 647 465 700 z "},"ą":{"ha":714,"x_min":-3,"x_max":700,"o":"m 435 0 q 425 78 422 22 l 422 78 q 374 31 396 49 q 313 -1 353 14 q 224 -17 272 -17 q 65 37 132 -17 q -3 193 -3 90 q 15 289 -3 249 q 60 354 33 329 q 133 395 88 379 q 220 419 178 411 q 321 431 263 426 q 469 454 433 440 q 506 518 506 468 q 394 597 506 597 q 249 496 272 597 l 82 496 q 183 669 100 607 q 401 731 265 731 q 623 662 546 731 q 672 447 700 593 l 606 106 q 611 7 592 36 l 611 0 q 547 -45 579 -17 q 515 -101 515 -74 q 558 -133 515 -133 q 597 -125 575 -133 l 600 -125 l 579 -231 q 511 -242 551 -242 q 410 -215 451 -242 q 368 -135 368 -187 q 486 0 368 -56 l 435 0 m 176 210 q 206 138 176 163 q 283 113 235 113 q 399 149 353 113 q 457 239 446 186 l 479 351 q 343 315 439 333 q 301 309 335 314 q 253 300 267 304 q 217 285 239 296 q 185 256 194 275 q 176 210 176 238 z "},"Ć":{"ha":935,"x_min":49,"x_max":944,"o":"m 460 -21 q 158 96 267 -21 q 49 401 49 213 q 110 694 49 557 q 294 922 171 832 q 579 1013 418 1013 q 837 929 738 1013 q 944 678 936 846 l 749 678 q 564 844 735 844 q 388 776 461 844 q 283 610 314 707 q 251 404 251 513 q 304 216 251 289 q 475 143 357 143 q 621 190 561 143 q 707 319 681 236 l 903 319 q 747 65 857 150 q 460 -21 635 -21 m 818 1219 l 664 1046 l 519 1046 l 603 1219 l 818 1219 z "},"ć":{"ha":714,"x_min":22,"x_max":707,"o":"m 340 -21 q 112 59 201 -21 q 22 294 22 139 q 130 601 22 469 q 411 732 238 732 q 619 668 538 732 q 707 471 700 604 l 525 471 q 406 582 514 582 q 259 493 310 582 q 208 289 208 404 q 243 172 208 215 q 351 129 278 129 q 500 251 464 129 l 681 251 q 561 51 651 124 q 340 -21 471 -21 m 678 997 l 503 801 l 357 801 l 460 997 l 678 997 z "},"Ĉ":{"ha":935,"x_min":49,"x_max":944,"o":"m 460 -21 q 158 96 267 -21 q 49 401 49 213 q 110 694 49 557 q 294 922 171 832 q 579 1013 418 1013 q 837 929 738 1013 q 944 678 936 846 l 749 678 q 564 844 735 844 q 388 776 461 844 q 283 610 314 707 q 251 404 251 513 q 304 216 251 289 q 475 143 357 143 q 621 190 561 143 q 707 319 681 236 l 903 319 q 747 65 857 150 q 460 -21 635 -21 m 360 1046 l 514 1204 l 714 1204 l 818 1046 l 661 1046 l 610 1128 l 607 1128 l 526 1046 l 360 1046 z "},"ĉ":{"ha":714,"x_min":22,"x_max":707,"o":"m 340 -21 q 112 59 201 -21 q 22 294 22 139 q 130 601 22 469 q 411 732 238 732 q 619 668 538 732 q 707 471 700 604 l 525 471 q 406 582 514 582 q 259 493 310 582 q 208 289 208 404 q 243 172 208 215 q 351 129 278 129 q 500 251 464 129 l 681 251 q 561 51 651 124 q 340 -21 471 -21 m 197 807 l 353 982 l 550 982 l 656 807 l 499 807 l 447 903 l 444 903 l 364 807 l 197 807 z "},"Ċ":{"ha":935,"x_min":49,"x_max":944,"o":"m 460 -21 q 158 96 267 -21 q 49 401 49 213 q 110 694 49 557 q 294 922 171 832 q 579 1013 418 1013 q 837 929 738 1013 q 944 678 936 846 l 749 678 q 564 844 735 844 q 388 776 461 844 q 283 610 314 707 q 251 404 251 513 q 304 216 251 289 q 475 143 357 143 q 621 190 561 143 q 707 319 681 236 l 903 319 q 747 65 857 150 q 460 -21 635 -21 m 492 1046 l 525 1210 l 711 1210 l 678 1046 l 492 1046 z "},"ċ":{"ha":714,"x_min":22,"x_max":707,"o":"m 340 -21 q 112 59 201 -21 q 22 294 22 139 q 130 601 22 469 q 411 732 238 732 q 619 668 538 732 q 707 471 700 604 l 525 471 q 406 582 514 582 q 259 493 310 582 q 208 289 208 404 q 243 172 208 215 q 351 129 278 129 q 500 251 464 129 l 681 251 q 561 51 651 124 q 340 -21 471 -21 m 335 824 l 367 993 l 553 993 l 521 824 l 335 824 z "},"Č":{"ha":935,"x_min":49,"x_max":944,"o":"m 460 -21 q 158 96 267 -21 q 49 401 49 213 q 110 694 49 557 q 294 922 171 832 q 579 1013 418 1013 q 837 929 738 1013 q 944 678 936 846 l 749 678 q 564 844 735 844 q 388 776 461 844 q 283 610 314 707 q 251 404 251 513 q 304 216 251 289 q 475 143 357 143 q 621 190 561 143 q 707 319 681 236 l 903 319 q 747 65 857 150 q 460 -21 635 -21 m 840 1204 l 686 1046 l 486 1046 l 382 1204 l 539 1204 l 590 1122 l 593 1122 l 674 1204 l 840 1204 z "},"č":{"ha":714,"x_min":22,"x_max":707,"o":"m 340 -21 q 112 59 201 -21 q 22 294 22 139 q 130 601 22 469 q 411 732 238 732 q 619 668 538 732 q 707 471 700 604 l 525 471 q 406 582 514 582 q 259 493 310 582 q 208 289 208 404 q 243 172 208 215 q 351 129 278 129 q 500 251 464 129 l 681 251 q 561 51 651 124 q 340 -21 471 -21 m 685 975 l 529 800 l 332 800 l 226 975 l 383 975 l 435 879 l 438 879 l 518 975 l 685 975 z "},"Ď":{"ha":915,"x_min":6,"x_max":917,"o":"m 6 0 l 197 993 l 513 993 q 808 885 700 993 q 917 572 917 776 q 772 146 917 299 q 608 39 708 78 q 396 0 508 0 l 6 0 m 238 174 l 397 174 q 633 277 551 174 q 715 567 715 381 q 658 756 715 690 q 488 821 600 821 l 363 821 l 238 174 m 786 1204 l 632 1046 l 432 1046 l 328 1204 l 485 1204 l 536 1122 l 539 1122 l 619 1204 l 786 1204 z "},"ď":{"ha":782,"x_min":25,"x_max":1075,"o":"m 289 -21 q 97 64 168 -21 q 25 292 25 149 q 124 599 25 467 q 382 732 222 732 q 582 617 525 732 l 586 617 l 658 993 l 844 993 l 653 0 l 474 0 l 488 78 l 485 78 q 289 -21 407 -21 m 214 303 q 350 133 214 133 q 496 217 444 133 q 547 404 547 300 q 511 533 547 485 q 403 581 475 581 q 263 494 313 581 q 214 303 214 408 m 851 725 l 864 786 q 960 853 950 790 l 879 853 l 906 993 l 1075 993 l 1051 867 q 851 725 1025 728 z "},"Đ":{"ha":929,"x_min":15,"x_max":931,"o":"m 19 0 l 101 424 l 15 424 l 44 582 l 132 582 l 211 993 l 526 993 q 822 885 714 993 q 931 572 931 776 q 786 146 931 299 q 622 39 722 78 q 410 0 522 0 l 19 0 m 251 174 l 411 174 q 647 277 565 174 q 729 567 729 381 q 672 756 729 690 q 501 821 614 821 l 376 821 l 331 582 l 556 582 l 526 424 l 300 424 l 251 174 z "},"đ":{"ha":782,"x_min":25,"x_max":900,"o":"m 289 -21 q 97 64 168 -21 q 25 292 25 149 q 124 599 25 467 q 382 732 222 732 q 582 617 525 732 l 586 617 l 619 793 l 440 793 l 461 901 l 640 901 l 658 993 l 844 993 l 826 901 l 900 901 l 879 793 l 806 793 l 653 0 l 474 0 l 488 78 l 485 78 q 289 -21 407 -21 m 214 303 q 350 133 214 133 q 496 217 444 133 q 547 404 547 300 q 511 533 547 485 q 403 581 475 581 q 263 494 313 581 q 214 303 214 408 z "},"Ē":{"ha":824,"x_min":6,"x_max":889,"o":"m 6 0 l 197 993 l 889 993 l 857 825 l 364 825 l 321 601 l 754 601 l 722 438 l 289 438 l 236 167 l 740 167 l 708 0 l 6 0 m 376 1058 l 401 1190 l 790 1190 l 765 1058 l 376 1058 z "},"ē":{"ha":739,"x_min":22,"x_max":722,"o":"m 703 304 l 207 304 q 241 169 207 215 q 353 124 275 124 q 499 213 460 124 l 682 213 q 572 53 649 113 q 350 -21 482 -18 q 113 63 204 -21 q 22 307 22 146 q 131 601 22 471 q 404 732 239 732 q 583 686 513 732 q 692 535 663 635 q 703 304 722 435 m 225 822 l 250 954 l 639 954 l 614 822 l 225 822 m 400 588 q 224 433 269 588 l 531 433 q 501 544 533 501 q 400 588 468 588 z "},"Ĕ":{"ha":824,"x_min":6,"x_max":889,"o":"m 6 0 l 197 993 l 889 993 l 857 825 l 364 825 l 321 601 l 754 601 l 722 438 l 289 438 l 236 167 l 740 167 l 708 0 l 6 0 m 581 1040 q 442 1092 492 1040 q 390 1225 392 1143 l 496 1225 q 585 1158 500 1158 q 685 1225 664 1158 l 792 1225 q 719 1091 775 1142 q 581 1040 664 1040 z "},"ĕ":{"ha":739,"x_min":22,"x_max":722,"o":"m 703 304 l 207 304 q 241 169 207 215 q 353 124 275 124 q 499 213 460 124 l 682 213 q 572 53 649 113 q 350 -21 482 -18 q 113 63 204 -21 q 22 307 22 146 q 131 601 22 471 q 404 732 239 732 q 583 686 513 732 q 692 535 663 635 q 703 304 722 435 m 419 796 q 281 847 331 796 q 229 981 231 899 l 335 981 q 424 914 339 914 q 524 981 503 914 l 631 981 q 558 847 614 897 q 419 796 503 796 m 400 588 q 224 433 269 588 l 531 433 q 501 544 533 501 q 400 588 468 588 z "},"Ė":{"ha":824,"x_min":6,"x_max":889,"o":"m 6 0 l 197 993 l 889 993 l 857 825 l 364 825 l 321 601 l 754 601 l 722 438 l 289 438 l 236 167 l 740 167 l 708 0 l 6 0 m 467 1046 l 500 1210 l 686 1210 l 653 1046 l 467 1046 z "},"ė":{"ha":739,"x_min":22,"x_max":722,"o":"m 703 304 l 207 304 q 241 169 207 215 q 353 124 275 124 q 499 213 460 124 l 682 213 q 572 53 649 113 q 350 -21 482 -18 q 113 63 204 -21 q 22 307 22 146 q 131 601 22 471 q 404 732 239 732 q 583 686 513 732 q 692 535 663 635 q 703 304 722 435 m 400 588 q 224 433 269 588 l 531 433 q 501 544 533 501 q 400 588 468 588 m 332 824 l 364 993 l 550 993 l 518 824 l 332 824 z "},"Ę":{"ha":824,"x_min":6,"x_max":889,"o":"m 6 0 l 197 993 l 889 993 l 857 825 l 364 825 l 321 601 l 754 601 l 722 438 l 289 438 l 236 167 l 740 167 l 708 0 l 638 0 q 544 -101 544 -60 q 588 -133 544 -133 q 626 -125 604 -133 l 629 -125 l 608 -231 q 540 -242 581 -242 q 439 -215 481 -242 q 397 -135 397 -187 q 497 0 397 -53 l 6 0 z "},"ę":{"ha":739,"x_min":22,"x_max":722,"o":"m 499 213 l 682 213 q 549 32 643 101 q 506 2 533 21 q 467 -26 479 -17 q 439 -49 454 -35 q 417 -74 424 -62 q 411 -100 411 -86 q 454 -133 411 -133 q 493 -125 471 -133 l 496 -125 l 475 -231 q 407 -242 447 -242 q 306 -215 347 -242 q 264 -135 264 -187 q 347 -21 264 -67 q 112 62 201 -21 q 22 307 22 144 q 131 601 22 471 q 404 732 239 732 q 583 686 513 732 q 692 535 663 635 q 703 304 722 435 l 207 304 q 241 169 207 215 q 353 124 275 124 q 499 213 460 124 m 400 588 q 224 433 269 588 l 531 433 q 501 544 533 501 q 400 588 468 588 z "},"Ě":{"ha":824,"x_min":6,"x_max":889,"o":"m 6 0 l 197 993 l 889 993 l 857 825 l 364 825 l 321 601 l 754 601 l 722 438 l 289 438 l 236 167 l 740 167 l 708 0 l 6 0 m 821 1204 l 667 1046 l 467 1046 l 363 1204 l 519 1204 l 571 1122 l 574 1122 l 654 1204 l 821 1204 z "},"ě":{"ha":739,"x_min":22,"x_max":722,"o":"m 703 304 l 207 304 q 241 169 207 215 q 353 124 275 124 q 499 213 460 124 l 682 213 q 572 53 649 113 q 350 -21 482 -18 q 113 63 204 -21 q 22 307 22 146 q 131 601 22 471 q 404 732 239 732 q 583 686 513 732 q 692 535 663 635 q 703 304 722 435 m 672 975 l 517 800 l 319 800 l 214 975 l 371 975 l 422 879 l 425 879 l 506 975 l 672 975 m 400 588 q 224 433 269 588 l 531 433 q 501 544 533 501 q 400 588 468 588 z "},"Ĝ":{"ha":988,"x_min":49,"x_max":974,"o":"m 717 0 l 733 122 l 731 122 q 444 -21 628 -21 q 158 90 267 -21 q 49 401 49 201 q 114 696 49 557 q 306 924 179 835 q 590 1013 432 1013 q 857 928 751 1011 q 974 681 963 844 l 781 681 q 718 803 772 758 q 575 847 664 847 q 338 715 425 847 q 251 404 251 582 q 310 209 251 278 q 488 140 369 140 q 669 203 594 140 q 761 374 743 267 l 526 374 l 556 528 l 967 528 l 865 0 l 717 0 m 365 1046 l 519 1204 l 719 1204 l 824 1046 l 667 1046 l 615 1128 l 613 1128 l 532 1046 l 365 1046 z "},"ĝ":{"ha":765,"x_min":4,"x_max":774,"o":"m 303 -243 q 101 -188 186 -243 q 4 -21 17 -133 l 193 -21 q 307 -101 211 -101 q 461 49 433 -101 l 475 121 l 471 121 q 392 62 431 81 q 296 43 354 43 q 101 124 175 43 q 28 333 28 204 q 124 615 28 497 q 375 732 219 732 q 575 626 519 732 l 578 626 l 594 713 l 774 713 l 642 31 q 540 -164 618 -93 q 303 -243 456 -243 m 350 193 q 487 262 435 193 q 538 424 539 331 q 499 538 536 494 q 396 582 463 582 q 263 514 313 582 q 213 347 213 446 q 248 235 213 278 q 350 193 283 193 m 213 807 l 368 982 l 565 982 l 671 807 l 514 807 l 463 903 l 460 903 l 379 807 l 213 807 z "},"Ğ":{"ha":988,"x_min":49,"x_max":974,"o":"m 717 0 l 733 122 l 731 122 q 444 -21 628 -21 q 158 90 267 -21 q 49 401 49 201 q 114 696 49 557 q 306 924 179 835 q 590 1013 432 1013 q 857 928 751 1011 q 974 681 963 844 l 781 681 q 718 803 772 758 q 575 847 664 847 q 338 715 425 847 q 251 404 251 582 q 310 209 251 278 q 488 140 369 140 q 669 203 594 140 q 761 374 743 267 l 526 374 l 556 528 l 967 528 l 865 0 l 717 0 m 608 1040 q 469 1092 519 1040 q 418 1225 419 1143 l 524 1225 q 613 1158 528 1158 q 713 1225 692 1158 l 819 1225 q 747 1091 803 1142 q 608 1040 692 1040 z "},"ğ":{"ha":765,"x_min":4,"x_max":774,"o":"m 303 -243 q 101 -188 186 -243 q 4 -21 17 -133 l 193 -21 q 307 -101 211 -101 q 461 49 433 -101 l 475 121 l 471 121 q 392 62 431 81 q 296 43 354 43 q 101 124 175 43 q 28 333 28 204 q 124 615 28 497 q 375 732 219 732 q 575 626 519 732 l 578 626 l 594 713 l 774 713 l 642 31 q 540 -164 618 -93 q 303 -243 456 -243 m 350 193 q 487 262 435 193 q 538 424 539 331 q 499 538 536 494 q 396 582 463 582 q 263 514 313 582 q 213 347 213 446 q 248 235 213 278 q 350 193 283 193 m 444 796 q 306 847 356 796 q 254 981 256 899 l 360 981 q 449 914 364 914 q 549 981 528 914 l 656 981 q 583 847 639 897 q 444 796 528 796 z "},"Ġ":{"ha":988,"x_min":49,"x_max":974,"o":"m 717 0 l 733 122 l 731 122 q 444 -21 628 -21 q 158 90 267 -21 q 49 401 49 201 q 114 696 49 557 q 306 924 179 835 q 590 1013 432 1013 q 857 928 751 1011 q 974 681 963 844 l 781 681 q 718 803 772 758 q 575 847 664 847 q 338 715 425 847 q 251 404 251 582 q 310 209 251 278 q 488 140 369 140 q 669 203 594 140 q 761 374 743 267 l 526 374 l 556 528 l 967 528 l 865 0 l 717 0 m 503 1046 l 536 1210 l 722 1210 l 689 1046 l 503 1046 z "},"ġ":{"ha":765,"x_min":4,"x_max":774,"o":"m 303 -243 q 101 -188 186 -243 q 4 -21 17 -133 l 193 -21 q 307 -101 211 -101 q 461 49 433 -101 l 475 121 l 471 121 q 392 62 431 81 q 296 43 354 43 q 101 124 175 43 q 28 333 28 204 q 124 615 28 497 q 375 732 219 732 q 575 626 519 732 l 578 626 l 594 713 l 774 713 l 642 31 q 540 -164 618 -93 q 303 -243 456 -243 m 350 193 q 487 262 435 193 q 538 424 539 331 q 499 538 536 494 q 396 582 463 582 q 263 514 313 582 q 213 347 213 446 q 248 235 213 278 q 350 193 283 193 m 353 824 l 385 993 l 571 993 l 539 824 l 353 824 z "},"Ģ":{"ha":988,"x_min":49,"x_max":974,"o":"m 717 0 l 733 122 l 731 122 q 444 -21 628 -21 q 158 90 267 -21 q 49 401 49 201 q 114 696 49 557 q 306 924 179 835 q 590 1013 432 1013 q 857 928 751 1011 q 974 681 963 844 l 781 681 q 718 803 772 758 q 575 847 664 847 q 338 715 425 847 q 251 404 251 582 q 310 209 251 278 q 488 140 369 140 q 669 203 594 140 q 761 374 743 267 l 526 374 l 556 528 l 967 528 l 865 0 l 717 0 m 304 -365 l 317 -304 q 418 -215 407 -286 l 336 -215 l 365 -67 l 535 -67 l 507 -208 q 304 -365 481 -349 z "},"ģ":{"ha":765,"x_min":4,"x_max":774,"o":"m 303 -243 q 101 -188 186 -243 q 4 -21 17 -133 l 193 -21 q 307 -101 211 -101 q 461 49 433 -101 l 475 121 l 471 121 q 392 62 431 81 q 296 43 354 43 q 101 124 175 43 q 28 333 28 204 q 124 615 28 497 q 375 732 219 732 q 575 626 519 732 l 578 626 l 594 713 l 774 713 l 642 31 q 540 -164 618 -93 q 303 -243 456 -243 m 350 193 q 487 262 435 193 q 538 424 539 331 q 499 538 536 494 q 396 582 463 582 q 263 514 313 582 q 213 347 213 446 q 248 235 213 278 q 350 193 283 193 m 589 1133 l 576 1072 q 475 983 486 1054 l 557 983 l 528 835 l 358 835 l 386 976 q 589 1133 413 1117 z "},"Ĥ":{"ha":913,"x_min":6,"x_max":960,"o":"m 6 0 l 197 993 l 396 993 l 321 603 l 686 603 l 761 993 l 960 993 l 768 0 l 569 0 l 654 439 l 289 439 l 204 0 l 6 0 m 349 1046 l 503 1204 l 703 1204 l 807 1046 l 650 1046 l 599 1128 l 596 1128 l 515 1046 l 349 1046 z "},"ĥ":{"ha":744,"x_min":-10,"x_max":731,"o":"m 368 993 l 296 614 l 300 614 q 394 704 346 676 q 515 732 442 732 q 676 653 622 732 q 707 450 731 574 l 621 0 l 435 0 l 518 428 q 506 536 532 499 q 421 574 481 574 q 311 522 356 574 q 251 389 267 471 l 176 0 l -10 0 l 182 993 l 368 993 m 263 1046 l 417 1204 l 617 1204 l 721 1046 l 564 1046 l 513 1128 l 510 1128 l 429 1046 l 263 1046 z "},"Ħ":{"ha":913,"x_min":6,"x_max":1007,"o":"m 63 708 l 86 824 l 164 824 l 197 993 l 396 993 l 363 824 l 728 824 l 761 993 l 960 993 l 926 824 l 1007 824 l 983 708 l 904 708 l 768 0 l 569 0 l 654 439 l 289 439 l 204 0 l 6 0 l 142 708 l 63 708 m 321 603 l 686 603 l 706 708 l 340 708 l 321 603 z "},"ħ":{"ha":744,"x_min":-10,"x_max":731,"o":"m 368 993 l 350 901 l 532 901 l 511 793 l 329 793 l 296 614 l 300 614 q 394 704 346 676 q 515 732 442 732 q 676 653 622 732 q 707 450 731 574 l 621 0 l 435 0 l 518 428 q 506 536 532 499 q 421 574 481 574 q 311 522 356 574 q 251 389 267 471 l 176 0 l -10 0 l 143 793 l 72 793 l 93 901 l 164 901 l 182 993 l 368 993 z "},"Ĩ":{"ha":351,"x_min":7,"x_max":529,"o":"m 7 0 l 199 993 l 397 993 l 206 0 l 7 0 m 386 1049 q 299 1072 350 1049 q 235 1094 249 1094 q 193 1051 203 1094 l 94 1051 q 144 1173 107 1131 q 233 1215 181 1215 q 321 1191 271 1215 q 385 1167 371 1167 q 431 1210 417 1167 l 529 1210 q 480 1092 517 1136 q 386 1049 443 1049 z "},"ĩ":{"ha":306,"x_min":-10,"x_max":438,"o":"m -10 0 l 128 713 l 314 713 l 176 0 l -10 0 m 308 799 q 233 822 275 799 q 183 844 190 844 q 146 801 153 844 l 51 801 q 94 923 60 881 q 175 965 128 965 q 251 941 208 965 q 304 917 294 917 q 343 960 332 917 l 438 960 q 396 843 431 888 q 308 799 361 799 z "},"Ī":{"ha":351,"x_min":7,"x_max":522,"o":"m 7 0 l 199 993 l 397 993 l 206 0 l 7 0 m 108 1058 l 133 1190 l 522 1190 l 497 1058 l 108 1058 z "},"ī":{"ha":306,"x_min":-10,"x_max":435,"o":"m -10 0 l 128 713 l 314 713 l 176 0 l -10 0 m 76 822 l 101 954 l 435 954 l 410 822 l 76 822 z "},"Ĭ":{"ha":351,"x_min":7,"x_max":529,"o":"m 7 0 l 199 993 l 397 993 l 206 0 l 7 0 m 318 1040 q 179 1092 229 1040 q 128 1225 129 1143 l 233 1225 q 322 1158 238 1158 q 422 1225 401 1158 l 529 1225 q 457 1091 513 1142 q 318 1040 401 1040 z "},"ĭ":{"ha":306,"x_min":-10,"x_max":456,"o":"m -10 0 l 128 713 l 314 713 l 176 0 l -10 0 m 244 796 q 106 847 156 796 q 54 981 56 899 l 160 981 q 249 914 164 914 q 349 981 328 914 l 456 981 q 383 847 439 897 q 244 796 328 796 z "},"Į":{"ha":351,"x_min":-46,"x_max":397,"o":"m 7 0 l 199 993 l 397 993 l 207 7 q 101 -101 101 -51 q 144 -133 101 -133 q 183 -125 161 -133 l 186 -125 l 165 -231 q 97 -242 138 -242 q -4 -215 38 -242 q -46 -135 -46 -187 q 57 0 -46 -53 l 7 0 z "},"į":{"ha":306,"x_min":-71,"x_max":368,"o":"m -10 0 l 128 713 l 314 713 l 178 6 q 76 -101 76 -58 q 119 -133 76 -133 q 158 -125 136 -133 l 161 -125 l 140 -231 q 72 -242 113 -242 q -29 -215 13 -242 q -71 -135 -71 -187 q 47 0 -71 -56 l -10 0 m 150 824 l 182 993 l 368 993 l 336 824 l 150 824 z "},"İ":{"ha":351,"x_min":7,"x_max":432,"o":"m 7 0 l 199 993 l 397 993 l 206 0 l 7 0 m 213 1046 l 246 1210 l 432 1210 l 399 1046 l 213 1046 z "},"ı":{"ha":306,"x_min":-10,"x_max":314,"o":"m -10 0 l 128 713 l 314 713 l 176 0 l -10 0 z "},"Ĳ":{"ha":1049,"x_min":7,"x_max":1107,"o":"m 7 0 l 199 993 l 397 993 l 206 0 l 7 0 m 633 -17 q 403 59 485 -17 q 353 292 322 135 l 368 369 l 546 369 l 531 290 q 636 143 503 143 q 728 176 697 143 q 771 274 758 208 l 910 993 l 1107 993 l 965 257 q 861 58 942 132 q 633 -17 781 -17 z "},"ĳ":{"ha":611,"x_min":-10,"x_max":674,"o":"m -10 0 l 128 713 l 314 713 l 176 0 l -10 0 m 150 824 l 182 993 l 368 993 l 336 824 l 150 824 m 260 -235 q 146 -221 196 -235 l 171 -87 q 255 -78 228 -90 q 290 -25 282 -65 l 433 713 l 619 713 l 472 -44 q 399 -193 450 -151 q 260 -235 344 -235 m 456 824 l 488 993 l 674 993 l 642 824 l 456 824 z "},"Ĵ":{"ha":703,"x_min":-24,"x_max":893,"o":"m 288 -17 q 58 59 139 -17 q 7 292 -24 135 l 22 369 l 200 369 l 185 290 q 290 143 157 143 q 382 176 351 143 q 425 274 413 208 l 564 993 l 761 993 l 619 257 q 515 58 596 132 q 288 -17 435 -17 m 435 1046 l 589 1204 l 789 1204 l 893 1046 l 736 1046 l 685 1128 l 682 1128 l 601 1046 l 435 1046 z "},"ĵ":{"ha":306,"x_min":-160,"x_max":425,"o":"m 38 807 l 163 982 l 351 982 l 425 807 l 281 807 l 250 899 l 247 899 l 188 807 l 38 807 m -46 -235 q -160 -221 -110 -235 l -135 -87 q -51 -78 -78 -90 q -15 -25 -24 -65 l 128 713 l 314 713 l 167 -44 q 93 -193 144 -151 q -46 -235 39 -235 z "},"Ķ":{"ha":900,"x_min":6,"x_max":990,"o":"m 624 0 l 404 478 l 274 363 l 204 0 l 6 0 l 197 993 l 396 993 l 319 596 l 746 993 l 990 993 l 557 604 l 840 0 l 624 0 m 254 -365 l 267 -304 q 368 -215 357 -286 l 286 -215 l 315 -67 l 485 -67 l 457 -208 q 254 -365 431 -349 z "},"ķ":{"ha":726,"x_min":-10,"x_max":765,"o":"m 460 0 l 324 322 l 218 228 l 175 0 l -10 0 l 182 993 l 367 993 l 258 436 l 538 713 l 765 713 l 468 433 l 667 0 l 460 0 m 169 -365 l 182 -304 q 283 -215 272 -286 l 201 -215 l 231 -67 l 400 -67 l 372 -208 q 169 -365 346 -349 z "},"Ĺ":{"ha":743,"x_min":6,"x_max":681,"o":"m 6 0 l 197 993 l 396 993 l 236 167 l 681 167 l 649 0 l 6 0 m 528 1219 l 374 1046 l 229 1046 l 313 1219 l 528 1219 z "},"ĺ":{"ha":311,"x_min":-7,"x_max":508,"o":"m -7 0 l 185 993 l 371 993 l 179 0 l -7 0 m 508 1219 l 354 1046 l 210 1046 l 293 1219 l 508 1219 z "},"Ļ":{"ha":743,"x_min":6,"x_max":681,"o":"m 6 0 l 197 993 l 396 993 l 236 167 l 681 167 l 649 0 l 6 0 m 176 -365 l 189 -304 q 290 -215 279 -286 l 208 -215 l 238 -67 l 407 -67 l 379 -208 q 176 -365 353 -349 z "},"ļ":{"ha":311,"x_min":-72,"x_max":371,"o":"m -7 0 l 185 993 l 371 993 l 179 0 l -7 0 m -72 -365 l -60 -304 q 42 -215 31 -286 l -40 -215 l -11 -67 l 158 -67 l 131 -208 q -72 -365 104 -349 z "},"Ľ":{"ha":743,"x_min":6,"x_max":696,"o":"m 6 0 l 197 993 l 396 993 l 236 167 l 681 167 l 649 0 l 6 0 m 472 725 l 485 786 q 581 853 571 790 l 500 853 l 526 993 l 696 993 l 672 867 q 472 725 646 728 z "},"ľ":{"ha":311,"x_min":-7,"x_max":601,"o":"m -7 0 l 185 993 l 371 993 l 179 0 l -7 0 m 378 725 l 390 786 q 486 853 476 790 l 406 853 l 432 993 l 601 993 l 578 867 q 378 725 551 728 z "},"Ŀ":{"ha":743,"x_min":6,"x_max":729,"o":"m 6 0 l 197 993 l 396 993 l 236 167 l 681 167 l 649 0 l 6 0 m 490 438 l 529 639 l 729 639 l 690 438 l 490 438 z "},"ŀ":{"ha":536,"x_min":-7,"x_max":564,"o":"m 325 365 l 364 567 l 564 567 l 525 365 l 325 365 m -7 0 l 185 993 l 371 993 l 179 0 l -7 0 z "},"Ł":{"ha":750,"x_min":-22,"x_max":688,"o":"m -22 271 l 4 413 l 100 454 l 204 993 l 403 993 l 317 549 l 619 681 l 592 539 l 289 407 l 243 167 l 688 167 l 656 0 l 13 0 l 72 313 l -22 271 z "},"ł":{"ha":353,"x_min":-12,"x_max":422,"o":"m -12 296 l 15 439 l 106 499 l 201 993 l 388 993 l 319 638 l 422 706 l 394 563 l 292 494 l 196 0 l 10 0 l 78 356 l -12 296 z "},"Ń":{"ha":918,"x_min":6,"x_max":965,"o":"m 6 0 l 197 993 l 396 993 l 599 439 q 619 376 608 413 q 633 317 629 340 l 639 294 l 642 294 q 671 467 657 397 l 772 993 l 965 993 l 774 0 l 585 0 l 372 553 q 351 617 361 582 q 336 672 340 651 l 331 692 l 328 692 q 299 518 313 588 l 199 0 l 6 0 m 819 1219 l 665 1046 l 521 1046 l 604 1219 l 819 1219 z "},"ń":{"ha":744,"x_min":-10,"x_max":731,"o":"m 310 713 l 289 600 l 293 600 q 392 701 342 669 q 515 732 442 732 q 676 653 622 732 q 707 450 731 574 l 621 0 l 435 0 l 518 428 q 506 536 532 499 q 421 574 481 574 q 312 522 357 574 q 251 389 267 469 l 176 0 l -10 0 l 128 713 l 310 713 m 703 997 l 528 801 l 382 801 l 485 997 l 703 997 z "},"Ņ":{"ha":918,"x_min":6,"x_max":965,"o":"m 6 0 l 197 993 l 396 993 l 599 439 q 619 376 608 413 q 633 317 629 340 l 639 294 l 642 294 q 671 467 657 397 l 772 993 l 965 993 l 774 0 l 585 0 l 372 553 q 351 617 361 582 q 336 672 340 651 l 331 692 l 328 692 q 299 518 313 588 l 199 0 l 6 0 m 254 -362 l 267 -301 q 368 -212 357 -283 l 286 -212 l 315 -64 l 485 -64 l 457 -206 q 254 -362 431 -346 z "},"ņ":{"ha":744,"x_min":-10,"x_max":731,"o":"m 310 713 l 289 600 l 293 600 q 392 701 342 669 q 515 732 442 732 q 676 653 622 732 q 707 450 731 574 l 621 0 l 435 0 l 518 428 q 506 536 532 499 q 421 574 481 574 q 312 522 357 574 q 251 389 267 469 l 176 0 l -10 0 l 128 713 l 310 713 m 153 -365 l 165 -304 q 267 -215 256 -286 l 185 -215 l 214 -67 l 383 -67 l 356 -208 q 153 -365 329 -349 z "},"Ň":{"ha":918,"x_min":6,"x_max":965,"o":"m 6 0 l 197 993 l 396 993 l 599 439 q 619 376 608 413 q 633 317 629 340 l 639 294 l 642 294 q 671 467 657 397 l 772 993 l 965 993 l 774 0 l 585 0 l 372 553 q 351 617 361 582 q 336 672 340 651 l 331 692 l 328 692 q 299 518 313 588 l 199 0 l 6 0 m 851 1204 l 697 1046 l 497 1046 l 393 1204 l 550 1204 l 601 1122 l 604 1122 l 685 1204 l 851 1204 z "},"ň":{"ha":744,"x_min":-10,"x_max":731,"o":"m 310 713 l 289 600 l 293 600 q 392 701 342 669 q 515 732 442 732 q 676 653 622 732 q 707 450 731 574 l 621 0 l 435 0 l 518 428 q 506 536 532 499 q 421 574 481 574 q 312 522 357 574 q 251 389 267 469 l 176 0 l -10 0 l 128 713 l 310 713 m 707 975 l 551 800 l 354 800 l 249 975 l 406 975 l 457 879 l 460 879 l 540 975 l 707 975 z "},"ŉ":{"ha":744,"x_min":-10,"x_max":731,"o":"m 13 725 l 25 786 q 121 853 111 790 l 40 853 l 67 993 l 236 993 l 213 867 q 13 725 186 728 m 310 713 l 289 600 l 293 600 q 392 701 342 669 q 515 732 442 732 q 676 653 622 732 q 707 450 731 574 l 621 0 l 435 0 l 518 428 q 506 536 532 499 q 421 574 481 574 q 312 522 357 574 q 251 389 267 469 l 176 0 l -10 0 l 128 713 l 310 713 z "},"Ō":{"ha":990,"x_min":49,"x_max":994,"o":"m 481 -22 q 167 92 286 -22 q 49 404 49 207 q 83 634 49 525 q 182 828 118 743 q 346 963 246 913 q 567 1013 446 1013 q 877 894 760 1013 q 994 579 994 775 q 961 353 994 460 q 865 162 928 246 q 703 28 803 78 q 481 -22 604 -22 m 251 408 q 310 215 251 289 q 489 142 368 142 q 630 181 569 142 q 724 286 690 221 q 775 424 758 351 q 792 574 792 497 q 732 772 792 696 q 554 849 672 849 q 415 808 475 849 q 320 703 354 768 q 269 563 286 638 q 251 408 251 488 m 396 1058 l 421 1190 l 810 1190 l 785 1058 l 396 1058 z "},"ō":{"ha":779,"x_min":24,"x_max":754,"o":"m 358 -21 q 118 66 213 -21 q 24 311 24 153 q 135 608 24 485 q 425 732 247 732 q 660 646 567 732 q 754 407 754 560 q 644 104 754 229 q 358 -21 535 -21 m 210 300 q 247 170 210 221 q 363 119 285 119 q 515 208 463 119 q 568 413 568 297 q 531 540 568 489 q 415 592 493 592 q 263 503 315 592 q 210 300 210 415 m 243 822 l 268 954 l 657 954 l 632 822 l 243 822 z "},"Ŏ":{"ha":990,"x_min":49,"x_max":994,"o":"m 481 -22 q 167 92 286 -22 q 49 404 49 207 q 83 634 49 525 q 182 828 118 743 q 346 963 246 913 q 567 1013 446 1013 q 877 894 760 1013 q 994 579 994 775 q 961 353 994 460 q 865 162 928 246 q 703 28 803 78 q 481 -22 604 -22 m 251 408 q 310 215 251 289 q 489 142 368 142 q 630 181 569 142 q 724 286 690 221 q 775 424 758 351 q 792 574 792 497 q 732 772 792 696 q 554 849 672 849 q 415 808 475 849 q 320 703 354 768 q 269 563 286 638 q 251 408 251 488 m 599 1040 q 460 1092 510 1040 q 408 1225 410 1143 l 514 1225 q 603 1158 518 1158 q 703 1225 682 1158 l 810 1225 q 738 1091 793 1142 q 599 1040 682 1040 z "},"ŏ":{"ha":779,"x_min":24,"x_max":754,"o":"m 358 -21 q 118 66 213 -21 q 24 311 24 153 q 135 608 24 485 q 425 732 247 732 q 660 646 567 732 q 754 407 754 560 q 644 104 754 229 q 358 -21 535 -21 m 210 300 q 247 170 210 221 q 363 119 285 119 q 515 208 463 119 q 568 413 568 297 q 531 540 568 489 q 415 592 493 592 q 263 503 315 592 q 210 300 210 415 m 444 796 q 306 847 356 796 q 254 981 256 899 l 360 981 q 449 914 364 914 q 549 981 528 914 l 656 981 q 583 847 639 897 q 444 796 528 796 z "},"Ő":{"ha":990,"x_min":49,"x_max":994,"o":"m 481 -22 q 167 92 286 -22 q 49 404 49 207 q 83 634 49 525 q 182 828 118 743 q 346 963 246 913 q 567 1013 446 1013 q 877 894 760 1013 q 994 579 994 775 q 961 353 994 460 q 865 162 928 246 q 703 28 803 78 q 481 -22 604 -22 m 251 408 q 310 215 251 289 q 489 142 368 142 q 630 181 569 142 q 724 286 690 221 q 775 424 758 351 q 792 574 792 497 q 732 772 792 696 q 554 849 672 849 q 415 808 475 849 q 320 703 354 768 q 269 563 286 638 q 251 408 251 488 m 640 1046 l 707 1219 l 883 1219 l 754 1046 l 640 1046 m 403 1046 l 469 1219 l 644 1219 l 517 1046 l 403 1046 z "},"ő":{"ha":779,"x_min":24,"x_max":754,"o":"m 358 -21 q 118 66 213 -21 q 24 311 24 153 q 135 608 24 485 q 425 732 247 732 q 660 646 567 732 q 754 407 754 560 q 644 104 754 229 q 358 -21 535 -21 m 210 300 q 247 170 210 221 q 363 119 285 119 q 515 208 463 119 q 568 413 568 297 q 531 540 568 489 q 415 592 493 592 q 263 503 315 592 q 210 300 210 415 m 492 801 l 569 997 l 746 997 l 606 801 l 492 801 m 254 801 l 332 997 l 507 997 l 368 801 l 254 801 z "},"Œ":{"ha":1435,"x_min":49,"x_max":1500,"o":"m 414 -22 q 151 91 254 -22 q 49 404 49 204 q 107 699 49 561 q 281 924 165 836 q 546 1013 396 1013 q 804 901 722 1013 l 822 993 l 1500 993 l 1468 825 l 989 825 l 946 601 l 1365 601 l 1333 438 l 914 438 l 861 167 l 1351 167 l 1319 0 l 644 0 l 658 72 q 414 -22 543 -22 m 251 408 q 304 210 251 279 q 456 142 357 142 q 678 246 592 142 l 768 715 q 550 849 714 849 q 380 780 450 849 q 281 615 310 711 q 251 408 251 518 z "},"œ":{"ha":1274,"x_min":22,"x_max":1257,"o":"m 361 -21 q 118 67 214 -21 q 24 311 22 154 q 135 608 25 485 q 417 732 244 732 q 676 590 603 732 q 939 732 774 732 q 1118 686 1047 732 q 1227 535 1197 635 q 1238 304 1257 435 l 742 304 q 776 169 742 215 q 888 124 810 124 q 1033 213 994 124 l 1217 213 q 1107 53 1183 113 q 885 -21 1017 -18 q 631 113 697 -21 q 361 -21 533 -21 m 210 300 q 247 170 210 221 q 363 119 285 119 q 515 208 463 119 q 568 413 568 297 q 529 540 568 489 q 415 592 490 592 q 263 503 315 592 q 210 300 210 415 m 935 588 q 758 433 804 588 l 1065 433 q 1035 544 1068 501 q 935 588 1003 588 z "},"Ŕ":{"ha":885,"x_min":6,"x_max":897,"o":"m 6 0 l 197 993 l 597 993 q 819 921 740 993 q 897 729 897 849 q 679 468 897 524 l 679 464 q 801 293 801 425 q 796 190 801 267 q 790 74 790 114 q 810 10 790 19 l 810 0 l 618 0 q 603 74 603 17 q 607 172 603 106 q 611 265 611 238 q 461 399 611 399 l 281 399 l 204 0 l 6 0 m 365 832 l 311 553 l 518 553 q 647 591 596 553 q 699 707 699 629 q 567 832 699 832 l 365 832 m 757 1219 l 603 1046 l 458 1046 l 542 1219 l 757 1219 z "},"ŕ":{"ha":483,"x_min":-10,"x_max":596,"o":"m 307 713 l 285 599 l 289 599 q 476 721 361 721 q 529 715 510 721 l 497 551 l 493 551 q 243 347 288 578 l 176 0 l -10 0 l 128 713 l 307 713 m 596 997 l 421 801 l 275 801 l 378 997 l 596 997 z "},"Ŗ":{"ha":885,"x_min":6,"x_max":897,"o":"m 6 0 l 197 993 l 597 993 q 819 921 740 993 q 897 729 897 849 q 679 468 897 524 l 679 464 q 801 293 801 425 q 796 190 801 267 q 790 74 790 114 q 810 10 790 19 l 810 0 l 618 0 q 603 74 603 17 q 607 172 603 106 q 611 265 611 238 q 461 399 611 399 l 281 399 l 204 0 l 6 0 m 365 832 l 311 553 l 518 553 q 647 591 596 553 q 699 707 699 629 q 567 832 699 832 l 365 832 m 256 -365 l 268 -304 q 369 -215 358 -286 l 288 -215 l 317 -67 l 486 -67 l 458 -208 q 256 -365 432 -349 z "},"ŗ":{"ha":483,"x_min":-79,"x_max":529,"o":"m 307 713 l 285 599 l 289 599 q 476 721 361 721 q 529 715 510 721 l 497 551 l 493 551 q 243 347 288 578 l 176 0 l -10 0 l 128 713 l 307 713 m -79 -365 l -67 -304 q 35 -215 24 -286 l -47 -215 l -18 -67 l 151 -67 l 124 -208 q -79 -365 97 -349 z "},"Ř":{"ha":885,"x_min":6,"x_max":897,"o":"m 6 0 l 197 993 l 597 993 q 819 921 740 993 q 897 729 897 849 q 679 468 897 524 l 679 464 q 801 293 801 425 q 796 190 801 267 q 790 74 790 114 q 810 10 790 19 l 810 0 l 618 0 q 603 74 603 17 q 607 172 603 106 q 611 265 611 238 q 461 399 611 399 l 281 399 l 204 0 l 6 0 m 365 832 l 311 553 l 518 553 q 647 591 596 553 q 699 707 699 629 q 567 832 699 832 l 365 832 m 790 1204 l 636 1046 l 436 1046 l 332 1204 l 489 1204 l 540 1122 l 543 1122 l 624 1204 l 790 1204 z "},"ř":{"ha":483,"x_min":-10,"x_max":604,"o":"m 307 713 l 285 599 l 289 599 q 476 721 361 721 q 529 715 510 721 l 497 551 l 493 551 q 243 347 288 578 l 176 0 l -10 0 l 128 713 l 307 713 m 604 975 l 449 800 l 251 800 l 146 975 l 303 975 l 354 879 l 357 879 l 438 975 l 604 975 z "},"Ś":{"ha":850,"x_min":-6,"x_max":844,"o":"m 406 -22 q 108 60 221 -22 q 3 307 -6 143 l 196 307 q 249 178 190 218 q 411 139 307 139 q 547 172 492 139 q 601 268 601 204 q 558 351 601 319 q 386 429 515 382 q 172 542 239 482 q 106 710 106 601 q 204 931 106 851 q 468 1011 303 1011 q 740 935 635 1011 q 838 701 844 858 l 647 701 q 602 813 650 774 q 461 853 554 853 q 346 825 396 853 q 294 736 296 797 q 331 664 293 689 q 496 596 369 639 q 726 474 653 542 q 799 294 799 407 q 690 60 799 142 q 406 -22 582 -22 m 721 1219 l 567 1046 l 422 1046 l 506 1219 l 721 1219 z "},"ś":{"ha":656,"x_min":-11,"x_max":628,"o":"m 311 -21 q 85 41 174 -21 q -11 231 -3 103 l 165 231 q 207 148 171 181 q 311 115 243 115 q 428 193 428 115 q 419 225 428 211 q 383 253 410 239 q 335 274 356 267 q 263 299 314 282 q 111 376 164 332 q 58 507 58 421 q 135 672 58 613 q 336 732 211 732 q 539 671 460 732 q 628 496 618 610 l 457 496 q 418 569 450 540 q 331 599 386 599 q 255 582 286 599 q 224 528 224 565 q 227 510 224 518 q 240 494 231 501 q 257 481 249 486 q 283 469 265 476 q 315 458 301 463 q 353 445 328 454 q 397 431 379 436 q 544 351 490 399 q 599 218 599 303 q 523 42 599 104 q 311 -21 447 -21 m 611 997 l 436 801 l 290 801 l 393 997 l 611 997 z "},"Ŝ":{"ha":850,"x_min":-6,"x_max":844,"o":"m 406 -22 q 108 60 221 -22 q 3 307 -6 143 l 196 307 q 249 178 190 218 q 411 139 307 139 q 547 172 492 139 q 601 268 601 204 q 558 351 601 319 q 386 429 515 382 q 172 542 239 482 q 106 710 106 601 q 204 931 106 851 q 468 1011 303 1011 q 740 935 635 1011 q 838 701 844 858 l 647 701 q 602 813 650 774 q 461 853 554 853 q 346 825 396 853 q 294 736 296 797 q 331 664 293 689 q 496 596 369 639 q 726 474 653 542 q 799 294 799 407 q 690 60 799 142 q 406 -22 582 -22 m 274 1046 l 428 1204 l 628 1204 l 732 1046 l 575 1046 l 524 1128 l 521 1128 l 440 1046 l 274 1046 z "},"ŝ":{"ha":656,"x_min":-11,"x_max":628,"o":"m 311 -21 q 85 41 174 -21 q -11 231 -3 103 l 165 231 q 207 148 171 181 q 311 115 243 115 q 428 193 428 115 q 419 225 428 211 q 383 253 410 239 q 335 274 356 267 q 263 299 314 282 q 111 376 164 332 q 58 507 58 421 q 135 672 58 613 q 336 732 211 732 q 539 671 460 732 q 628 496 618 610 l 457 496 q 418 569 450 540 q 331 599 386 599 q 255 582 286 599 q 224 528 224 565 q 227 510 224 518 q 240 494 231 501 q 257 481 249 486 q 283 469 265 476 q 315 458 301 463 q 353 445 328 454 q 397 431 379 436 q 544 351 490 399 q 599 218 599 303 q 523 42 599 104 q 311 -21 447 -21 m 138 807 l 293 982 l 490 982 l 596 807 l 439 807 l 388 903 l 385 903 l 304 807 l 138 807 z "},"Ş":{"ha":850,"x_min":-6,"x_max":844,"o":"m 317 -267 q 167 -226 225 -267 l 196 -182 q 290 -203 238 -203 q 371 -154 371 -203 q 321 -119 371 -119 q 268 -129 297 -119 l 251 -99 l 333 -18 q 86 78 178 -4 q 3 307 -6 160 l 196 307 q 249 178 190 218 q 411 139 307 139 q 547 172 492 139 q 601 268 601 204 q 558 351 601 319 q 386 429 515 382 q 172 542 239 482 q 106 710 106 601 q 204 931 106 851 q 468 1011 303 1011 q 740 935 635 1011 q 838 701 844 858 l 647 701 q 602 813 650 774 q 461 853 554 853 q 346 825 396 853 q 294 736 296 797 q 331 664 293 689 q 496 596 369 639 q 726 474 653 542 q 799 294 799 407 q 690 60 799 142 q 406 -22 582 -22 l 349 -69 l 349 -72 q 442 -86 403 -64 q 482 -154 481 -108 q 433 -239 482 -211 q 317 -267 385 -267 z "},"ş":{"ha":656,"x_min":-11,"x_max":628,"o":"m 192 -267 q 42 -226 100 -267 l 71 -182 q 165 -203 113 -203 q 246 -154 246 -203 q 196 -119 246 -119 q 143 -129 172 -119 l 126 -99 l 215 -12 q -11 231 4 28 l 165 231 q 207 148 171 181 q 311 115 243 115 q 428 193 428 115 q 419 225 428 211 q 383 253 410 239 q 335 274 356 267 q 263 299 314 282 q 111 376 164 332 q 58 507 58 421 q 135 672 58 613 q 336 732 211 732 q 539 671 460 732 q 628 496 618 610 l 457 496 q 418 569 450 540 q 331 599 386 599 q 255 582 286 599 q 224 528 224 565 q 227 510 224 518 q 240 494 231 501 q 257 481 249 486 q 283 469 265 476 q 315 458 301 463 q 353 445 328 454 q 397 431 379 436 q 544 351 490 399 q 599 218 599 303 q 523 42 599 104 q 311 -21 447 -21 l 282 -21 l 224 -69 l 224 -72 q 317 -86 278 -64 q 357 -154 356 -108 q 308 -239 357 -211 q 192 -267 260 -267 z "},"Š":{"ha":850,"x_min":-6,"x_max":844,"o":"m 406 -22 q 108 60 221 -22 q 3 307 -6 143 l 196 307 q 249 178 190 218 q 411 139 307 139 q 547 172 492 139 q 601 268 601 204 q 558 351 601 319 q 386 429 515 382 q 172 542 239 482 q 106 710 106 601 q 204 931 106 851 q 468 1011 303 1011 q 740 935 635 1011 q 838 701 844 858 l 647 701 q 602 813 650 774 q 461 853 554 853 q 346 825 396 853 q 294 736 296 797 q 331 664 293 689 q 496 596 369 639 q 726 474 653 542 q 799 294 799 407 q 690 60 799 142 q 406 -22 582 -22 m 763 1204 l 608 1046 l 408 1046 l 304 1204 l 461 1204 l 513 1122 l 515 1122 l 596 1204 l 763 1204 z "},"š":{"ha":656,"x_min":-11,"x_max":628,"o":"m 311 -21 q 85 41 174 -21 q -11 231 -3 103 l 165 231 q 207 148 171 181 q 311 115 243 115 q 428 193 428 115 q 419 225 428 211 q 383 253 410 239 q 335 274 356 267 q 263 299 314 282 q 111 376 164 332 q 58 507 58 421 q 135 672 58 613 q 336 732 211 732 q 539 671 460 732 q 628 496 618 610 l 457 496 q 418 569 450 540 q 331 599 386 599 q 255 582 286 599 q 224 528 224 565 q 227 510 224 518 q 240 494 231 501 q 257 481 249 486 q 283 469 265 476 q 315 458 301 463 q 353 445 328 454 q 397 431 379 436 q 544 351 490 399 q 599 218 599 303 q 523 42 599 104 q 311 -21 447 -21 m 624 975 l 468 800 l 271 800 l 165 975 l 322 975 l 374 879 l 376 879 l 457 975 l 624 975 z "},"Ţ":{"ha":813,"x_min":111,"x_max":915,"o":"m 111 825 l 143 993 l 915 993 l 883 825 l 596 825 l 436 0 l 238 0 l 397 825 l 111 825 m 178 -365 l 190 -304 q 292 -215 281 -286 l 210 -215 l 239 -67 l 408 -67 l 381 -208 q 178 -365 354 -349 z "},"ţ":{"ha":447,"x_min":36,"x_max":479,"o":"m 64 588 l 88 713 l 178 713 l 221 935 l 403 935 l 360 713 l 479 713 l 456 588 l 336 588 l 264 217 q 317 139 249 139 l 372 142 l 346 3 q 261 -1 299 -1 q 103 45 149 -1 q 78 199 57 92 l 154 588 l 64 588 m 36 -365 l 49 -304 q 150 -215 139 -286 l 68 -215 l 97 -67 l 267 -67 l 239 -208 q 36 -365 213 -349 z "},"Ť":{"ha":813,"x_min":111,"x_max":915,"o":"m 111 825 l 143 993 l 915 993 l 883 825 l 596 825 l 436 0 l 238 0 l 397 825 l 111 825 m 789 1204 l 635 1046 l 435 1046 l 331 1204 l 488 1204 l 539 1122 l 542 1122 l 622 1204 l 789 1204 z "},"ť":{"ha":447,"x_min":57,"x_max":642,"o":"m 422 749 l 435 810 q 529 868 521 814 l 449 868 l 472 993 l 642 993 l 621 882 q 422 749 596 751 m 64 588 l 88 713 l 178 713 l 221 935 l 403 935 l 360 713 l 479 713 l 456 588 l 336 588 l 264 217 q 317 139 249 139 l 372 142 l 346 3 q 261 -1 299 -1 q 103 45 149 -1 q 78 199 57 92 l 154 588 l 64 588 z "},"Ŧ":{"ha":813,"x_min":111,"x_max":915,"o":"m 111 825 l 143 993 l 915 993 l 883 825 l 596 825 l 544 558 l 739 558 l 715 440 l 521 440 l 436 0 l 238 0 l 322 440 l 135 440 l 158 558 l 346 558 l 397 825 l 111 825 z "},"ŧ":{"ha":447,"x_min":21,"x_max":479,"o":"m 64 588 l 88 713 l 178 713 l 221 935 l 403 935 l 360 713 l 479 713 l 456 588 l 336 588 l 315 486 l 436 486 l 414 378 l 294 378 l 264 217 q 317 139 249 139 l 372 142 l 346 3 q 261 -1 299 -1 q 103 45 149 -1 q 78 199 57 92 l 113 378 l 21 378 l 43 486 l 133 486 l 154 588 l 64 588 z "},"Ũ":{"ha":892,"x_min":29,"x_max":947,"o":"m 415 -17 q 126 76 224 -17 q 64 349 29 169 l 189 993 l 388 993 l 260 333 q 419 143 222 143 q 618 308 585 143 l 750 993 l 947 993 l 811 290 q 415 -17 750 -17 m 664 1049 q 577 1072 628 1049 q 513 1094 526 1094 q 471 1051 481 1094 l 372 1051 q 422 1173 385 1131 q 511 1215 458 1215 q 599 1191 549 1215 q 663 1167 649 1167 q 708 1210 694 1167 l 807 1210 q 758 1092 794 1136 q 664 1049 721 1049 z "},"ũ":{"ha":736,"x_min":8,"x_max":742,"o":"m 425 0 l 444 101 l 440 101 q 228 -19 354 -19 q 61 56 114 -19 q 33 263 8 132 l 119 713 l 306 713 l 222 285 q 311 138 193 138 q 419 187 375 138 q 481 324 464 236 l 556 713 l 742 713 l 604 0 l 425 0 m 529 799 q 446 822 493 799 q 385 844 399 844 q 343 801 353 844 l 244 801 q 294 923 258 881 q 383 965 331 965 q 467 941 421 965 q 528 917 514 917 q 574 960 560 917 l 672 960 q 623 842 660 886 q 529 799 586 799 z "},"Ū":{"ha":892,"x_min":29,"x_max":947,"o":"m 415 -17 q 126 76 224 -17 q 64 349 29 169 l 189 993 l 388 993 l 260 333 q 419 143 222 143 q 618 308 585 143 l 750 993 l 947 993 l 811 290 q 415 -17 750 -17 m 385 1058 l 410 1190 l 799 1190 l 774 1058 l 385 1058 z "},"ū":{"ha":736,"x_min":8,"x_max":742,"o":"m 425 0 l 444 101 l 440 101 q 228 -19 354 -19 q 61 56 114 -19 q 33 263 8 132 l 119 713 l 306 713 l 222 285 q 311 138 193 138 q 419 187 375 138 q 481 324 464 236 l 556 713 l 742 713 l 604 0 l 425 0 m 253 822 l 278 954 l 667 954 l 642 822 l 253 822 z "},"Ŭ":{"ha":892,"x_min":29,"x_max":947,"o":"m 415 -17 q 126 76 224 -17 q 64 349 29 169 l 189 993 l 388 993 l 260 333 q 419 143 222 143 q 618 308 585 143 l 750 993 l 947 993 l 811 290 q 415 -17 750 -17 m 575 1040 q 436 1092 486 1040 q 385 1225 386 1143 l 490 1225 q 579 1158 494 1158 q 679 1225 658 1158 l 786 1225 q 714 1091 769 1142 q 575 1040 658 1040 z "},"ŭ":{"ha":736,"x_min":8,"x_max":742,"o":"m 425 0 l 444 101 l 440 101 q 228 -19 354 -19 q 61 56 114 -19 q 33 263 8 132 l 119 713 l 306 713 l 222 285 q 311 138 193 138 q 419 187 375 138 q 481 324 464 236 l 556 713 l 742 713 l 604 0 l 425 0 m 446 796 q 307 847 357 796 q 256 981 257 899 l 361 981 q 450 914 365 914 q 550 981 529 914 l 657 981 q 585 847 640 897 q 446 796 529 796 z "},"Ů":{"ha":892,"x_min":29,"x_max":947,"o":"m 415 -17 q 126 76 224 -17 q 64 349 29 169 l 189 993 l 388 993 l 260 333 q 419 143 222 143 q 618 308 585 143 l 750 993 l 947 993 l 811 290 q 415 -17 750 -17 m 669 1069 q 649 1050 669 1069 q 574 1031 629 1031 q 478 1069 518 1031 q 439 1161 439 1107 q 478 1253 439 1215 q 574 1292 518 1292 q 669 1253 629 1292 q 708 1161 708 1215 q 669 1069 708 1107 m 529 1115 q 538 1105 529 1115 q 574 1096 547 1096 q 618 1115 600 1096 q 636 1161 636 1133 q 618 1208 636 1189 q 574 1226 600 1226 q 529 1208 547 1226 q 511 1161 511 1189 q 529 1115 511 1133 z "},"ů":{"ha":736,"x_min":8,"x_max":742,"o":"m 425 0 l 444 101 l 440 101 q 228 -19 354 -19 q 61 56 114 -19 q 33 263 8 132 l 119 713 l 306 713 l 222 285 q 311 138 193 138 q 419 187 375 138 q 481 324 464 236 l 556 713 l 742 713 l 604 0 l 425 0 m 542 817 q 523 798 542 817 q 447 779 503 779 q 352 817 392 779 q 313 910 313 856 q 352 1002 313 964 q 447 1040 392 1040 q 542 1002 503 1040 q 582 910 582 964 q 542 817 582 856 m 403 863 q 412 854 403 863 q 447 844 421 844 q 492 863 474 844 q 510 910 510 882 q 492 956 510 938 q 447 975 474 975 q 403 956 421 975 q 385 910 385 938 q 403 863 385 882 z "},"Ű":{"ha":892,"x_min":29,"x_max":947,"o":"m 415 -17 q 126 76 224 -17 q 64 349 29 169 l 189 993 l 388 993 l 260 333 q 419 143 222 143 q 618 308 585 143 l 750 993 l 947 993 l 811 290 q 415 -17 750 -17 m 621 1046 l 688 1219 l 864 1219 l 735 1046 l 621 1046 m 383 1046 l 450 1219 l 625 1219 l 497 1046 l 383 1046 z "},"ű":{"ha":736,"x_min":8,"x_max":743,"o":"m 425 0 l 444 101 l 440 101 q 228 -19 354 -19 q 61 56 114 -19 q 33 263 8 132 l 119 713 l 306 713 l 222 285 q 311 138 193 138 q 419 187 375 138 q 481 324 464 236 l 556 713 l 742 713 l 604 0 l 425 0 m 489 801 l 567 997 l 743 997 l 603 801 l 489 801 m 251 801 l 329 997 l 504 997 l 365 801 l 251 801 z "},"Ų":{"ha":892,"x_min":32,"x_max":947,"o":"m 428 -242 q 326 -215 368 -242 q 285 -135 285 -187 q 372 -15 285 -62 q 117 88 201 -4 q 64 349 32 179 l 189 993 l 388 993 l 260 333 q 419 143 222 143 q 618 308 585 143 l 750 993 l 947 993 l 811 290 q 738 117 790 181 q 600 15 685 54 q 549 -5 589 10 q 490 -29 510 -19 q 451 -58 471 -39 q 432 -101 432 -78 q 475 -133 432 -133 q 514 -125 492 -133 l 517 -125 l 496 -231 q 428 -242 468 -242 z "},"ų":{"ha":736,"x_min":8,"x_max":742,"o":"m 425 0 l 444 101 l 440 101 q 228 -19 354 -19 q 61 56 114 -19 q 33 263 8 132 l 119 713 l 306 713 l 222 285 q 311 138 193 138 q 419 187 375 138 q 481 324 464 236 l 556 713 l 742 713 l 606 6 q 504 -101 504 -58 q 547 -133 504 -133 q 586 -125 564 -133 l 589 -125 l 568 -231 q 500 -242 540 -242 q 399 -215 440 -242 q 357 -135 357 -187 q 475 0 357 -56 l 425 0 z "},"Ŵ":{"ha":1239,"x_min":122,"x_max":1349,"o":"m 221 0 l 122 993 l 324 993 l 353 500 l 357 281 l 360 281 q 443 499 406 404 l 640 993 l 828 993 l 851 500 l 857 281 l 860 281 q 947 501 910 411 l 1153 993 l 1349 993 l 904 0 l 719 0 l 690 535 l 686 718 l 683 718 q 618 535 651 617 l 403 0 l 221 0 m 507 1046 l 661 1204 l 861 1204 l 965 1046 l 808 1046 l 757 1128 l 754 1128 l 674 1046 l 507 1046 z "},"ŵ":{"ha":1011,"x_min":74,"x_max":1069,"o":"m 154 0 l 74 713 l 254 713 l 281 382 l 288 246 l 290 246 q 346 383 321 325 l 489 713 l 647 713 l 686 383 l 696 246 l 699 246 q 753 382 729 324 l 886 713 l 1069 713 l 751 0 l 585 0 l 547 350 l 535 489 l 532 489 q 476 350 501 407 l 322 0 l 154 0 m 342 807 l 497 982 l 694 982 l 800 807 l 643 807 l 592 903 l 589 903 l 508 807 l 342 807 z "},"Ŷ":{"ha":843,"x_min":125,"x_max":960,"o":"m 244 0 l 319 389 l 125 993 l 329 993 l 414 708 l 450 560 l 453 560 q 543 703 500 640 l 744 993 l 960 993 l 517 383 l 443 0 l 244 0 m 307 1046 l 461 1204 l 661 1204 l 765 1046 l 608 1046 l 557 1128 l 554 1128 l 474 1046 l 307 1046 z "},"ŷ":{"ha":678,"x_min":-18,"x_max":736,"o":"m -18 -233 l 11 -86 l 71 -86 q 194 46 194 -86 q 171 206 194 94 l 68 713 l 263 713 l 311 389 l 332 228 l 335 228 q 400 389 369 322 l 547 713 l 736 713 l 368 -35 q 256 -190 314 -146 q 99 -233 199 -233 l -18 -233 m 172 807 l 328 982 l 525 982 l 631 807 l 474 807 l 422 903 l 419 903 l 339 807 l 172 807 z "},"Ÿ":{"ha":843,"x_min":125,"x_max":960,"o":"m 244 0 l 319 389 l 125 993 l 329 993 l 414 708 l 450 560 l 453 560 q 543 703 500 640 l 744 993 l 960 993 l 517 383 l 443 0 l 244 0 m 592 1046 l 624 1204 l 799 1204 l 767 1046 l 592 1046 m 315 1046 l 347 1204 l 522 1204 l 490 1046 l 315 1046 z "},"Ź":{"ha":842,"x_min":-32,"x_max":914,"o":"m -32 0 l -4 146 l 646 826 l 646 831 l 163 831 l 193 993 l 914 993 l 883 831 l 254 169 l 254 165 l 761 165 l 731 0 l -32 0 m 781 1219 l 626 1046 l 482 1046 l 565 1219 l 781 1219 z "},"ź":{"ha":640,"x_min":-37,"x_max":661,"o":"m -37 0 l -10 142 l 411 563 l 411 567 l 94 567 l 124 713 l 661 713 l 632 564 l 219 153 l 219 149 l 575 149 l 546 0 l -37 0 m 649 997 l 474 801 l 328 801 l 431 997 l 649 997 z "},"Ż":{"ha":842,"x_min":-32,"x_max":914,"o":"m -32 0 l -4 146 l 646 826 l 646 831 l 163 831 l 193 993 l 914 993 l 883 831 l 254 169 l 254 165 l 761 165 l 731 0 l -32 0 m 460 1046 l 493 1210 l 679 1210 l 646 1046 l 460 1046 z "},"ż":{"ha":640,"x_min":-37,"x_max":661,"o":"m -37 0 l -10 142 l 411 563 l 411 567 l 94 567 l 124 713 l 661 713 l 632 564 l 219 153 l 219 149 l 575 149 l 546 0 l -37 0 m 311 824 l 343 993 l 529 993 l 497 824 l 311 824 z "},"Ž":{"ha":842,"x_min":-32,"x_max":914,"o":"m -32 0 l -4 146 l 646 826 l 646 831 l 163 831 l 193 993 l 914 993 l 883 831 l 254 169 l 254 165 l 761 165 l 731 0 l -32 0 m 815 1204 l 661 1046 l 461 1046 l 357 1204 l 514 1204 l 565 1122 l 568 1122 l 649 1204 l 815 1204 z "},"ž":{"ha":640,"x_min":-37,"x_max":661,"o":"m -37 0 l -10 142 l 411 563 l 411 567 l 94 567 l 124 713 l 661 713 l 632 564 l 219 153 l 219 149 l 575 149 l 546 0 l -37 0 m 658 975 l 503 800 l 306 800 l 200 975 l 357 975 l 408 879 l 411 879 l 492 975 l 658 975 z "},"ƒ":{"ha":544,"x_min":-64,"x_max":606,"o":"m 86 574 l 207 574 l 251 772 q 335 922 272 871 q 606 964 418 989 l 579 826 q 478 819 508 833 q 435 753 447 806 l 394 574 l 536 574 l 511 449 l 367 449 l 263 -25 q 204 -150 244 -106 q -64 -208 129 -235 l -39 -79 q 42 -71 17 -83 q 79 -6 68 -58 l 179 449 l 61 449 l 86 574 z "},"Ǽ":{"ha":1307,"x_min":-64,"x_max":1372,"o":"m 499 0 l 539 213 l 244 213 l 139 0 l -64 0 l 447 993 l 1372 993 l 1340 825 l 857 825 l 814 601 l 1238 601 l 1206 438 l 782 438 l 729 167 l 1224 167 l 1192 0 l 499 0 m 549 825 l 317 358 l 568 358 l 657 825 l 549 825 m 1161 1219 l 1007 1046 l 863 1046 l 946 1219 l 1161 1219 z "},"ǽ":{"ha":1188,"x_min":-3,"x_max":1171,"o":"m 401 731 q 628 646 565 731 q 853 732 725 732 q 1032 686 961 732 q 1141 535 1111 635 q 1151 304 1171 435 l 656 304 q 690 169 656 215 q 801 124 724 124 q 947 213 908 124 l 1131 213 q 1021 53 1097 113 q 799 -21 931 -18 q 525 117 604 -21 q 247 -17 431 -17 q 67 35 136 -17 q -3 193 -3 88 q 15 289 -3 249 q 60 353 33 329 q 133 394 88 378 q 219 417 178 410 q 321 428 261 424 q 468 453 431 438 q 506 518 506 468 q 394 597 506 597 q 249 496 272 597 l 82 496 q 183 669 100 607 q 401 731 265 731 m 176 210 q 206 138 176 163 q 283 113 235 113 q 401 151 354 113 q 460 251 447 189 l 479 349 q 343 313 439 331 q 301 307 333 311 q 254 299 269 303 q 217 285 239 294 q 186 256 196 275 q 176 210 176 238 m 849 588 q 672 433 718 588 l 979 433 q 949 544 982 501 q 849 588 917 588 m 918 997 l 743 801 l 597 801 l 700 997 l 918 997 z "},"Ǿ":{"ha":990,"x_min":25,"x_max":1003,"o":"m 481 -22 q 186 75 303 -22 l 86 -31 l 25 29 l 126 139 q 49 404 49 244 q 83 634 49 525 q 181 828 117 743 q 344 963 244 913 q 564 1013 443 1013 q 853 915 739 1013 l 939 1008 l 1003 949 l 913 851 q 994 579 994 742 q 961 353 994 460 q 865 162 928 246 q 703 28 803 78 q 481 -22 604 -22 m 793 574 q 775 704 793 651 l 308 207 q 489 142 367 142 q 666 212 594 142 q 765 376 738 282 q 793 574 793 469 m 250 408 q 265 286 250 333 l 729 783 q 554 849 671 849 q 415 808 475 849 q 319 703 354 768 q 267 563 285 638 q 250 408 250 488 m 818 1219 l 664 1046 l 519 1046 l 603 1219 l 818 1219 z "},"ǿ":{"ha":779,"x_min":8,"x_max":771,"o":"m 360 -21 q 149 40 235 -21 l 63 -50 l 8 1 l 94 92 q 24 311 24 178 q 135 608 24 485 q 425 732 247 732 q 636 667 550 732 l 717 751 l 771 700 l 689 614 q 754 407 754 531 q 644 105 754 231 q 360 -21 535 -21 m 207 300 q 217 222 207 253 l 526 550 q 415 592 485 592 q 261 503 315 592 q 207 300 207 415 m 571 413 q 563 479 571 450 l 256 154 q 363 119 294 119 q 517 208 463 119 q 571 413 571 297 m 686 997 l 511 801 l 365 801 l 468 997 l 686 997 z "},"Ș":{"ha":850,"x_min":-6,"x_max":844,"o":"m 406 -22 q 108 60 221 -22 q 3 307 -6 143 l 196 307 q 249 178 190 218 q 411 139 307 139 q 547 172 492 139 q 601 268 601 204 q 558 351 601 319 q 386 429 515 382 q 172 542 239 482 q 106 710 106 601 q 204 931 106 851 q 468 1011 303 1011 q 740 935 635 1011 q 838 701 844 858 l 647 701 q 602 813 650 774 q 461 853 554 853 q 346 825 396 853 q 294 736 296 797 q 331 664 293 689 q 496 596 369 639 q 726 474 653 542 q 799 294 799 407 q 690 60 799 142 q 406 -22 582 -22 m 233 -365 l 246 -304 q 347 -215 336 -286 l 265 -215 l 294 -67 l 464 -67 l 436 -208 q 233 -365 410 -349 z "},"ș":{"ha":656,"x_min":-11,"x_max":628,"o":"m 311 -21 q 85 41 174 -21 q -11 231 -3 103 l 165 231 q 207 148 171 181 q 311 115 243 115 q 428 193 428 115 q 419 225 428 211 q 383 253 410 239 q 335 274 356 267 q 263 299 314 282 q 111 376 164 332 q 58 507 58 421 q 135 672 58 613 q 336 732 211 732 q 539 671 460 732 q 628 496 618 610 l 457 496 q 418 569 450 540 q 331 599 386 599 q 255 582 286 599 q 224 528 224 565 q 227 510 224 518 q 240 494 231 501 q 257 481 249 486 q 283 469 265 476 q 315 458 301 463 q 353 445 328 454 q 397 431 379 436 q 544 351 490 399 q 599 218 599 303 q 523 42 599 104 q 311 -21 447 -21 m 132 -365 l 144 -304 q 246 -215 235 -286 l 164 -215 l 193 -67 l 363 -67 l 335 -208 q 132 -365 308 -349 z "},"Ț":{"ha":813,"x_min":111,"x_max":915,"o":"m 111 825 l 143 993 l 915 993 l 883 825 l 596 825 l 436 0 l 238 0 l 397 825 l 111 825 m 178 -365 l 190 -304 q 292 -215 281 -286 l 210 -215 l 239 -67 l 408 -67 l 381 -208 q 178 -365 354 -349 z "},"ț":{"ha":447,"x_min":36,"x_max":479,"o":"m 64 588 l 88 713 l 178 713 l 221 935 l 403 935 l 360 713 l 479 713 l 456 588 l 336 588 l 264 217 q 317 139 249 139 l 372 142 l 346 3 q 261 -1 299 -1 q 103 45 149 -1 q 78 199 57 92 l 154 588 l 64 588 m 36 -365 l 49 -304 q 150 -215 139 -286 l 68 -215 l 97 -67 l 267 -67 l 239 -208 q 36 -365 213 -349 z "},"ȷ":{"ha":306,"x_min":-160,"x_max":314,"o":"m -46 -235 q -160 -221 -110 -235 l -135 -87 q -51 -78 -78 -90 q -15 -25 -24 -65 l 128 713 l 314 713 l 167 -44 q 93 -193 144 -151 q -46 -235 39 -235 z "},"ˆ":{"ha":683,"x_min":201,"x_max":660,"o":"m 201 807 l 357 982 l 554 982 l 660 807 l 503 807 l 451 903 l 449 903 l 368 807 l 201 807 z "},"ˇ":{"ha":683,"x_min":228,"x_max":686,"o":"m 686 975 l 531 800 l 333 800 l 228 975 l 385 975 l 436 879 l 439 879 l 519 975 l 686 975 z "},"ˉ":{"ha":683,"x_min":247,"x_max":661,"o":"m 247 822 l 272 954 l 661 954 l 636 822 l 247 822 z "},"˘":{"ha":683,"x_min":279,"x_max":681,"o":"m 469 796 q 331 847 381 796 q 279 981 281 899 l 385 981 q 474 914 389 914 q 574 981 553 914 l 681 981 q 608 847 664 897 q 469 796 553 796 z "},"˙":{"ha":683,"x_min":339,"x_max":557,"o":"m 339 824 l 371 993 l 557 993 l 525 824 l 339 824 z "},"˚":{"ha":683,"x_min":314,"x_max":583,"o":"m 544 817 q 524 798 544 817 q 449 779 504 779 q 353 817 393 779 q 314 910 314 856 q 353 1002 314 964 q 449 1040 393 1040 q 544 1002 504 1040 q 583 910 583 964 q 544 817 583 856 m 404 863 q 413 854 404 863 q 449 844 422 844 q 493 863 475 844 q 511 910 511 882 q 493 956 511 938 q 449 975 475 975 q 404 956 422 975 q 386 910 386 938 q 404 863 386 882 z "},"˛":{"ha":683,"x_min":183,"x_max":424,"o":"m 326 -242 q 225 -215 267 -242 q 183 -135 183 -187 q 301 0 183 -56 l 424 0 q 331 -101 331 -60 q 374 -133 331 -133 q 413 -125 390 -133 l 415 -125 l 394 -231 q 326 -242 367 -242 z "},"˜":{"ha":683,"x_min":229,"x_max":657,"o":"m 514 799 q 431 822 478 799 q 369 844 383 844 q 328 801 338 844 l 229 801 q 279 923 243 881 q 368 965 315 965 q 452 941 406 965 q 513 917 499 917 q 558 960 544 917 l 657 960 q 608 842 644 886 q 514 799 571 799 z "},"˝":{"ha":683,"x_min":242,"x_max":733,"o":"m 479 801 l 557 997 l 733 997 l 593 801 l 479 801 m 242 801 l 319 997 l 494 997 l 356 801 l 242 801 z "},"π":{"ha":835,"x_min":57,"x_max":875,"o":"m 351 590 l 238 0 l 57 0 l 171 590 l 65 590 l 89 713 l 875 713 l 851 590 l 742 590 l 669 217 q 680 151 660 168 q 749 140 700 133 l 722 3 q 656 -1 676 -1 q 483 197 443 -1 l 560 590 l 351 590 z "},"Ẁ":{"ha":1239,"x_min":122,"x_max":1349,"o":"m 221 0 l 122 993 l 324 993 l 353 500 l 357 281 l 360 281 q 443 499 406 404 l 640 993 l 828 993 l 851 500 l 857 281 l 860 281 q 947 501 910 411 l 1153 993 l 1349 993 l 904 0 l 719 0 l 690 535 l 686 718 l 683 718 q 618 535 651 617 l 403 0 l 221 0 m 667 1046 l 567 1219 l 768 1219 l 808 1046 l 667 1046 z "},"ẁ":{"ha":1011,"x_min":74,"x_max":1069,"o":"m 154 0 l 74 713 l 254 713 l 281 382 l 288 246 l 290 246 q 346 383 321 325 l 489 713 l 647 713 l 686 383 l 696 246 l 699 246 q 753 382 729 324 l 886 713 l 1069 713 l 751 0 l 585 0 l 547 350 l 535 489 l 532 489 q 476 350 501 407 l 322 0 l 154 0 m 500 801 l 382 997 l 585 997 l 642 801 l 500 801 z "},"Ẃ":{"ha":1239,"x_min":122,"x_max":1349,"o":"m 221 0 l 122 993 l 324 993 l 353 500 l 357 281 l 360 281 q 443 499 406 404 l 640 993 l 828 993 l 851 500 l 857 281 l 860 281 q 947 501 910 411 l 1153 993 l 1349 993 l 904 0 l 719 0 l 690 535 l 686 718 l 683 718 q 618 535 651 617 l 403 0 l 221 0 m 969 1219 l 815 1046 l 671 1046 l 754 1219 l 969 1219 z "},"ẃ":{"ha":1011,"x_min":74,"x_max":1069,"o":"m 154 0 l 74 713 l 254 713 l 281 382 l 288 246 l 290 246 q 346 383 321 325 l 489 713 l 647 713 l 686 383 l 696 246 l 699 246 q 753 382 729 324 l 886 713 l 1069 713 l 751 0 l 585 0 l 547 350 l 535 489 l 532 489 q 476 350 501 407 l 322 0 l 154 0 m 832 997 l 657 801 l 511 801 l 614 997 l 832 997 z "},"Ẅ":{"ha":1239,"x_min":122,"x_max":1349,"o":"m 221 0 l 122 993 l 324 993 l 353 500 l 357 281 l 360 281 q 443 499 406 404 l 640 993 l 828 993 l 851 500 l 857 281 l 860 281 q 947 501 910 411 l 1153 993 l 1349 993 l 904 0 l 719 0 l 690 535 l 686 718 l 683 718 q 618 535 651 617 l 403 0 l 221 0 m 786 1046 l 818 1204 l 993 1204 l 961 1046 l 786 1046 m 510 1046 l 542 1204 l 717 1204 l 685 1046 l 510 1046 z "},"ẅ":{"ha":1011,"x_min":74,"x_max":1069,"o":"m 154 0 l 74 713 l 254 713 l 281 382 l 288 246 l 290 246 q 346 383 321 325 l 489 713 l 647 713 l 686 383 l 696 246 l 699 246 q 753 382 729 324 l 886 713 l 1069 713 l 751 0 l 585 0 l 547 350 l 535 489 l 532 489 q 476 350 501 407 l 322 0 l 154 0 m 642 807 l 674 965 l 846 965 l 814 807 l 642 807 m 340 807 l 372 965 l 544 965 l 513 807 l 340 807 z "},"Ỳ":{"ha":843,"x_min":125,"x_max":960,"o":"m 244 0 l 319 389 l 125 993 l 329 993 l 414 708 l 450 560 l 453 560 q 543 703 500 640 l 744 993 l 960 993 l 517 383 l 443 0 l 244 0 m 481 1046 l 381 1219 l 582 1219 l 622 1046 l 481 1046 z "},"ỳ":{"ha":678,"x_min":-18,"x_max":736,"o":"m -18 -233 l 11 -86 l 71 -86 q 194 46 194 -86 q 171 206 194 94 l 68 713 l 263 713 l 311 389 l 332 228 l 335 228 q 400 389 369 322 l 547 713 l 736 713 l 368 -35 q 256 -190 314 -146 q 99 -233 199 -233 l -18 -233 m 342 801 l 224 997 l 426 997 l 483 801 l 342 801 z "}," ":{"ha":76,"x_min":0,"x_max":0,"o":""},"–":{"ha":756,"x_min":43,"x_max":710,"o":"m 43 274 l 74 433 l 710 433 l 679 274 l 43 274 z "},"—":{"ha":1214,"x_min":43,"x_max":1167,"o":"m 43 274 l 74 433 l 1167 433 l 1136 274 l 43 274 z "},"‘":{"ha":275,"x_min":94,"x_max":354,"o":"m 354 997 l 340 932 q 225 806 240 908 l 314 806 l 279 625 l 94 625 l 128 801 q 208 941 146 893 q 354 997 271 989 z "},"’":{"ha":275,"x_min":93,"x_max":353,"o":"m 93 621 l 107 686 q 222 813 207 710 l 133 813 l 168 993 l 353 993 l 319 817 q 239 677 301 725 q 93 621 176 629 z "},"‚":{"ha":275,"x_min":-64,"x_max":196,"o":"m -64 -192 l -50 -126 q 65 0 50 -103 l -24 0 l 11 181 l 196 181 l 163 4 q 82 -135 144 -87 q -64 -192 19 -183 z "},"“":{"ha":546,"x_min":94,"x_max":625,"o":"m 625 997 l 611 932 q 496 806 511 908 l 585 806 l 550 625 l 365 625 l 399 801 q 479 941 417 893 q 625 997 542 989 m 354 997 l 340 932 q 225 806 240 908 l 314 806 l 279 625 l 94 625 l 128 801 q 208 941 146 893 q 354 997 271 989 z "},"”":{"ha":546,"x_min":93,"x_max":624,"o":"m 93 621 l 107 686 q 222 813 207 710 l 133 813 l 168 993 l 353 993 l 319 817 q 239 677 301 725 q 93 621 176 629 m 364 621 l 378 686 q 493 813 478 710 l 404 813 l 439 993 l 624 993 l 590 817 q 510 677 572 725 q 364 621 447 629 z "},"„":{"ha":546,"x_min":-64,"x_max":467,"o":"m -64 -192 l -50 -126 q 65 0 50 -103 l -24 0 l 11 181 l 196 181 l 163 4 q 82 -135 144 -87 q -64 -192 19 -183 m 207 -192 l 221 -126 q 336 0 321 -103 l 247 0 l 282 181 l 467 181 l 433 4 q 353 -135 415 -87 q 207 -192 290 -183 z "},"†":{"ha":772,"x_min":88,"x_max":796,"o":"m 88 574 l 115 719 l 367 719 l 419 993 l 597 993 l 544 719 l 796 719 l 768 574 l 517 574 l 374 -162 l 196 -162 l 339 574 l 88 574 z "},"‡":{"ha":772,"x_min":-1,"x_max":796,"o":"m 88 574 l 115 719 l 367 719 l 419 993 l 597 993 l 544 719 l 796 719 l 768 574 l 517 574 l 456 257 l 707 257 l 679 111 l 426 111 l 374 -162 l 196 -162 l 249 111 l -1 111 l 26 257 l 278 257 l 339 574 l 88 574 z "},"•":{"ha":479,"x_min":63,"x_max":450,"o":"m 257 253 q 119 310 176 253 q 63 446 63 367 q 119 583 63 526 q 257 640 176 640 q 393 583 336 640 q 450 446 450 526 q 393 310 450 367 q 257 253 336 253 z "},"…":{"ha":988,"x_min":-21,"x_max":907,"o":"m 668 0 l 707 201 l 907 201 l 868 0 l 668 0 m -21 0 l 18 201 l 218 201 l 179 0 l -21 0 m 324 0 l 363 201 l 563 201 l 524 0 l 324 0 z "},"‰":{"ha":1631,"x_min":75,"x_max":1600,"o":"m 172 0 l 861 953 l 981 953 l 292 0 l 172 0 m 290 418 q 132 481 189 418 q 75 640 75 544 q 150 876 75 781 q 344 972 225 972 q 505 908 449 972 q 561 750 561 844 q 488 514 561 610 q 290 418 414 418 m 218 632 q 293 524 218 524 q 385 594 353 524 q 418 761 418 665 q 400 835 418 804 q 342 867 382 867 q 250 796 282 867 q 218 632 218 725 m 806 -22 q 647 41 704 -22 q 590 200 590 104 q 665 436 590 340 q 860 532 740 532 q 1020 468 964 532 q 1076 310 1076 404 q 1003 74 1076 169 q 806 -22 929 -22 m 733 192 q 808 83 733 83 q 901 154 868 83 q 933 321 933 225 q 915 395 933 364 q 857 426 897 426 q 765 356 797 426 q 733 192 733 285 m 1329 -22 q 1171 41 1228 -22 q 1114 200 1114 104 q 1189 436 1114 340 q 1383 532 1264 532 q 1544 468 1488 532 q 1600 310 1600 404 q 1526 74 1600 169 q 1329 -22 1453 -22 m 1257 192 q 1332 83 1257 83 q 1424 154 1392 83 q 1457 321 1457 225 q 1439 395 1457 364 q 1381 426 1421 426 q 1289 356 1321 426 q 1257 192 1257 285 z "},"′":{"ha":275,"x_min":86,"x_max":367,"o":"m 86 644 l 204 993 l 367 993 l 249 644 l 86 644 z "},"″":{"ha":522,"x_min":86,"x_max":614,"o":"m 333 644 l 451 993 l 614 993 l 496 644 l 333 644 m 86 644 l 204 993 l 367 993 l 249 644 l 86 644 z "},"‹":{"ha":379,"x_min":56,"x_max":353,"o":"m 244 76 l 56 276 l 90 450 l 353 640 l 317 453 l 174 351 l 174 349 l 278 249 l 244 76 z "},"›":{"ha":379,"x_min":26,"x_max":324,"o":"m 135 640 l 324 440 l 289 267 l 26 76 l 63 264 l 206 365 l 206 368 l 101 468 l 135 640 z "},"⁄":{"ha":333,"x_min":-289,"x_max":675,"o":"m -289 0 l 550 993 l 675 993 l -164 0 l -289 0 z "},"€":{"ha":861,"x_min":22,"x_max":889,"o":"m 564 513 l 308 513 q 296 425 300 469 l 547 425 l 532 344 l 294 344 q 463 136 300 136 q 589 186 536 135 q 665 331 642 238 l 847 331 q 711 72 815 167 q 457 -22 607 -22 q 199 73 294 -22 q 99 344 104 168 l 22 344 l 38 425 l 100 425 q 113 513 104 469 l 54 513 l 69 593 l 132 593 q 301 867 183 761 q 569 972 418 972 q 806 889 725 972 q 889 650 886 806 l 706 650 q 560 815 700 815 q 422 755 482 815 q 329 593 363 694 l 579 593 l 564 513 z "},"ℓ":{"ha":524,"x_min":-4,"x_max":586,"o":"m 19 364 q 97 386 72 378 l 181 811 q 406 1004 224 1004 q 544 958 501 1004 q 586 825 586 913 q 500 544 586 672 q 269 335 414 417 l 250 235 q 256 162 240 185 q 319 139 271 139 l 397 147 l 369 8 q 274 -1 318 -1 q 92 51 142 -1 q 65 222 43 104 l 71 256 q -4 240 46 249 l 19 364 m 360 799 l 299 489 q 335 522 329 517 q 422 670 392 583 q 453 826 453 757 q 415 876 453 876 q 360 799 376 876 z "},"™":{"ha":928,"x_min":149,"x_max":985,"o":"m 476 606 l 551 993 l 696 993 l 717 749 l 719 749 l 835 993 l 985 993 l 910 606 l 811 606 l 860 857 l 857 857 l 733 606 l 650 606 l 625 857 l 622 857 l 574 606 l 476 606 m 149 904 l 165 993 l 496 993 l 479 904 l 367 904 l 308 606 l 201 606 l 260 904 l 149 904 z "},"Ω":{"ha":1007,"x_min":-22,"x_max":1007,"o":"m 803 593 q 747 779 803 710 q 571 849 690 849 q 421 809 486 849 q 319 704 356 769 q 264 563 282 639 q 246 406 246 488 q 401 147 246 193 l 372 0 l -22 0 l 7 151 l 168 151 l 168 154 q 83 269 114 194 q 53 429 53 343 q 88 644 53 540 q 189 830 124 747 q 357 963 254 913 q 583 1013 460 1013 q 889 901 771 1013 q 1007 597 1007 790 q 951 339 1007 456 q 792 154 896 222 l 792 151 l 929 151 l 900 0 l 486 0 l 514 149 q 678 233 610 163 q 774 397 746 304 q 803 593 803 489 z "},"℮":{"ha":882,"x_min":63,"x_max":846,"o":"m 843 418 l 258 418 l 258 122 q 476 51 338 51 q 663 104 594 51 q 767 258 732 157 l 838 258 q 717 60 810 135 q 476 -15 624 -15 q 172 107 282 -15 q 63 429 63 229 q 176 747 63 624 q 469 871 290 871 q 710 789 613 871 q 843 418 846 674 m 469 808 q 258 736 338 808 l 258 479 l 651 479 l 651 753 q 469 808 579 808 z "},"⅓":{"ha":1117,"x_min":60,"x_max":1093,"o":"m 156 442 l 224 789 l 100 789 l 118 885 q 293 997 254 892 l 407 997 l 299 442 l 156 442 m 60 0 l 899 993 l 1024 993 l 185 0 l 60 0 m 840 -12 q 677 41 739 -12 q 619 188 615 94 l 756 188 q 776 118 754 143 q 843 93 799 93 q 903 114 881 93 q 925 171 925 135 q 843 239 925 239 l 813 239 l 832 335 l 868 335 q 929 352 906 335 q 953 401 953 369 q 935 444 953 429 q 886 460 917 460 q 796 379 814 460 l 663 379 q 738 512 675 461 q 896 563 800 563 q 1038 523 983 563 q 1093 414 1093 483 q 1063 335 1092 368 q 989 288 1035 303 l 989 286 q 1069 168 1069 253 q 1003 36 1069 85 q 840 -12 936 -12 z "},"⅔":{"ha":1229,"x_min":58,"x_max":1206,"o":"m 58 442 q 196 646 78 565 q 286 701 231 669 q 361 746 342 732 q 417 832 417 783 q 401 876 417 860 q 356 892 385 892 q 260 789 281 892 l 125 789 q 205 948 139 892 q 369 1004 271 1004 q 506 962 450 1004 q 561 843 561 919 q 528 740 561 782 q 436 661 494 697 q 353 613 419 650 q 265 554 286 576 l 515 554 l 493 442 l 58 442 m 189 0 l 1028 993 l 1153 993 l 314 0 l 189 0 m 953 -12 q 790 41 851 -12 q 732 188 728 94 l 868 188 q 889 118 867 143 q 956 93 911 93 q 1015 114 993 93 q 1038 171 1038 135 q 956 239 1038 239 l 925 239 l 944 335 l 981 335 q 1042 352 1018 335 q 1065 401 1065 369 q 1047 444 1065 429 q 999 460 1029 460 q 908 379 926 460 l 775 379 q 850 512 788 461 q 1008 563 913 563 q 1151 523 1096 563 q 1206 414 1206 483 q 1176 335 1204 368 q 1101 288 1147 303 l 1101 286 q 1182 168 1182 253 q 1115 36 1182 85 q 953 -12 1049 -12 z "},"⅛":{"ha":1128,"x_min":60,"x_max":1107,"o":"m 156 442 l 224 789 l 100 789 l 118 885 q 293 997 254 892 l 407 997 l 299 442 l 156 442 m 60 0 l 899 993 l 1024 993 l 185 0 l 60 0 m 842 -12 q 681 27 747 -12 q 614 147 614 67 q 739 299 615 260 l 739 301 q 681 400 681 335 q 746 521 681 479 q 897 563 811 563 q 1047 526 988 563 q 1106 417 1107 490 q 1010 290 1104 329 l 1010 288 q 1086 168 1086 253 q 1015 33 1086 78 q 842 -12 944 -12 m 847 88 q 916 110 889 88 q 943 174 943 133 q 918 228 943 210 q 856 247 893 247 q 787 225 815 247 q 758 163 758 203 q 784 107 758 126 q 847 88 810 88 m 888 335 q 947 353 924 335 q 969 404 969 371 q 949 452 969 435 q 896 469 928 469 q 838 450 861 469 q 815 399 815 431 q 835 351 815 368 q 888 335 856 335 z "},"⅜":{"ha":1192,"x_min":67,"x_max":1171,"o":"m 292 429 q 128 483 190 429 q 71 629 67 536 l 207 629 q 228 560 206 585 q 294 535 250 535 q 354 556 332 535 q 376 613 376 576 q 294 681 376 681 l 264 681 l 283 776 l 319 776 q 381 794 357 776 q 404 843 404 811 q 386 886 404 871 q 338 901 368 901 q 247 821 265 901 l 114 821 q 189 953 126 903 q 347 1004 251 1004 q 490 965 435 1004 q 544 856 544 925 q 515 777 543 810 q 440 729 486 744 l 440 728 q 521 610 521 694 q 454 478 521 526 q 292 429 388 429 m 144 0 l 983 993 l 1108 993 l 269 0 l 144 0 m 906 -12 q 744 27 811 -12 q 678 147 678 67 q 803 299 679 260 l 803 301 q 744 400 744 335 q 810 521 744 479 q 961 563 875 563 q 1111 526 1051 563 q 1169 417 1171 490 q 1074 290 1168 329 l 1074 288 q 1150 168 1150 253 q 1079 33 1150 78 q 906 -12 1008 -12 m 911 88 q 980 110 953 88 q 1007 174 1007 133 q 982 228 1007 210 q 919 247 957 247 q 851 225 879 247 q 822 163 822 203 q 848 107 822 126 q 911 88 874 88 m 951 335 q 1010 353 988 335 q 1033 404 1033 371 q 1013 452 1033 435 q 960 469 992 469 q 902 450 925 469 q 879 399 879 431 q 899 351 879 368 q 951 335 919 335 z "},"⅝":{"ha":1178,"x_min":64,"x_max":1157,"o":"m 282 429 q 128 476 189 429 q 64 604 68 524 l 199 604 q 285 536 210 536 q 353 565 326 536 q 379 639 379 593 q 358 698 379 676 q 303 719 338 719 q 222 683 251 719 l 101 683 l 194 993 l 546 993 l 522 881 l 275 881 l 244 782 l 246 782 q 358 821 294 821 q 477 773 432 821 q 522 649 522 725 q 454 488 522 546 q 282 429 386 429 m 132 0 l 971 993 l 1096 993 l 257 0 l 132 0 m 892 -12 q 731 27 797 -12 q 664 147 664 67 q 789 299 665 260 l 789 301 q 731 400 731 335 q 796 521 731 479 q 947 563 861 563 q 1097 526 1038 563 q 1156 417 1157 490 q 1060 290 1154 329 l 1060 288 q 1136 168 1136 253 q 1065 33 1136 78 q 892 -12 994 -12 m 897 88 q 966 110 939 88 q 993 174 993 133 q 968 228 993 210 q 906 247 943 247 q 837 225 865 247 q 808 163 808 203 q 834 107 808 126 q 897 88 860 88 m 938 335 q 997 353 974 335 q 1019 404 1019 371 q 999 452 1019 435 q 946 469 978 469 q 888 450 911 469 q 865 399 865 431 q 885 351 865 368 q 938 335 906 335 z "},"⅞":{"ha":1093,"x_min":28,"x_max":1072,"o":"m 125 442 q 226 685 154 574 q 386 874 299 797 l 386 875 l 121 875 l 143 993 l 557 993 l 536 886 q 278 442 333 713 l 125 442 m 28 0 l 867 993 l 992 993 l 153 0 l 28 0 m 807 -12 q 646 27 713 -12 q 579 147 579 67 q 704 299 581 260 l 704 301 q 646 400 646 335 q 711 521 646 479 q 863 563 776 563 q 1013 526 953 563 q 1071 417 1072 490 q 975 290 1069 329 l 975 288 q 1051 168 1051 253 q 981 33 1051 78 q 807 -12 910 -12 m 813 88 q 881 110 854 88 q 908 174 908 133 q 883 228 908 210 q 821 247 858 247 q 752 225 781 247 q 724 163 724 203 q 749 107 724 126 q 813 88 775 88 m 853 335 q 912 353 889 335 q 935 404 935 371 q 914 452 935 435 q 861 469 893 469 q 803 450 826 469 q 781 399 781 431 q 801 351 781 368 q 853 335 821 335 z "},"∂":{"ha":794,"x_min":44,"x_max":753,"o":"m 547 579 q 197 838 506 800 l 197 1003 q 606 837 460 989 q 753 422 753 685 q 658 98 753 215 q 378 -19 564 -19 q 131 67 217 -19 q 44 299 44 153 q 137 547 44 451 q 371 643 229 643 q 547 579 488 643 m 381 128 q 510 190 464 128 q 557 342 557 251 q 517 460 557 419 q 410 500 476 500 q 281 447 331 500 q 232 296 232 394 q 272 169 232 210 q 381 128 313 128 z "},"∆":{"ha":899,"x_min":-40,"x_max":826,"o":"m -40 0 l -14 136 l 453 993 l 656 993 l 826 138 l 801 0 l -40 0 m 443 640 l 190 154 l 628 154 l 542 628 q 531 699 536 654 q 525 778 526 744 l 522 810 l 519 810 q 443 640 472 692 z "},"∏":{"ha":993,"x_min":114,"x_max":926,"o":"m 114 993 l 926 993 l 926 -139 l 725 -139 l 725 824 l 315 824 l 315 -139 l 114 -139 l 114 993 z "},"∑":{"ha":883,"x_min":93,"x_max":835,"o":"m 835 -139 l 93 -139 l 93 35 l 485 438 l 485 440 l 93 819 l 93 993 l 821 993 l 821 829 l 318 829 l 318 826 l 682 485 l 682 401 l 308 26 l 308 24 l 835 24 l 835 -139 z "},"−":{"ha":778,"x_min":53,"x_max":761,"o":"m 53 388 l 79 524 l 761 524 l 735 388 l 53 388 z "},"∕":{"ha":333,"x_min":-289,"x_max":675,"o":"m -289 0 l 550 993 l 675 993 l -164 0 l -289 0 z "},"∙":{"ha":299,"x_min":44,"x_max":283,"o":"m 44 338 l 83 539 l 283 539 l 244 338 l 44 338 z "},"√":{"ha":821,"x_min":26,"x_max":858,"o":"m 26 299 l 26 463 l 268 463 l 344 269 l 400 113 l 403 113 q 446 271 419 190 l 678 993 l 858 993 l 492 -139 l 326 -139 l 144 299 l 26 299 z "},"∞":{"ha":1007,"x_min":44,"x_max":976,"o":"m 263 172 q 101 244 158 172 q 44 424 44 317 q 102 601 44 529 q 263 674 160 674 q 403 632 343 674 q 514 513 463 590 q 623 632 567 590 q 757 674 679 674 q 916 604 856 674 q 976 424 976 535 q 916 242 976 311 q 757 172 856 172 q 623 214 679 172 q 514 333 567 256 q 403 214 463 256 q 263 172 343 172 m 279 535 q 215 503 236 535 q 193 424 193 472 q 215 342 193 374 q 279 311 236 311 q 414 422 346 311 q 279 535 349 535 m 742 311 q 807 342 785 311 q 829 424 829 374 q 807 503 829 472 q 742 535 785 535 q 613 422 678 535 q 674 340 644 369 q 742 311 704 311 z "},"∫":{"ha":468,"x_min":-15,"x_max":499,"o":"m 147 -24 l 147 826 q 193 972 147 924 q 378 1029 250 1029 q 499 1014 444 1029 l 499 872 l 494 872 q 421 883 464 883 q 356 867 376 883 q 336 808 336 850 l 336 -42 q 290 -187 336 -139 q 106 -244 233 -244 q -15 -229 39 -244 l -15 -87 l -11 -87 q 63 -99 19 -99 q 127 -82 107 -99 q 147 -24 147 -65 z "},"≈":{"ha":768,"x_min":50,"x_max":758,"o":"m 90 471 q 153 618 101 568 q 286 668 206 668 q 441 645 333 668 q 576 622 549 622 q 628 667 619 622 l 758 667 q 701 526 747 578 q 571 475 654 475 q 405 497 514 475 q 274 519 296 519 q 221 471 233 519 l 90 471 m 50 201 q 112 349 60 299 q 244 399 164 399 q 399 376 292 399 q 535 353 507 353 q 586 397 578 353 l 717 397 q 659 257 706 308 q 529 206 613 206 q 363 228 472 206 q 232 250 254 250 q 181 201 192 250 l 50 201 z "},"≠":{"ha":768,"x_min":44,"x_max":757,"o":"m 96 499 l 122 632 l 454 632 l 524 754 l 650 754 l 579 632 l 757 632 l 731 499 l 503 499 l 425 364 l 706 364 l 679 231 l 349 231 l 279 108 l 154 108 l 224 231 l 44 231 l 71 364 l 300 364 l 378 499 l 96 499 z "},"≤":{"ha":683,"x_min":-8,"x_max":699,"o":"m 586 172 l 65 381 l 99 551 l 699 751 l 668 597 l 347 497 l 211 460 l 211 457 q 333 419 292 435 l 614 321 l 586 172 m -8 0 l 18 133 l 579 133 l 553 0 l -8 0 z "},"≥":{"ha":683,"x_min":-8,"x_max":658,"o":"m 579 133 l 553 0 l -8 0 l 18 133 l 579 133 m 138 751 l 658 543 l 625 372 l 25 172 l 56 326 l 376 426 l 513 464 l 513 467 q 390 504 432 489 l 110 603 l 138 751 z "},"Ⓟ":{"ha":1132,"x_min":78,"x_max":1099,"o":"m 589 -24 q 225 124 372 -24 q 78 493 78 272 q 226 863 78 715 q 589 1011 374 1011 q 951 863 804 1011 q 1099 493 1099 715 q 951 124 1099 271 q 589 -24 804 -24 m 589 44 q 895 172 772 44 q 1018 493 1018 300 q 895 814 1018 686 q 589 942 772 942 q 281 814 404 942 q 158 493 158 686 q 281 172 158 300 q 589 44 404 44 m 386 200 l 386 774 l 647 774 q 804 719 747 774 q 860 581 860 668 q 807 445 860 497 q 667 393 754 393 l 531 393 l 531 200 l 386 200 m 531 656 l 531 504 l 633 504 q 715 579 715 504 q 633 656 715 656 l 531 656 z "},"◊":{"ha":778,"x_min":60,"x_max":788,"o":"m 507 993 l 788 496 l 508 0 l 340 0 l 60 497 l 339 993 l 507 993 m 421 824 l 251 500 l 424 169 l 426 169 l 594 492 l 424 824 l 421 824 z "},"":{"ha":1189,"x_min":128,"x_max":1122,"o":"m 128 0 l 128 994 l 1122 994 l 1122 0 l 128 0 m 292 599 l 292 399 l 525 399 l 525 164 l 725 164 l 725 399 l 958 399 l 958 599 l 725 599 l 725 825 l 525 825 l 525 599 l 292 599 z "},"ﬀ":{"ha":836,"x_min":42,"x_max":935,"o":"m 339 582 l 226 0 l 42 0 l 154 582 l 61 582 l 86 713 l 179 713 l 194 792 q 440 989 232 986 q 540 981 489 989 l 513 836 q 460 840 483 840 q 402 824 421 840 q 375 767 383 808 l 364 713 l 572 713 l 589 797 q 835 996 626 993 q 935 988 883 996 l 907 843 q 854 847 878 847 q 797 831 815 847 q 769 772 778 814 l 757 713 l 881 713 l 856 582 l 732 582 l 619 0 l 435 0 l 547 582 l 339 582 z "},"ﬁ":{"ha":749,"x_min":42,"x_max":811,"o":"m 61 582 l 86 713 l 179 713 l 196 797 q 442 996 233 993 q 542 988 489 996 l 514 843 q 461 847 485 847 q 403 831 422 847 q 376 772 385 814 l 364 713 l 488 713 l 463 582 l 339 582 l 226 0 l 42 0 l 154 582 l 61 582 m 433 0 l 571 713 l 757 713 l 619 0 l 433 0 m 593 824 l 625 993 l 811 993 l 779 824 l 593 824 z "},"ﬂ":{"ha":754,"x_min":42,"x_max":814,"o":"m 61 582 l 86 713 l 179 713 l 196 797 q 442 996 233 993 q 542 988 489 996 l 514 843 q 461 847 485 847 q 403 831 422 847 q 376 772 385 814 l 364 713 l 488 713 l 463 582 l 339 582 l 226 0 l 42 0 l 154 582 l 61 582 m 436 0 l 628 993 l 814 993 l 622 0 l 436 0 z "},"ﬃ":{"ha":1142,"x_min":42,"x_max":1204,"o":"m 339 582 l 226 0 l 42 0 l 154 582 l 61 582 l 86 713 l 179 713 l 194 792 q 440 989 232 986 q 540 981 489 989 l 513 836 q 460 840 483 840 q 402 824 421 840 q 375 767 383 808 l 364 713 l 572 713 l 589 797 q 835 996 626 993 q 935 988 883 996 l 907 843 q 854 847 878 847 q 797 831 815 847 q 769 772 778 814 l 757 713 l 881 713 l 856 582 l 732 582 l 619 0 l 435 0 l 547 582 l 339 582 m 826 0 l 964 713 l 1150 713 l 1013 0 l 826 0 m 986 824 l 1018 993 l 1204 993 l 1172 824 l 986 824 z "},"ﬄ":{"ha":1147,"x_min":42,"x_max":1207,"o":"m 339 582 l 226 0 l 42 0 l 154 582 l 61 582 l 86 713 l 179 713 l 194 792 q 440 989 232 986 q 540 981 489 989 l 513 836 q 460 840 483 840 q 402 824 421 840 q 375 767 383 808 l 364 713 l 572 713 l 589 797 q 835 996 626 993 q 935 988 883 996 l 907 843 q 854 847 878 847 q 797 831 815 847 q 769 772 778 814 l 757 713 l 881 713 l 856 582 l 732 582 l 619 0 l 435 0 l 547 582 l 339 582 m 829 0 l 1021 993 l 1207 993 l 1015 0 l 829 0 z "}}}
